/* XPM */
static char *_87d3c0f014847b1f613ce41c9f792f6Uhe4VXLFc8ZAUqYy[] = {
/* columns rows colors chars-per-pixel */
"50 50 234 2 ",
"   c #312A1D",
".  c #2E382D",
"X  c #333C36",
"o  c #32342D",
"O  c #03242A",
"+  c #57362F",
"@  c #763B37",
"#  c #62323A",
"$  c #761F1C",
"%  c #30453C",
"&  c #565836",
"*  c #484536",
"=  c #71443C",
"-  c #6C6A37",
";  c #373C46",
":  c #3A3759",
">  c #3B3B65",
",  c #483E69",
"<  c #703140",
"1  c #3B404D",
"2  c #355271",
"3  c #396F76",
"4  c #3C6352",
"5  c #4E4D4F",
"6  c #794949",
"7  c #765552",
"8  c #684F53",
"9  c #6B6E55",
"0  c #464867",
"q  c #505072",
"w  c #735066",
"e  c #567878",
"r  c #546A71",
"t  c #626668",
"y  c #6A756C",
"u  c #BA251D",
"i  c #8B3836",
"p  c #963835",
"a  c #922D29",
"s  c #AB2D26",
"d  c #B42C27",
"f  c #A9322C",
"g  c #B8352D",
"h  c #A63934",
"j  c #B73833",
"k  c #8D211B",
"l  c #C6261D",
"z  c #C52C24",
"x  c #C5352D",
"c  c #CB352D",
"v  c #CB382F",
"b  c #C9362B",
"n  c #D2342B",
"m  c #D33329",
"M  c #CC3931",
"N  c #C73B32",
"B  c #D23931",
"V  c #8E433A",
"C  c #CA473A",
"Z  c #D34639",
"A  c #864645",
"S  c #964E49",
"D  c #A74843",
"F  c #906E75",
"G  c #D25443",
"H  c #D46B57",
"J  c #D26C57",
"K  c #D67B64",
"L  c #56857D",
"P  c #679876",
"I  c #6EA779",
"U  c #888472",
"Y  c #D68D72",
"T  c #D59579",
"R  c #D59577",
"E  c #D7866D",
"W  c #E1967A",
"Q  c #2D728D",
"!  c #54588A",
"~  c #50728B",
"^  c #656898",
"/  c #727895",
"(  c #547CAF",
")  c #696BA7",
"_  c #7578B7",
"`  c #7373B1",
"'  c #625E99",
"]  c #7A7DC2",
"[  c #817EC6",
"{  c #368C99",
"}  c #2586AB",
"|  c #398AA6",
" . c #289AB8",
".. c #3199B4",
"X. c #2E93A8",
"o. c #35A8B9",
"O. c #38B5B7",
"+. c #3CA5AC",
"@. c #4A9597",
"#. c #4C908D",
"$. c #5BA89A",
"%. c #48A19E",
"&. c #7BB689",
"*. c #72B18F",
"=. c #4B8BAC",
"-. c #7985BF",
";. c #7894AC",
":. c #4ABCBB",
">. c #55BFB7",
",. c #48ADAA",
"<. c #73B5AB",
"1. c #7BCB9D",
"2. c #7CD69F",
"3. c #56C2B6",
"4. c #5BC2B4",
"5. c #54C3BA",
"6. c #57CAB7",
"7. c #5BD4BB",
"8. c #4EC0BF",
"9. c #64C4AE",
"0. c #69C6AB",
"q. c #6ACAAB",
"w. c #69C8AC",
"e. c #74CCA4",
"r. c #6CD4AC",
"t. c #6ED8AC",
"y. c #75D7A7",
"u. c #63C7B1",
"i. c #66D5B3",
"p. c #6DE7BB",
"a. c #289AC3",
"s. c #1EABDD",
"d. c #27A8CA",
"f. c #33B4CE",
"g. c #3BBBCB",
"h. c #3BB8C9",
"j. c #23AEDD",
"k. c #25AAD5",
"l. c #2DB3D5",
"z. c #25B2DD",
"x. c #2AB3DA",
"c. c #26BADE",
"v. c #2CBADB",
"b. c #29B5D6",
"n. c #32B4D3",
"m. c #34BCD5",
"M. c #34BAD6",
"N. c #35A2C5",
"B. c #1DA6E1",
"V. c #1EAAE1",
"C. c #1CB4E6",
"Z. c #20AEE0",
"A. c #21AEE2",
"S. c #21AEE1",
"D. c #22B1E1",
"F. c #22B2E1",
"G. c #23B4E0",
"H. c #24B6E2",
"J. c #23B4E1",
"K. c #26BAE2",
"L. c #28BEE2",
"P. c #23B9E8",
"I. c #20BDF3",
"U. c #7D87C5",
"Y. c #7D90C3",
"T. c #44BBC4",
"R. c #47BBC1",
"E. c #77B2C4",
"W. c #3AC5C7",
"Q. c #2BC5D9",
"!. c #36C3D5",
"~. c #3BC5D3",
"^. c #3BCBD4",
"/. c #33CCDB",
"(. c #37C9DA",
"). c #3CD4D5",
"_. c #35D4DD",
"`. c #3BD4DA",
"'. c #3CDADC",
"]. c #35D8DC",
"[. c #2CD3DE",
"{. c #3FE0DF",
"}. c #2BC4E2",
"|. c #2ECAE2",
" X c #26C6E9",
".X c #30CDE2",
"XX c #2DD5EB",
"oX c #33D3E2",
"OX c #35DAE3",
"+X c #3ADDE1",
"@X c #35DBE7",
"#X c #26CAF1",
"$X c #35E6EC",
"%X c #3AE5E8",
"&X c #35E6F1",
"*X c #44C7CA",
"=X c #49D3CA",
"-X c #54D6C3",
";X c #42CED1",
":X c #42D9D6",
">X c #55CBC1",
",X c #45E5DB",
"<X c #5AE5CA",
"1X c #40E6E2",
"2X c #60E6C4",
"3X c #948798",
"4X c #869CB1",
"5X c #88C79A",
"6X c #87D294",
"7X c #98D196",
"8X c #A8D69A",
"9X c #B6D796",
"0X c #B6E49E",
"qX c #A9DDA1",
"wX c #B7E7A5",
"eX c #D2FCAB",
"rX c #D9FCAA",
"tX c #D1F9AC",
"yX c #8284CB",
"uX c #8589D5",
"iX c #878AD6",
"pX c #908BDB",
"aX c #96BCDA",
"sX c #8EB0CC",
"dX c #ABBBC5",
"fX c #9CC2DE",
"gX c #89C1D9",
"hX c #9EC7E5",
"jX c #9ED2F2",
"kX c #A6D1EE",
"lX c #A9D4F4",
"zX c #AAD4F2",
"xX c #A1C3DF",
"cX c #D8D5D4",
/* pixels */
"v.v.v.v.v.x.:.w.g.0.5.v.M.M.M.f.w.g.v.v.v.v.4.T.c.v.c.z.z.H.H.H.H.H.H.H.H.H.H.H.H.H.H.H.H.H.J.H.H.J.",
"v.z.v.x.x.l.9.T.x.g.q.g.l.M.x.T.u.l.x.x.x.x.R.5.z.v.z.z.H.H.H.J.J.J.J.J.J.J.J.J.J.J.J.J.J.J.J.J.J.J.",
"v.z.v.x.z.T.u.b.l.b.4.3.b.n.x.>.5.x.x.x.x.z.T.3.z.v.z.z.z.J.J.J.J.J.J.J.J.J.J.J.J.J.J.J.J.J.J.J.J.J.",
"z.z.z.x.z.>.>.x.n.l.h.0.f.n.l.9.T.x.l.x.x.z.>.R.z.z.z.z.z.J.J.J.J.J.J.J.J.J.J.J.J.J.J.J.J.J.J.J.J.J.",
"z.z.z.z.z.4.T.x.n.l.l.9.T.x.n.9.h.x.x.x.b.b.9.h.Z.z.z.j.j.J.J.J.J.Z.Z.J.J.J.J.J.J.J.Z.Z.Z.Z.Z.Z.Z.Z.",
"z.z.x.x.z.4.h.x.l.l.l.:.4.x.h.9.f.l.l.l.z.h.9.l.z.j.j.J.J.j.Z.j.Z.V.V.Z.Z.Z.J.J.Z.Z.Z.Z.Z.Z.Z.Z.Z.Z.",
"x.z.x.x.k.4.T.x.l.n.l.h.0.f.h.9.l.l.l.l.k.4.:.j.z.j.j.a.d.J.Z.P.V.j.V.Z.Z.Z.Z.Z.Z.Z.Z.Z.Z.Z.Z.Z.Z.Z.",
"z.z.x.x.j.3.:.x.n.n.n.l.9.T.T.9.l.n.n.b.T.9.l.z.j.P.} o Q P.k.} k.Z.V.Z.Z.Z.Z.Z.Z.Z.Z.Z.Z.Z.Z.Z.Z.Z.",
"x.z.x.x.x.T.9.l.n.n.n.l.>.>.:.9.l.n.l.f.0.T.z.x.z.J.3 +  .I.Q   } P.s.Z.Z.V.Z.Z.Z.Z.Z.Z.Z.Z.Z.Z.V.Z.",
"x.x.x.x.x.n.0.:.l.n.n.n.T.0.>.4.l.n.l.4.4.b.x.x.j.%.9X$.V. .P 3 k.D.Z.J.J.Z.Z.Z.Z.Z.Z.Z.Z.Z.Z.V.Z.Z.",
"x.b.x.f.f.l.h.e.T.n.n.n.f.0.1.>.n.n.T.e.f.x.l.K. .8XrX,. .8XtXo.C.z.J.J.V.V.V.J.J.J.J.J.J.J.J.J.Z.Z.",
"l.l.3.q.q.w.3.>.e.5.n.f.n.4.q.T.n.h.e.R.l.n.v.z.$.rXqX} 5XrX8X .P.z.J.J.J.J.J.J.J.J.J.J.J.J.J.J.J.J.",
"l.5.w.T.T.5.w.e.1.6X0.T.g.g.:.R.g.0.4.b.M.v.v.d.7XrX*.@.eXeX<.s.H.H.H.H.H.H.H.H.H.H.H.J.J.J.J.J.J.J.",
"m.w.g.v.M.M.M.g.3.e.6X6X4.5.1.e.e.1.4.5.5.8.~.+.0XtX#.7XeX0X+.P.H.H.H.H.H.H.H.H.H.H.H.H.H.H.H.H.H.H.",
"*Xu.m.m.m.m.m.m.m.g.3.1.6X6X5.*X6Xe.w.q.q.q.w.&.rX8X#.tXeX5Xd.}.H.K.L.K.K.K.H.H.H.H.H.H.H.H.H.H.H.H.",
"*Xu.!.!.!.!.!.~.~.~.~.W.6.e.*X~.q.5.!.!.!.!.*X4 9 1.#.9XeX$.K.}.L.L.L.L.L.L.L.L.L.L.K.K.K.K.K.K.K.H.",
"~.q.*X(.!.~.~.~.~.~.*X~.*Xy.*X~.r.6.!.~.~.!.(.O o <.O   8Xo.}.Q.}.}.}.}.}.}.}.}.}.}.}.L.}.L.L.L.L.L.",
"(.i.>X/.^.^.^.^.^.^.^.^.*X2.r.u.y.*X^.^.^.(.h.&.9X*.% 9 e.c.|.}.}.}.}.}.}.}.}.}.}.}.}.}.}.}.}.}.L.L.",
"(.*Xy.;X/.(.(.^.^.*X7.r.2.r.r.y.=X^.^.^.^.`.O.qXeXI wXwXO.|./.|.|.|.|.|.|.|.}.}.}.}.}.}.}.}.}.}.}.}.",
"`.(.7.y.7.7.7.i.y.y.y.6Xy.;X;Xi.=X^.;X^.^.`.O.qXwXP tX5XQ.oX.X.X.X.X.X.X|.|.|.|.|.|.|.}.}.}.}.}.}.}.",
"`.`.`.=Xi.t.t.i.7.=Xr.y.;X:X=X2.y.=X`.:X).`.W.qX0XI tX,.oXoXoXoXoX.X.X.X|.|..X|.|.|.|.|.|.}.}.}.}.}.",
"`._._._.`.'.'.).`.7.y.=X:X:X-Xt.i.y.=X'.:X:XW.7X8XI 8Xh.@X_.oXoXoXoXoXoXoX.X.X.X|.|.|.|.|.}.}.}.}.}.",
"].].].`.`.`.:X'.-Xy.=X:X:X:X-Xt.`.7.y.-X'.1X].5X7X&.5XQ.OX_.oXoXoXoXoXoXoXoX.X|..X.X|.|.|.}.}.}.}.}.",
"].].].].`.`.:X:Xt.-X`.:X:X{.<Xp.`.).<XP * e +.*.&.*.q.oX].OXOXoXoXoXoXoXoXoXoX.X.X.X|.|.|.}.}.}.}.}.",
"+X+X'.'.'.%X).6.r.,X:X:X1X,.y $.%X,X'.=X*.7 $ V @ V y ^.%X].@XOXOXOX@XoXoXoXoX.X.X.X|.|.|.}.}.}.}.}.",
"+X+X'.%X).L 6 V A #.,X1X%.a a a e W.,X%X:.= d d d x d 7 ).+XOXOX@X@X@XoXoXoXoX.X.X|.|.|.}.}.}.}.}.}.",
"+X'.%XW.7 u m c m d L #.a y t.L F E.).%.p d f s g s a u #.$X].OXOXoXoXoXoXoXoX.X|.|.|.}.}.}.}.}.}.L.",
"+X%X).6 Z J C v N B s k e ,Xp.O.;.sX8 f c M x d s s j c 7 OX%X@X$X$X@XoXoXoXoX|.|.|.}.}.}.}.}.L.L.L.",
"%X$Xr N Y T J b v N M g p P 2X:X#.~ p n N v c v M v v B h O./.^.,.#.^.@XoXoX.X|.|.|.}.}.}.L.L.L.H.K.",
"%XW.p K T R K v v b x C Z f :.W.E.fX4Xp x c c c B c c m u ~ / @ @ @ 8 oXoX.X|.|.|.}.}.}.L.L.H.H.H.H.",
"$X@.g Y Y R K v x 6 g H H d r gXlXaX;.cXF S j j s f D S 3XlX3X5 ^.`.@ @.&XXXQ.|.|.}.}.L.L.H.H.H.H.H.",
"&Xe C R Y T J z 7 %.h Z j # ` aXlXkXaXdXsXfXsX;.;.sXxXkXjXsX=.o.%X&Xy 6 Q.e 6 r b. XL.K.H.H.H.J.J.J.",
"$Xt Z T Y T H u @.W.p c + X ^ -.aXlXhXhXaX4XsXhXlXlXkXlXaX~ X.&X/.[.@.i 6 z m z 6 d. Xc.H.J.J.J.J.Z.",
"$Xe v Y T E C z e ].A g ; % ; ) _ sXhXlXzXhXlXlXkXkXkXlXhX;.=.{ 6 V i g c N x N m 7 b.K.H.J.J.J.J.Z.",
"%XO.f Z H C x n h r @ w _ ; X 5 U / _ Y.sXaXaXhXkXkXkXkXhX;.~ a n n n v v x v v v z r P.z.J.Z.Z.Z.Z.",
"OX@Xr l c x v x B s { =.pX_ ; - & & 9 ^ ] U.-.U.U.U.Y.Y.-.! : h K C x v c v v x C G p a.P.Z.Z.V.Z.S.",
"oX@X_.r s m m m z t OX=.yXiX` - * X . & t ' ) ) _ _ ^ ^ ^ 0 o D W C d @ j c v G Y R C ~ C.Z.V.V.V.V.",
"oXoXoXoX%.t 6 6 ~ /.@Xo._ iXuX/ 9 9 & - X X X . 0 q . X . X o h G c A X.p n x K R R G 8 C.j.V.V.V.V.",
"oX.X|..XXXXX/./.XXoXoX/.=.yXiX] _ _ 8 9 1 1 ; X 0 ' ; 1 0 0 > < m z ~ Q.i m N E Y T G 8 C.Z.V.V.V.V.",
".X|.|.|..X.X.X.X.X.X.XoX/.( [ ] _ U.> ] uX_ _ _ ] yX] U.iX' q 0 6 i { ~ f c C Y Y R Z q C.s.V.V.V.B.",
".X|.|.|.|.|.|.|.|.|.|.|.Q.( ` ) ) yX> _ iXuXiXiXiXuXiXiXyX! , Q }.Q a d v b C R T K s } C.s.s.B.B.B.",
"}.}.}.}.}.}.}.}.}.}.}.|.b.( iX] 0 2 q [ iXiXiXuXuXuXuXiX` 0 2 M.#X..f B N v N J J b q C.V.V.V.V.B.B.",
"}.}.}.}.}.}.}.}.}.}.}.Q. X| w ` 0 2 N.=.=.( ( =.! ) iXuX! : d. Xc. X{ p m m m m d 8 k.V.S.S.V.B.B.B.",
"L.K.K.L.L.L.}.}.L.L.L.c. X@.l 6 } d. X}.c.x.x.c.| _ ] ! , Q L.L.L.H. X..t A A 6 ~ k.D.s.V.V.V.B.B.B.",
"L.K.K.K.K.K.K.K.K.K.K.K. X| a | #X XH.L.L. XK.}.l.a.q a 8  XL.H.K.K.c. XP.k.k.k.C.D.V.V.V.B.B.B.B.B.",
"K.H.H.H.H.H.H.H.H.H.H.H.K.l. .K.z.c.H.H.H.H.H.H.H. X..d A C.K.H.H.H.H.H.H.J.H.D.Z.V.S.V.V.B.B.B.B.B.",
"H.J.H.J.J.J.J.J.J.J.J.J.H.H.P.J.H.H.J.J.H.H.H.H.z.z.P.~ r H.H.J.H.H.H.z.J.J.Z.j.s.V.V.V.V.B.B.B.B.B.",
"H.J.J.J.J.J.J.J.J.J.J.J.J.J.z.J.J.J.J.J.J.J.J.J.H.J.J.P.P.H.J.H.J.H.J.J.J.J.J.Z.Z.V.V.V.V.B.B.B.B.B.",
"J.J.J.J.J.J.J.J.J.J.J.J.J.J.J.J.J.J.J.J.J.J.J.J.J.J.J.J.J.J.J.J.J.J.J.J.J.J.J.Z.Z.V.V.V.V.V.V.B.B.B.",
"J.J.J.J.J.J.J.J.J.J.J.J.J.J.J.J.J.J.J.J.J.J.J.J.J.J.J.J.J.J.J.J.J.J.J.J.J.J.J.Z.Z.Z.V.V.V.V.V.V.B.B."
};
