/* XPM */
static char *_9154131fc9147c3c74cd36271ce5e84uHac8PrsXS12AKdH[] = {
/* columns rows colors chars-per-pixel */
"50 50 238 2 ",
"   c #031E2A",
".  c #1E2B3A",
"X  c #2C352A",
"o  c #353B38",
"O  c #31332D",
"+  c #281104",
"@  c #620803",
"#  c #65241F",
"$  c #52312B",
"%  c #67383A",
"&  c #763539",
"*  c #712F2E",
"=  c #5E482C",
"-  c #525633",
";  c #6A6837",
":  c #7A582C",
">  c #373A50",
",  c #3F3B64",
"<  c #763A4A",
"1  c #6B374F",
"2  c #443F69",
"3  c #40304D",
"4  c #334959",
"5  c #2C5370",
"6  c #48495E",
"7  c #554B5B",
"8  c #684959",
"9  c #794A54",
"0  c #77484C",
"q  c #626250",
"w  c #46476B",
"e  c #455769",
"r  c #514B7D",
"t  c #545877",
"y  c #4F506F",
"u  c #695462",
"i  c #7A5461",
"p  c #6D5371",
"a  c #566C75",
"s  c #6C7276",
"d  c #931A15",
"f  c #A11E1A",
"g  c #A7221B",
"h  c #B9231E",
"j  c #892D2A",
"k  c #9B2D2A",
"l  c #97352C",
"z  c #893437",
"x  c #963737",
"c  c #8A2D30",
"v  c #A52924",
"b  c #B62923",
"n  c #A8332E",
"m  c #BC342B",
"M  c #B7342C",
"N  c #A73935",
"B  c #B13B31",
"V  c #C7261E",
"C  c #C52F24",
"Z  c #C4342C",
"A  c #CD342C",
"S  c #CC382F",
"D  c #C73127",
"F  c #D2352A",
"G  c #D73429",
"H  c #C83A32",
"J  c #D13B33",
"K  c #9C4637",
"L  c #AF453B",
"P  c #CA4639",
"I  c #D24739",
"U  c #8B3947",
"Y  c #854247",
"T  c #82495B",
"R  c #8E524F",
"E  c #AE5552",
"W  c #885265",
"Q  c #996864",
"!  c #AD6865",
"~  c #96775C",
"^  c #C95748",
"/  c #CD574A",
"(  c #CC634E",
")  c #D26A54",
"_  c #D3725A",
"`  c #DE7D63",
"'  c #D37963",
"]  c #748A5B",
"[  c #8D8A66",
"{  c #AE817D",
"}  c #D6846A",
"|  c #D68E72",
" . c #D49375",
".. c #D59779",
"X. c #D89779",
"o. c #E18C70",
"O. c #385F8E",
"+. c #38688B",
"@. c #246D95",
"#. c #3B7798",
"$. c #306F9A",
"%. c #3474A6",
"&. c #585A8A",
"*. c #445887",
"=. c #6B5E86",
"-. c #7C5E90",
";. c #447C94",
":. c #597A97",
">. c #4A6D8F",
",. c #656387",
"<. c #676999",
"1. c #7E7E95",
"2. c #697381",
"3. c #4878A6",
"4. c #5176AA",
"5. c #6B6DA9",
"6. c #6877B7",
"7. c #757ABE",
"8. c #7277B9",
"9. c #726EA6",
"0. c #777BC3",
"q. c #6A7BC0",
"w. c #1E8CBF",
"e. c #3A87A2",
"r. c #2787BA",
"t. c #2E97BB",
"y. c #3696B6",
"u. c #318AB2",
"i. c #3DA0BF",
"p. c #4A8198",
"a. c #6C969D",
"s. c #4B82AA",
"d. c #4E8CB5",
"f. c #6A92A9",
"g. c #688EAE",
"h. c #5DA7B8",
"j. c #63B4A9",
"k. c #73B0B6",
"l. c #1B9AD3",
"z. c #1D92C9",
"x. c #2697C8",
"c. c #279DDB",
"v. c #329DDB",
"b. c #3B9DDB",
"n. c #319AD2",
"m. c #3790C5",
"M. c #1DA3DE",
"N. c #1EABDF",
"B. c #23A4DE",
"V. c #2BA4DD",
"C. c #25ABDF",
"Z. c #2AACDE",
"A. c #29ACD6",
"S. c #34A2DC",
"D. c #34ADDD",
"F. c #3CACDC",
"G. c #39A5D9",
"H. c #25B1DF",
"J. c #2DB4DE",
"K. c #29BBDE",
"L. c #26B5D6",
"P. c #33B4DE",
"I. c #33B9DF",
"U. c #3BB3DD",
"Y. c #33A4CC",
"T. c #239FE1",
"R. c #1CA4E1",
"E. c #1EA9E1",
"W. c #1AABE8",
"Q. c #22A4E1",
"!. c #2BA3E2",
"~. c #22ACE1",
"^. c #2CACE1",
"/. c #24ABE9",
"(. c #22B2E1",
"). c #24B3E1",
"_. c #2AB5E1",
"`. c #26BAE2",
"'. c #2ABCE1",
"]. c #2BB7EA",
"[. c #31BAE1",
"{. c #36B7E3",
"}. c #35A1E1",
"|. c #4C96D6",
" X c #439BD9",
".X c #4C9DD9",
"XX c #4797D7",
"oX c #5495D5",
"OX c #539BD6",
"+X c #5B9BD5",
"@X c #5799D9",
"#X c #5093C9",
"$X c #649BD6",
"%X c #748AC4",
"&X c #44A3DA",
"*X c #4CA3D9",
"=X c #43A9DA",
"-X c #4AA5D7",
";X c #52A2D6",
":X c #52A2DA",
">X c #56A5D9",
",X c #41B2DC",
"<X c #63A6DF",
"1X c #78A3C0",
"2X c #4B9FE0",
"3X c #49A4E2",
"4X c #53A0E3",
"5X c #63A7E3",
"6X c #2CC3DF",
"7X c #2BC4E2",
"8X c #2AC3EA",
"9X c #2BC9E7",
"0X c #36C1EA",
"qX c #8E96AC",
"wX c #92A9AE",
"eX c #A3AEB0",
"rX c #A09B8F",
"tX c #C4BBBC",
"yX c #ACD597",
"uX c #AACE90",
"iX c #84CAB2",
"pX c #C7EFA3",
"aX c #8384CC",
"sX c #8589D5",
"dX c #8989D6",
"fX c #878BD8",
"gX c #89ABC8",
"hX c #92B4D4",
"jX c #91B4CC",
"kX c #8C92E1",
"lX c #9EC4DF",
"zX c #B2C2D0",
"xX c #9BC6E6",
"cX c #A8D6F6",
"vX c #A8D2EF",
"bX c #D6D9D8",
"nX c #CDCFCE",
"mX c #E4E7E8",
/* pixels */
").).).).).(.).(.C.C.~.~.~.Z.|.oXS.V.V.v.oXXXB.V.B.B.Q.B.T.T.c.T.c.c.Q.c.B.Q.R.R.R.R.R.R.R.R.R.R.R.R.",
").(.(.(.(.(.(.~.~.~.~.~.~. XoXS.Q.Q.V.B.v.oXv.B.V.B.B.B.T.B.c.XXoX|.v.B.Q.Q.R.M.M.R.R.R.R.R.R.R.R.R.",
"(.(.(.(.(.(.(.~.~.~.~.~.V.oXb.Q.V.Q.V.V.B.|. XB.V.c.B.B.c.B.XXoXb.XXoXc.Q.B.M.M.R.R.R.R.R.R.R.R.R.R.",
"~.~.~.~.~.~.~.~.~.~.~.~.S.oXV.B.V.B.V.V.Q.b.oXV.Q./.Q.c.M.v.@X!.R.B.|.|.Q.R.R.R.R.R.R.R.R.R.R.R.R.R.",
"(.(.~.~.~.~.~.~.~.~.~.~.G.OXB.B.B.B.B.V.V.V.oX}.x.@.x.Q.V.@X3.r.!.V.c.oXv.R.Q.R.R.R.R.R.R.R.R.R.R.R.",
"~.~.~.~.~.~.~.~.~.~.~.E.G.OXB.B.B.B.B.B.B.V.|.XX4 $ $./.b.3.o 4 x.Q.B.|. XQ.B.E.E.E.E.E.E.E.E.E.E.E.",
"~.~.E.E.E.~.~.~.~.~.~.~.V.oXV.B.B.B.B.B.B.B. XXXe j #./.OX3.$ 7 B.Q.Q.b.oXV.Q.E.E.E.E.E.E.E.E.E.R.R.",
"(.(.E.E.E.~.~.~.~.~.C.~.Q.OXb.Q.B.B.B.Q.B.B.b.oX9 G z u.4Xt Z M #./.B.S.oXV.Q.B.Q.Q.E.E.E.E.E.E.E.E.",
"(.(.(.(.~.~.~.~.~.~.~.C.~.G.OXV.~.C.B.Q.V.B.S.oX9 F C =.2X9 F F u E.B.V.oXV.~.~.~.~.~.E.E.E.E.E.E.E.",
"(.(.(.(.(.(.(.~.~.~.~.~.~.Z.OX&XC.C.Z.Z.Z.C.S.4Xt D F T n.Y F A 9 B.C.V.oXV.~.~.C.~.~.~.~.~.~.E.E.E.",
").(.(.(.(.).(.(.).).H.).~.~.G.@XZ.~.Z.Z.Z.Z.V.@Xs.n G Y x.0 F F 9 C.C.G.OXZ.~.~.~.~.~.~.~.~.~.~.~.E.",
").).).).).).).).).).).).).H.Z..X.XZ.Z.Z.Z.Z.Z.OX#XY G x x.9 A A u (.Z.&XOX^.Z.~.~.~.~.~.~.(.(.(.~.~.",
"`.`.`.`.`.`.`.).).).).)._._._.D.@X&X_.Z.^.Z.Z.OX&Xu G x x.9 F Z >.].D.@X&X_.Z.^.Z.).).).).(.).).).(.",
"`.`.`.`.`.`.`.`.`.`.'._._._._._.=X+XF.J.P.P.J.*X*X7 h z t.0 b f #.].OX+XZ.J.J.H._._.).).).).).(.).).",
"'.'.'.'.'.'.'.'.'.K.K.'.'.J.J.J._.-X+XU.P.P.P.-X<X5 + s D.. = [ y.:X+XD.H._._._._._.).).).).).).).).",
"7X7X7X7X7X7X'.'.K.8X8X`.`.'.8X[.P.P.;X+X{.P.P.=X<X>.- j.D.  ] iX|.+XF.F.-X;XOX:X=X_._._._.).).`.).).",
"7X7X7X7X7X7X7X7X8Xy.a u 9 u ;.J.[.P.U.$X;XI.{.P.{.d.uXj.x.rXpXa.$X;X+X$X+X;X*X*X+X:XJ._._._.'.`.).).",
"7X7X7X7X7X7X7X9X;.N ) } ` I b 8 A.[.I.,X$X;X#.#X>Xi.uXj.y.pXyXd.$X+X-XU.P.[.'.'.P.+X=X'._._.'.`.).`.",
"9X9X7X7X7X6X9Xe.L o... .X./ A D u >X>X>X<X$X8 7 5Xg.uXf.f.pXa.*X,XI.[.I.[.[.P.J.'.=X;X_._._.).`.).).",
"9X9X7X7X7X7XK.0 ` ..| X._ S H J v 8 T T ,.%X;X% ;.h.yXd.wXyXi.[.I.I.I.I.I.P.[.P._.F.OX_._._._.).).).",
"9X7X7X7X6X9Xy.N |  . .( S S H v B ( ) I C x d.p.% a ~ 8 uXj.P.I.I.I.I.[.[.I.'.J._.F.OX_._._.).).).).",
"9X7X7X7X7X9Xe.L  . .' D S H v L | X... .P G Y t.% d V K [ p.0XP.I.I.[.[.'.'.J.J._.=X:X_._.).).).).).",
"7X7X7X7X7X9Xy.L X. .} P A & l ` ..| ..} P m * qX{ ! ! Q K z Y.{.P.I.[.P._._.J._._.;X&X)._.).).).).).",
"7X7X7X7X'.7XL.Y ` ..../ Y e P |  . .} I g % eXnXnXnXzXmXs @ p.8XP.[.P.J._.J._._.F.@XD._.H.H.).).).(.",
"7X7X'.'.'.K.8X;.m ) ^ A x & I  . .../ n 2.s R rXtXmXbXbXeXY i {.F.P.J._._._.H.F.@X&X).~.~.~.~.~.(.(.",
"7X7X'.`.`.'.'.H.8 V A S G b P  .| ../ W qXx g f M E rXnXbX( x #X+X@X:X&X&X&XOX+X&XC.~.C.~.~.~.~.~.~.",
"'.`.`.`.`.)._.`.A.a N n Y c Z ' ....X.^ b F M 0 E M g k x n i m.F.*X.XOXOXOX.XS.C.~.~.C.~.~.~.~.E.E.",
"`.`.).).).).).H._.].4.* e.t.l I _ ' ) H S F x gXlXqX1.qXeXlX1Xy._.^.Z.^.Z.C.~.~.~.~.~.~.E.E.E.E.E.E.",
"`.).).(.(.).).H.C.Z.3X,.& Y.e.k A F A S S N qXgXjXxXcXcXcXjXf.s.S.Z.Z.^.Z.C.C.C.~.~.~.~.E.E.E.R.E.N.",
").).(.(.(.~.~.C.C.~.&X.Xt * >.&.# l l m & qXcXvXcXcXvXcXf.hXvXg.#X^.Z.~.~.Q.Q.Q.~.~.~.Q.E.E.E.E.E.E.",
").(.(.~.~.~.~.~.~.~.V.@X3X+.=.kXe X ; : c <.%XgXhXxXxXqX% jXk.:.:.&XB.B.~.Q.Q.B.B.E.E.E.E.E.E.E.E.E.",
"H.(.~.~.~.~.~.~.~.~.~.S.@X#Xq.fX0.q - . $ * -.0.9.p z U W <.&.w > 3.^.B.B.B.B.E.E.E.E.E.E.E.E.E.R.R.",
"(.~.E.E.E.E.Q.~.B.B.B.B.!.m.6.dXsX1.; - o = * U z # p ,.<.<.t > o 4 S.B.B.B.Q.E.M.E.E.R.R.R.R.R.R.R.",
"~.~.E.E.E.E.E.E.E.Q.Q.Q.Q.E.%.aXsX0.5.s ; ; X $ O X &.> X X O o > > m.Q.B.Q.M.E.E.E.R.R.R.R.R.R.R.M.",
"N.E.E.E.E.E.E.E.E.E.E.B.B.Q.x.4.fX7.7.0.6 9.&.y e 6 5.t e t t 2 r 2 r.Q.B.E.R.E.E.E.E.R.M.M.R.R.R.R.",
"E.E.E.E.E.E.E.E.E.E.E.E.M.E.M.O.5.8.%X5.w fXfXfXsXsXsXsXsXfX5.r w *.V.M.B.R.R.R.E.E.E.E.R.R.R.R.R.R.",
"E.E.E.E.E.E.E.E.E.E.E.E.E.E.z.y < &.&.&.&.fXsXsXsXfXsXaXsXsX&.2 *.XXQ.Q.M.E.R.R.R.R.R.R.R.R.R.R.R.R.",
"E.E.E.E.E.E.E.E.E.E.E.E.R.E.l.< G 1 > +.4.6.7.7.7.6.5.sXaX<., *.oX!.B.B.R.E.R.R.R.R.R.R.R.R.R.R.R.R.",
"E.E.E.E.E.E.E.E.R.R.E.R.M.W.r.N m 4 @.M.l.z.r.r.r.x.%.5.< k 3 m.!.B.Q.R.E.R.R.R.R.R.R.R.R.R.R.R.R.R.",
"E.E.E.E.E.E.E.E.R.R.E.R.M.W.%.c +.W.E.E.R.E.E.E.E.Q.B.$.c C +.Q.B.B.E.E.R.R.R.R.R.R.R.R.R.R.R.R.R.R.",
"E.E.E.E.E.E.E.E.R.R.R.M.M.R.l.w.W.R.M.R.R.R.R.M.M.B.W.u.c t B.Q.B.Q.R.R.R.R.E.R.R.R.R.R.R.R.R.R.R.R.",
"E.E.E.E.E.E.E.R.R.R.R.M.M.R.E.E.M.M.M.M.R.E.E.E.R.R.E.x.r.E.R.B.M.E.R.R.E.R.E.R.R.R.R.R.R.R.R.R.R.R.",
"E.E.E.E.E.R.E.R.R.R.R.M.R.M.M.M.R.R.M.R.R.E.E.R.R.R.R.R.E.Q.R.R.E.E.R.R.R.R.R.R.R.R.R.R.R.R.R.R.R.R.",
"E.E.E.E.E.R.E.E.R.R.R.R.E.E.E.E.E.R.R.R.R.R.R.E.R.E.R.R.M.R.R.R.R.E.R.R.R.R.R.R.R.R.R.R.R.R.R.R.R.R.",
"E.E.E.E.E.E.E.E.E.R.R.R.E.R.R.R.R.R.R.R.R.R.R.R.R.R.R.R.R.R.R.R.R.R.R.R.R.R.R.R.R.R.R.R.R.R.R.R.R.R.",
"E.E.E.E.E.E.E.E.R.E.R.R.R.R.R.R.R.R.R.R.R.R.R.R.R.R.R.R.R.R.R.R.R.R.R.R.R.R.R.R.R.R.R.R.R.R.R.R.R.R.",
"~.E.E.E.E.E.E.E.E.E.E.E.E.R.R.R.R.R.E.E.R.R.R.R.R.R.R.R.R.R.R.R.R.R.R.R.R.R.R.R.R.R.R.R.R.R.R.R.R.R.",
"~.~.E.E.E.E.E.E.E.E.E.E.E.E.E.R.R.E.E.E.R.R.R.R.E.R.E.E.E.E.E.E.E.E.E.E.E.E.E.E.E.E.E.E.E.E.E.E.E.E.",
"(.~.~.~.E.E.E.E.E.E.E.E.E.E.R.E.E.E.R.E.E.E.E.E.E.E.E.R.R.R.E.E.E.E.E.E.E.E.E.E.E.E.E.E.E.E.E.E.E.E.",
"(.(.(.(.~.~.E.E.E.E.E.E.E.E.E.R.R.R.R.R.E.E.E.E.E.E.E.E.R.E.E.E.E.E.E.E.E.E.E.E.R.R.R.E.R.R.R.R.E.E."
};
