/* XPM */
static char *_9b3493ee3d94d8ae50c2216b816cdc91lreWpJwjhhyJLib[] = {
/* columns rows colors chars-per-pixel */
"50 50 227 2 ",
"   c #09070C",
".  c #100A11",
"X  c #29332A",
"o  c #31382E",
"O  c #343C37",
"+  c #7F1C1D",
"@  c #582733",
"#  c #742828",
"$  c #743034",
"%  c #3C4132",
"&  c #474B35",
"*  c #4A4C2F",
"=  c #737036",
"-  c #714436",
";  c #373B43",
":  c #323756",
">  c #393C65",
",  c #773C43",
"<  c #663E4A",
"1  c #503552",
"2  c #3D4454",
"3  c #3E486A",
"4  c #345271",
"5  c #2B606F",
"6  c #434959",
"7  c #79444C",
"8  c #6B4955",
"9  c #744852",
"0  c #6C5E41",
"q  c #566A49",
"w  c #5C714F",
"e  c #696759",
"r  c #5B5768",
"t  c #555777",
"y  c #4A4F6D",
"u  c #655E65",
"i  c #4B687D",
"p  c #576273",
"a  c #686972",
"s  c #851F1C",
"d  c #8B211E",
"f  c #BE271F",
"g  c #872827",
"h  c #8A3537",
"j  c #95383A",
"k  c #9A302A",
"l  c #A82B25",
"z  c #AA322B",
"x  c #B8322B",
"c  c #A43734",
"v  c #B5332C",
"b  c #CA281E",
"n  c #C72D24",
"m  c #C5342C",
"M  c #CB352C",
"N  c #CB352B",
"B  c #D2352B",
"V  c #D13125",
"C  c #C53930",
"Z  c #CC3831",
"A  c #CC3731",
"S  c #B04735",
"D  c #CB483A",
"F  c #D34B3B",
"G  c #883B43",
"H  c #923E40",
"J  c #8E4A4E",
"K  c #A45457",
"L  c #A14C4B",
"P  c #9D666E",
"I  c #CB5647",
"U  c #D55A47",
"Y  c #CA4C41",
"T  c #D56854",
"R  c #D9755C",
"E  c #D3644F",
"W  c #D67A62",
"Q  c #3B8A7F",
"!  c #6C855C",
"~  c #75946B",
"^  c #4E8A7E",
"/  c #91B07A",
"(  c #D7886D",
")  c #D48D72",
"_  c #D39375",
"`  c #D39678",
"'  c #D6987B",
"]  c #387A99",
"[  c #366F97",
"{  c #187FA1",
"}  c #2A7AA7",
"|  c #3878A8",
" . c #2A5D85",
".. c #585A8A",
"X. c #5B5D95",
"o. c #645F97",
"O. c #44728B",
"+. c #5C6592",
"@. c #476D8C",
"#. c #646797",
"$. c #727390",
"%. c #5D73AE",
"&. c #6669A5",
"*. c #6F71AD",
"=. c #7478B9",
"-. c #7579AE",
";. c #7B7EC3",
":. c #747DC2",
">. c #807DBC",
",. c #348B97",
"<. c #1D8FB3",
"1. c #2B86B5",
"2. c #2996B9",
"3. c #338EB0",
"4. c #33ADA8",
"5. c #30A8B6",
"6. c #569290",
"7. c #619F8D",
"8. c #50AC98",
"9. c #6EB295",
"0. c #4394B5",
"q. c #7D82BE",
"w. c #719BB6",
"e. c #43ADAB",
"r. c #3EC0BF",
"t. c #43C4BB",
"y. c #48C9B6",
"u. c #1B96CE",
"i. c #1B9BD4",
"p. c #249CC5",
"a. c #208CC1",
"s. c #1DA4DD",
"d. c #1EAADD",
"f. c #1CA6D5",
"g. c #1DAAD3",
"h. c #2AADCD",
"j. c #27A6C8",
"k. c #2DB2CC",
"l. c #36BAC5",
"z. c #3ABDC3",
"x. c #31B5CA",
"c. c #34BBCB",
"v. c #39BFCA",
"b. c #24A5D5",
"n. c #24ABD4",
"m. c #29ADD3",
"M. c #21A6DA",
"N. c #21A6DC",
"B. c #21A9D9",
"V. c #23ADDC",
"C. c #28AEDC",
"Z. c #3AADDD",
"A. c #26B2D6",
"S. c #2AB3D3",
"D. c #25B3DC",
"F. c #2AB4DD",
"G. c #26B9DE",
"H. c #2CBCDD",
"J. c #2FBBD3",
"K. c #33B6DC",
"L. c #1BA3E1",
"P. c #1BA3E0",
"I. c #1DA5E1",
"U. c #1CA7E0",
"Y. c #1EA6E0",
"T. c #1CA4E1",
"R. c #1EA9E1",
"E. c #1EAAE1",
"W. c #1AAAEA",
"Q. c #15A7E8",
"!. c #1EBBEA",
"~. c #1BB5E7",
"^. c #20ADE1",
"/. c #21ADE1",
"(. c #24ABE0",
"). c #24B4E1",
"_. c #29B5E1",
"`. c #25B9E2",
"'. c #29BDE1",
"]. c #21BBEA",
"[. c #33B3E0",
"{. c #589DD6",
"}. c #7D83C8",
"|. c #7990C8",
" X c #4BA3D9",
".X c #53A0D6",
"XX c #3CC2C3",
"oX c #38C3CB",
"OX c #31C3DF",
"+X c #31C7D8",
"@X c #1AC3F4",
"#X c #26C1E5",
"$X c #29C3E2",
"%X c #26C4EA",
"&X c #42CCC7",
"*X c #90B586",
"=X c #92A7BE",
"-X c #B3B2B3",
";X c #A6978E",
":X c #B7DB99",
">X c #ABD091",
",X c #BBE39B",
"<X c #BBEAA6",
"1X c #8CC190",
"2X c #C1E7A0",
"3X c #D8FFB5",
"4X c #D0F8A9",
"5X c #E2FFB9",
"6X c #8284CD",
"7X c #8589D5",
"8X c #868AD6",
"9X c #8197C1",
"0X c #8AA9C9",
"qX c #8DBBD8",
"wX c #94BBD9",
"eX c #94B2CA",
"rX c #A5BFD9",
"tX c #8E91E0",
"yX c #96C0DD",
"uX c #9DC5E3",
"iX c #99CEF0",
"pX c #A3CDEB",
"aX c #A0C7E5",
"sX c #A9D6F4",
"dX c #ADD6F5",
"fX c #B2C0C9",
"gX c #C2C7CA",
/* pixels */
"L.L.L.L.L.L.L.L.L.L.L.L.L.L.L.L.L.L.L.L.L.L.L.L.L.L.s.s.s.L.m.l.s.M.M.d.z.m.M.d.k.l.s.d.M.M.s.n.l.b.",
"L.L.L.L.L.L.L.L.L.L.L.L.L.L.L.L.L.L.L.L.L.L.L.L.L.s.s.s.s.s.k.x.d.M.d.d.x.l.d.d.x.x.s.M.N.M.s.k.x.b.",
"L.L.L.L.L.L.L.L.L.L.L.L.L.L.L.L.L.L.L.L.L.L.L.L.s.s.s.s.s.s.k.k.s.N.M.M.n.z.n.d.l.h.d.M.N.N.b.z.m.M.",
"L.L.L.L.L.L.L.L.L.L.L.L.L.L.L.L.L.L.L.L.L.L.L.s.s.s.s.s.s.s.k.x.s.B.M.B.d.l.k.d.l.m.M.M.B.d.x.l.s.b.",
"I.I.L.L.L.L.L.L.L.L.L.P.s.s.s.s.s.s.s.L.L.s.s.I.s.s.s.s.s.s.S.l.d.B.B.B.M.k.l.b.z.n.M.B.s.n.z.n.s.b.",
"I.I.I.I.I.I.I.I.I.I.I.I.I.I.I.I.I.I.I.I.I.I.I.I.I.s.s.s.d.B.B.z.h.d.B.B.B.n.z.k.z.n.B.B.b.z.k.s.d.b.",
"s.I.I.I.I.I.I.I.I.I.I.I.I.I.I.I.I.I.I.I.I.s.s.I.I.s.s.s.s.s.s.h.r.m.M.n.n.B.l.l.l.b.B.M.l.l.d.B.d.b.",
"^.I.I.I.I.I.I.I.I.I.I.I.I.I.I.I.I.I.I.I.I.I.I.d.d.d.d.n.x.c.x.m.x.r.k.b.B.B.k.t.l.b.B.k.XXb.B.B.d.b.",
"(.(.R.R.R.R.R.R.R.R.R.R.R.R.R.R.R.R.R.R.R.R.R.d.N.d.n.XXl.x.v.XXr.t.y.l.m.B.n.k.h.B.k.t.h.M.B.B.N.b.",
"(.(.R.R.R.R.R.R.R.R.R.R.R.R.R.R.R.R.R.R.R.R.R.d.V.d.c.x.d.B.N.n.S.l.t.y.t.l.k.z.t.z.t.l.k.k.S.m.d.b.",
"(.(.^.^.E.E.^.E.E.^.^.^.E.E.E.E.^.^.^.^.E.^.^.E.V.V.v.S.V.V.V.V.V.V.m.x.t.y.y.r.k.t.y.r.XXz.z.r.v.h.",
"^.^.^.^.^.^.^.^.^.^.^.^.^.).).).).).).^.^.V.V.^.V.D.XXS.V.V.V.V.V.n.n.V.n.x.y.x.V.x.z.n.n.B.n.m.x.t.",
"(.^.^.(.).^.).).).).).).).).).).).).).).).V.V.D.D.V.oXJ.V.D.D.D.A.A.A.S.A.B.XXl.d.l.v.V.V.V.V.V.d.x.",
"_.).).).).).).).).).).).).).).).).).).).).).).D.D.).c.XXD.D.D.D.F.D.D.A.S.S.r.t.l.t.k.V.V.V.V.V.V.m.",
"_.).).).)._.)._._._._.).).).).).).)._._._.)._.D.G.D.D.XXc.D.D.G.2.5.J.v.XX4.XXl.r.c.A.D.D.D.V.V.D.C.",
"_._._._._._._._._._._._._._._._._._._._._._.G._.G.G.G.S.XXXXXXoX4.Q &X4.8.9.e.{ v.XXA.D.D.D.D.D.D.C.",
"Z._._._._._._._._._.`.`.`.`.`.`._.`.`.`.`.`.`.`._.G.G.G.D.J.c.oXx.5 j.7.& q :X9.4.y.XXA.D.D.D.D.D.m.",
"{.Z.`._._._.`.`._.`.`.`.`.`.`.`.`.`.`.`.`.`.`.`.`.G.G.G.G.G.G.D.'.4 6.! .   / 2XQ <.l.&XS.D.D.G.D.S.",
" X.XF._._._.`.`.`.`.`.`.`.`.`.`.`.`.`.`.`.`.`.`.`.`.`.G.G.G.F.A.#X[ 0 <Xw q >X/ ~ *X4.5.e.J.D.D.D.c.",
"K.{.K.`._._.`.`.`.`.`.`.`.`.`.`.`.`.`.`.`.`.`.`.`.`._.`.G.G.G.D.H.e.- >X:X:X*Xo . / <X,.J.&XXXc.c.t.",
"[.{.Z._._._._._._._.`.`.`.`.`.`.`.`.`.`.`._.`.G._._.G.G.G.G.D._.+X^ # l k 2Xq     ! 5X9.p.H.c.XXoXc.",
"K.{.Z._._._._._._._._._._._.).)._._.`._._._._.G._._.G.G.D.`.].n.p z z m S 2X:Xw ! 4X4X7.2.H._.G.G.F.",
"Z.{.K._._._._.).)._.).)._._._._._._._.D.].~.~.!.`._.D._.].j.O., d s l B S 4X3X3X3X3X*Xj.#XG.G.H.G.H.",
" X.XF._.).).).).).).).).).D.).).).D.D.].2.8 8 O.u.).].B.O.j x s g g l B 7 9.,X,X:X9.5.`.G.`.G.H.G.H.",
"{.Z.)._.D.).).).).).).).).!.d.b.d.!.].j.h 7 p 7 =X0.] 7 x V P -Xg + v V r g.8.e.2.g.`.G.G.`.G.'.'.H.",
" X(.(.(.(.^.^.^.).).^.).V.O.9 H 7 O.p.9 8 E.!.] 0Xa l B Z m L -X-Xj M V u oXoXD.)._.G.`.G.`.'.'.'.H.",
"C.(.V.(.^.^.^.^.^.^.E.d.r f V M V x h g ] f.2.w.eX0XJ n Z d d c K x M M u G.).!.]._.G.`.`.`.'.'.$XH.",
"(.(.V.(.(.^.^.R.R.R.E.t m I C M m C Z x $ +.wXdXuXw.gXP l l l B b V M b 8 0.O.i y p.`.G.`.`.'.'.$XOX",
"(.(.(.R.R.R.R.R.d.~.} z W ' E m M M m # ; -.0XsXpXeXfXeX=X;XK j L L K P rX;X# r , i ].G.`.'.'.$X$XOX",
"(.(.(.R.R.R.R.I.s.U.8 U ` _ ( C M h < ; O t :.0XdXuXuX0XqXqXqXyXpXpXpXiXqX6.1.@Xp p !.G.`.'.'.$X$XOX",
"(.(.R.I.I.I.I.s.E.i.j R _ _ ) D x 3 |.t o ; $.-.|.uXdXuXuXpXsXsXpXpXsX$.# < 3.E.h O.@X_.`.'.'.$X$XOX",
"I.I.I.I.I.I.I.I.E.u.j R _ ) ) F h [ 8X6X2 * = e $.=.9XwXpXsXsXsXsXsXeXj F B j r h ,.V.`.'.'.'.$X$XOX",
"I.I.I.I.I.I.I.s.U.u.j R _ ) ) D z t 7X8X=.= % O * a ;.}.q.|.0X0XwXwXJ R ) C M n v j j r S.#X$X$X$XOX",
"s.I.P.P.I.I.I.L.P.s.7 F _ ` T m M j ;.8X6X$.0 & O = 6 +.*.=.;.=.}.#.c E Y N m A M M B b i %X$X$X$XOX",
"I.I.I.I.s.L.L.L.s.W.[ l F I C m C m J 6X8X&.=.e = & o o O ; +.6 t y z B n $ h M m m m B J G.$X$X$XOX",
"I.I.I.I.s.L.L.L.L.L.P.@.l V V B V V $ &.6X*.8Xy #.#.y 2 O 2 ..X o X # k @ : , M M M m B c j.%X$X$XOX",
"I.I.I.L.L.L.L.L.L.L.L.T.1.r G G J y %.6X&.&.}.> ;.8X8X}.=.=.;.#...+.1 @ 3 1 l A m m m M z 2.%X$X$XOX",
"I.I.L.L.L.L.L.L.L.L.L.L.W.Q.i.u.i.Q.[ >.;.> y ..8X7X7X8X8X8X8X8XtX=.h m k v M m D W ( U z 2.%XH.$XH.",
"I.I.L.L.L.L.L.L.L.L.L.L.s.s.P.T.L.L.8 c t 4 } 3.%.=.;.6X}.}.6X6X6X..$ B A M m D ) _ _ ( j j.#X'.#XH.",
"I.I.L.L.L.L.L.L.L.L.L.L.L.L.L.s.L.u.h 7 <.i.U.s.u.a.1.1.@.&.8X8Xo.> y m Z m D ) _ ) ` U 8 `.'.H.'.H.",
"I.L.L.L.L.L.L.L.L.L.L.L.L.L.L.s.L.i.} i.W.I.s.I.E.E.E.U.| ;.:.X.>  .d.9 V m I ' ` _ T l ,.%X`.`.'.`.",
"I.L.L.L.L.L.L.L.L.L.L.L.L.L.L.L.L.L.W.T.s.L.s.I.I.I.s.I.i.| , $ } B.).p.9 n B U E D l i ]._._.`.`.F.",
"L.L.L.L.L.L.L.L.L.L.L.L.L.L.L.L.L.L.s.L.L.L.s.I.I.R.I.I.W.i.c c d.).N.~.B.@.9 G 7 t 2.).)._.)._._.F.",
"s.L.L.L.L.L.L.L.L.L.L.L.L.L.L.L.L.L.L.L.L.L.s.I.I.R.P.P.s.W.i i E.E.^.V.).~.d.b.E.!.].).).).)._.).F.",
"s.L.L.L.L.L.L.L.L.L.L.L.L.L.L.L.L.L.L.L.L.I.I.I.I.I.R.I.d.R.R.R.R.(.E.V.V.V.).).).V.^.).).).).).).C.",
"s.L.L.L.L.L.L.L.L.L.L.L.L.L.L.L.L.L.L.L.I.I.I.I.I.I.I.I.d.d.R.(.R.R.E.^.E.^.^.^.^.^.^.^.).).).).).V.",
"I.L.L.L.L.L.L.L.L.L.L.L.L.L.L.L.s.s.I.I.I.I.I.I.I.I.I.R.d.R.R.R.R.R.R.^.E.^.^.^.^.^.^.^.^.^.).^.).C.",
"I.I.I.I.I.I.I.I.I.I.I.I.I.I.I.I.I.I.I.I.I.I.I.I.I.I.R.R.R.R.R.R.R.R.E.^.^.^.^.^.^.^.E.E.E.E.E.^.).C.",
"I.I.I.I.I.I.I.I.I.I.I.I.I.I.I.P.P.P.I.I.I.U.R.R.R.R.R.R.R.R.R.R.E.E.E.^.^.^.^.^.^.^.^.^.).).).)./.V.",
"I.I.I.I.I.I.I.I.I.I.I.I.I.I.I.I.I.I.R.I.R.U.R.d.R.d.(.R.R.^.^.^.^.^.^.^.^.^.^.^.^.^.^.^.).).).).).V."
};
