/* XPM */
static char *_ed9665e19ee45558f3a762d14ee3d76aDS80V5dKTXLUDk8[] = {
/* columns rows colors chars-per-pixel */
"50 50 224 2 ",
"   c #333B38",
".  c #2A3635",
"X  c #1A3333",
"o  c #4D120D",
"O  c #493731",
"+  c #763735",
"@  c #6B302F",
"#  c #4C2D1E",
"$  c #3A4336",
"%  c #5A5A38",
"&  c #434A33",
"*  c #71433F",
"=  c #6E413D",
"-  c #6B6935",
";  c #363A44",
":  c #36354D",
">  c #393963",
",  c #5A3F4A",
"<  c #773344",
"1  c #513F72",
"2  c #3D4248",
"3  c #27504F",
"4  c #324B66",
"5  c #2D6876",
"6  c #555156",
"7  c #764847",
"8  c #634C55",
"9  c #65575A",
"0  c #765657",
"q  c #70534D",
"w  c #54605B",
"e  c #686648",
"r  c #69645F",
"t  c #494776",
"y  c #53577D",
"u  c #6C5B63",
"i  c #597976",
"p  c #556E70",
"a  c #656766",
"s  c #676F6C",
"d  c #821D19",
"f  c #A71E19",
"g  c #97251F",
"h  c #B7251D",
"j  c #A8251D",
"k  c #992A25",
"l  c #99362C",
"z  c #853B37",
"x  c #973B38",
"c  c #84302A",
"v  c #AD2F29",
"b  c #A92923",
"n  c #B92D24",
"m  c #BD322B",
"M  c #B4332C",
"N  c #AB3834",
"B  c #B93B33",
"V  c #A6332D",
"C  c #C9261B",
"Z  c #D7271A",
"A  c #C92E27",
"S  c #C4332C",
"D  c #CB352C",
"F  c #CB392F",
"G  c #CF3025",
"H  c #D3362C",
"J  c #DA352C",
"K  c #CC3A31",
"L  c #C73A32",
"P  c #D4352C",
"I  c #99403D",
"U  c #8C443C",
"Y  c #A7413B",
"T  c #B34032",
"R  c #C74638",
"E  c #D3483A",
"W  c #864747",
"Q  c #954544",
"!  c #A94846",
"~  c #AB524B",
"^  c #895465",
"/  c #95777D",
"(  c #B27977",
")  c #BB6B55",
"_  c #D55645",
"`  c #CC5544",
"'  c #CE6753",
"]  c #D56A56",
"[  c #D36A56",
"{  c #D7735C",
"}  c #D77560",
"|  c #57867A",
" . c #638A7B",
".. c #858274",
"X. c #8AA46F",
"o. c #D4876D",
"O. c #D7977A",
"+. c #DE8E71",
"@. c #E19678",
"#. c #2B778E",
"$. c #6E5E91",
"%. c #5B658F",
"&. c #4A7E8D",
"*. c #576F8F",
"=. c #64679A",
"-. c #6F7495",
";. c #577CA8",
":. c #6A6BA7",
">. c #6C71AB",
",. c #7775A9",
"<. c #6B79B7",
"1. c #7479B8",
"2. c #706BAE",
"3. c #7A7CC3",
"4. c #8A7B8C",
"5. c #308294",
"6. c #3C96A9",
"7. c #2893AA",
"8. c #3BAFAB",
"9. c #3CBAB9",
"0. c #39A4B2",
"q. c #488886",
"w. c #489998",
"e. c #53918F",
"r. c #6E8D9F",
"t. c #70938F",
"y. c #48A78F",
"u. c #6BB494",
"i. c #4199A4",
"p. c #4D90B1",
"a. c #778AB6",
"s. c #45A8A7",
"d. c #43B8B7",
"f. c #4DAEAF",
"g. c #3DC0BD",
"h. c #7AC39E",
"j. c #41C1BF",
"k. c #5AC0A8",
"l. c #74CBA6",
"z. c #23B5DF",
"x. c #29B6D8",
"c. c #2DB2CC",
"v. c #1EAAE1",
"b. c #1CA7E1",
"n. c #20AEE1",
"m. c #23B4E1",
"M. c #26BBE2",
"N. c #29BEE2",
"B. c #28BFE8",
"V. c #7E86C6",
"C. c #7E93C3",
"Z. c #74B7CB",
"A. c #3CCCCD",
"S. c #37C7C8",
"D. c #3BD0CF",
"F. c #2EC9DB",
"G. c #36C9D1",
"H. c #34D3D3",
"J. c #3BDCDB",
"K. c #38D6D7",
"L. c #2ED4DA",
"P. c #3AE1DF",
"I. c #2BC4E2",
"U. c #2FCCE2",
"Y. c #2FCEE3",
"T. c #2ECAE1",
"R. c #29C8EA",
"E. c #30CFE3",
"W. c #30CDE3",
"Q. c #30CDE2",
"!. c #2BD2EB",
"~. c #32D2E3",
"^. c #31D1E3",
"/. c #33D5E3",
"(. c #36DBE3",
"). c #38DEE3",
"_. c #30DDEE",
"`. c #28CBF3",
"'. c #3BE5E4",
"]. c #3BE9E6",
"[. c #3CECEA",
"{. c #35E4E8",
"}. c #3BF1EE",
"|. c #39F3F2",
" X c #3BFBFA",
".X c #33ECEF",
"XX c #41C9C9",
"oX c #41DDDA",
"OX c #40EFEB",
"+X c #A88380",
"@X c #80AC85",
"#X c #8897A9",
"$X c #82A3BC",
"%X c #B9BCBA",
"&X c #CBACAA",
"*X c #8BCC9A",
"=X c #96D39B",
"-X c #9CDBA2",
";X c #B9EAA4",
":X c #A9E0A2",
">X c #AAD999",
",X c #D0F7AA",
"<X c #8588CC",
"1X c #8589D4",
"2X c #898AD5",
"3X c #898CDA",
"4X c #8687D3",
"5X c #8790DD",
"6X c #9CAEC7",
"7X c #8BB4D3",
"8X c #98BDD8",
"9X c #91AFCC",
"0X c #AAB8C2",
"qX c #8F8FE1",
"wX c #98C1DE",
"eX c #A0C3DF",
"rX c #9DC5E4",
"tX c #A3CDEB",
"yX c #A7D1EE",
"uX c #AAD6F6",
"iX c #B1D5F6",
"pX c #CCCFCF",
"aX c #E3DDDB",
"sX c #E9EFEF",
/* pixels */
"m.m.m.m.m.m.m.m.m.m.m.m.m.m.m.m.m.m.m.m.m.m.m.m.m.m.m.m.m.m.m.m.m.m.m.m.m.m.n.n.v.n.v.v.v.v.v.v.b.b.",
"m.m.z.m.m.m.m.m.m.m.m.m.m.m.m.m.m.m.m.m.m.m.m.m.m.m.m.m.m.m.m.m.m.m.m.m.m.m.n.n.n.n.v.v.v.v.v.v.v.b.",
"m.m.m.m.m.m.m.m.m.m.m.m.m.m.m.m.m.m.m.m.m.m.m.m.m.m.m.m.m.m.m.m.m.m.m.m.m.m.m.n.n.n.n.v.v.v.v.v.v.v.",
"m.m.m.m.m.m.m.m.m.m.m.m.m.m.m.m.m.m.m.m.m.m.m.m.m.m.m.m.m.m.m.m.m.m.m.m.m.m.m.n.m.n.n.n.n.n.v.v.v.v.",
"z.m.m.m.m.m.m.m.m.m.m.m.m.m.m.m.m.m.m.m.m.m.m.m.m.m.m.z.m.z.m.m.m.m.m.m.m.m.m.m.m.m.m.m.n.n.n.v.v.v.",
"M.m.m.m.m.m.m.m.m.m.m.m.m.m.m.m.m.m.m.m.m.m.m.M.m.m.m.z.m.m.z.m.m.m.m.m.m.m.m.m.m.m.m.m.m.n.n.n.v.v.",
"M.M.M.M.M.M.M.M.M.M.M.M.M.M.M.M.M.M.M.M.M.M.M.M.z.M.M.B.M.M.M.M.M.m.M.M.M.m.m.m.m.m.m.m.m.m.m.n.n.n.",
"M.M.N.M.M.M.M.M.M.M.M.M.M.M.M.M.M.M.M.M.M.M.M.M.M.M.x.5 #.R.M.M.M.M.M.M.M.M.M.M.M.M.m.m.m.m.m.m.m.m.",
"I.I.I.N.N.N.N.N.N.N.N.N.N.N.N.N.N.N.N.N.N.N.N.N.M.R.7.# 5 `.c.3 5.R.N.M.N.N.N.M.M.M.M.M.M.m.m.m.m.m.",
"I.I.I.I.I.I.I.I.I.I.I.I.I.I.I.I.I.I.I.I.I.I.I.I.I.c.8 8 x.`.5.O 7.R.I.I.N.I.I.N.N.N.N.N.M.M.M.M.m.m.",
"I.I.I.I.I.I.I.I.I.I.I.I.I.I.I.I.I.I.I.I.I.I.I.I.I.9 Z 0 I.p b p !.F.I.I.I.I.I.I.I.I.I.I.I.N.N.M.M.M.",
"T.T.T.T.T.T.T.T.T.T.T.T.T.T.T.T.T.T.T.T.T.T.F.!.6.M G &.&.n G &.!.I.T.T.I.I.I.I.I.I.I.I.I.I.I.N.N.M.",
"U.U.U.U.U.U.U.U.U.U.U.U.U.U.U.U.U.U.U.U.U.U.Q.Y.u G N 5.x J V 0.!.F.T.T.T.T.T.T.T.T.T.T.I.I.I.I.I.N.",
"^.^.^.E.E.^.^.E.E.E.E.E.E.E.E.E.E.E.E.U.E.E.~.c.x J q 9 G D 0 U.U.U.U.U.U.U.U.U.U.T.T.T.T.T.I.I.I.I.",
"/./.^.^.^.^./.^.^.^.^.^.^.^.^.^.^.^.^.^.~.E._.i.n L w x H n w._.^.^.^.^.^.^.~.~.~.E.E.E.E.U.T.T.I.I.",
"/./././././././././././././././././././././.L.9 J N 6 B H U G.(./././././././././.^.^.^.^.U.U.U.T.T.",
"/.(.(.(.(.(.(.(.(.(.(.(.(.(.(.(.(.(.(.(.(.(.K.  o U + K G s {./.(.(.(.(./././././././././.^.~.E.U.T.",
"(.(.(.(.(.(.(.(.(.(.(.(.(.(.(.(.(.(.(.(.(.(.'.3 & h.X o l w..X(.(.(.(.(.(.(.(.(.(.(././././.~.^.^.E.",
").).).).).).).).).).).).).).).).).).).).).'.G.*X,Xu.| X.u.G.{.).(.(.(.(.).(.(.(.(.(.(.(.(./././.^.^.",
").'.).).'.).).).).).).).).).).).).).).).).{.S.=X,Xy.;X,X9.{.).).).).).).).).).).).).).(.(.(.(.(././.",
"'.'.'.'.'.'.'.).'.'.'.).'.'.'.).'.'.'.).).'.G.-X,Xy.;X*XH.'.).).).).).).).'.'.'.).).).).(.(.(.(.(./.",
"'.'.'.'.'.'.'.'.'.'.).'.'.'.'.'.'.'.'.'.).'.H.-X;Xy.;Xf.{.'.'.'.'.'.'.'.'.'.'.'.'.'.).).).).).(.(.(.",
"'.'.'.'.'.'.'.'.'.'.[.'.'.'.'.'.'.'.'.{.'.'.L.*X:Xy.>XS.{.'.'.'.'.'.'.'.'.'.'.'.'.'.'.'.).).).).).).",
"'.'.'.'.'.'.'.'.{.J.9.J..X{.P.'.'.'.'.K.A.'..Xl.=Xf.*XH.'.'.'.'.'.'.'.'.'.'.'.'.'.'.'.'.'.'.).).).).",
"'.'.'.'.'.'.'.'.].S.+ 0 s.J.[.'.'.'.[.8.O w w.t.@X .l.{.'.'.'.'.'.'.'.'.'.'.'.'.'.'.'.'.'.'.'.'.'.).",
"'.'.'.'.'.'.'.'.'.|. .f + 7 w.'.}.].'.P.XXp d c c l 0 d.[.'.'.'.'.'.'.'.'.'.'.'.'.'.'.'.'.'.'.'.'.'.",
"'.'.'.'.'.'.'.'.D.s.9.q i e.+ q s.9.J.|.9.W h b x ~ N z g.[.'.'.'.'.'.'.'.'.'.'.'.'.'.'.'.'.'.'.'.'.",
"'.'.'.'.[.[.].}.s b Q * c j.oXw 4.8Xd.w.l B &X&XaXsX( C a ].'.'.'.'.'.'.'.'.'.'.'.'.'.'.'.'.'.'.'.'.",
"'.].'.].q.p e.H.W J H S n z A.H.wXuXu v A ( pX%XpXpX! H x D.[.].[.}.[.].'.'.'.'.'.'.'.'.'.'.'.'.'.'.",
"].].].K.z C v z k v M L { E z g.f.r.Q H m ( pXaXpX+Xn K m w.K.A.d.i q.].].].].].'.'.'.'.'.'.'.'.'.'.",
"].'.].P.W _ ] E S b m L } _ C 9 Z.8X#Xx S n ~ ~ B S H D h a r.+ k g w.].'.].].].].].'.'.'.'.'.'.'.'.",
"].'.'.}.p [ O.o.{ ` F F F m W 6XiX8Xa.aX/ Q N M v N ! ~ 4.iX6X+ c w. X'.].].].].].].].'.'.'.'.'.'.'.",
"].'.'.}.s.~ @.O.O.O.[ F m @ <.rXuXyX8X0X9XwX8X#Xr.6XeXtXuX7X-.z = q.w.J.].].].].].].].].].].].].'.'.",
"].'.].'.].e.) @.O.O.o.S @ . =.a.8XiXrXwXwX$X7XrXuXuXyXuXwX8 k n B { T w.[.'.].].].].].].].].].].].'.",
"].'.].].].[.q.~ ] { E N ; $ ; >.<.9XtXuXuXrXuXuXtXtXyXtX^ S K S R } B w. X].].'.].].].].].].].].].].",
"].'.].].].].].8.a W l ^ 1.; $ 2 ..-.1.C.7XrXrXtXyXyXuX/ h K F M k j z 9.w.d.D.].].].].].].].].].].].",
"].'.].].].'.'.[.[.J.g.;.qX>.; % - % r ,.3.V.a.V.C.C.a.x _ L F L L S M x n V 7 D.].'.].].].].].].].].",
"].'.].].].].].'.'.].].p.4X5X>.- $ .   % s :.1.1.1.3.$.Y +.` A L F K F H K J x D.].'.].].].].].].].].",
"].'.].].].].].'.].'.[.s.3.1X1X-.e % & - &       6 %.. x +.o.R S S S S S L G r ].'.].].].].].].].].].",
"].'.].].].].].].].].].J.;.4X3X3.2.,.e e ;     . 2 %.. @ ] O.o.{ ' ' [ R H l j.[.'.].].].].].].].].].",
"].'.].].].].].].].].].].D.;.4X1.1.V.> ,.V.>.=.=.>.V.1.:.x ] O.O.O.O.{ D l s.[.'.].].].].].].].].].].",
"].'.].].].].].].].].].].].p.:.1.>.<X> 1.3X1X3X3X2X4X3X3X,.< Y R R L b q d.[.'.'.].].].].].].].].].].",
"].'.].].].].].].].].].].A.<.3X2.t y t 3.3X4X2X4X2X3X<X4XV.t : i i | s.'.[.'.'.'.].].].].].].].].].].",
"].'.].].].].].].].].].'.[.i.$.<X1 4 p.;.<.<.<.<.=.:.4X2X:.: 6. X[.|.}.].'.'.'.].].].].].].].].].].].",
"].'.].].].].].].].].].'.|.s.h 7 #.0.OXK.H.S.S.H.6.2.2X<.t 4 A.].'.'.'.].].].].].].].].].].].].].].].",
"].'.].].].].].].].].].'.|.w.f | }.].'.].].[.].[.A.p.%.< , S.].].].].].].].].].].].].].].].].].].].].",
"].'.].].].].].].].].].'.].XXq.].'.'.].'.'.'.].'.].}.8.n Y K.].].].].].].].].].].].].].].].].].].].].",
"].'.].].].].].].].].].'.'.].}.].'.].'.].'.].].'.].].].s * J.].'.].].].].].].].].].].].].].].].].].].",
"].'.].].].].].].].].].'.].'.'.'.].'.].'.'.'.].].'.'.].'.A.].'.].].].].].].].].].].].].].].].].].].].",
"].'.].].].].].].].].].].].].].].].].].].].].].].].].].].].'.].].].].].].].].].].].].].].].].].].].]."
};
