/* XPM */
static char *_7e70834d5d24480ee6471b94ebf5a2fGqlRgzJMuhqN5PxN[] = {
/* columns rows colors chars-per-pixel */
"50 50 214 2 ",
"   c #373832",
".  c #30332F",
"X  c #7E291E",
"o  c #593030",
"O  c #6C2B29",
"+  c #7A383B",
"@  c #70363D",
"#  c #37304E",
"$  c #3C3E65",
"%  c #57334D",
"&  c #553A58",
"*  c #7A3943",
"=  c #6E394C",
"-  c #423B66",
";  c #533D63",
":  c #2C4F4C",
">  c #3D4865",
",  c #3E5975",
"<  c #306974",
"1  c #524C54",
"2  c #6C444B",
"3  c #794646",
"4  c #7D4652",
"5  c #665959",
"6  c #72575A",
"7  c #74524D",
"8  c #44416B",
"9  c #48416A",
"0  c #5F5964",
"q  c #4C4573",
"w  c #4C4A7B",
"e  c #494778",
"r  c #524B7C",
"t  c #514778",
"y  c #5F4569",
"u  c #765479",
"i  c #6F5276",
"p  c #55676D",
"a  c #556F78",
"s  c #46777D",
"d  c #557573",
"f  c #577D7B",
"g  c #48667D",
"h  c #627371",
"j  c #6A6B66",
"k  c #8F221F",
"l  c #A8231C",
"z  c #B3251C",
"x  c #9C2E2A",
"c  c #982A25",
"v  c #98322E",
"b  c #863A39",
"n  c #973737",
"m  c #882C30",
"M  c #A62C25",
"N  c #AB2B25",
"B  c #A52E2A",
"V  c #B32B24",
"C  c #BB2C24",
"Z  c #B52F2B",
"A  c #AB322C",
"S  c #B6332C",
"D  c #BC322B",
"F  c #A63431",
"G  c #B23A35",
"H  c #C22C24",
"J  c #C92F27",
"K  c #C5342C",
"L  c #CB352C",
"P  c #CB392E",
"I  c #C63328",
"U  c #D2342B",
"Y  c #D33429",
"T  c #CC3730",
"R  c #CB3A32",
"E  c #C53A31",
"W  c #D13B30",
"Q  c #BF4539",
"!  c #CD4D3E",
"~  c #C34E3F",
"^  c #8F3B46",
"/  c #8B4748",
"(  c #885358",
")  c #AE5B57",
"_  c #B04544",
"`  c #A8625F",
"'  c #854E6D",
"]  c #815679",
"[  c #8E5568",
"{  c #A26567",
"}  c #A17672",
"|  c #D15746",
" . c #CD5443",
".. c #CE6452",
"X. c #D2725E",
"o. c #CD6853",
"O. c #D67B64",
"+. c #D68F74",
"@. c #D88D71",
"#. c #D69476",
"$. c #D9997B",
"%. c #D8826B",
"&. c #3C798D",
"*. c #57568C",
"=. c #625E99",
"-. c #795F88",
";. c #457585",
":. c #506891",
">. c #646598",
",. c #6C6388",
"<. c #5B71A5",
"1. c #6A6EAC",
"2. c #7E73AE",
"3. c #6B75B3",
"4. c #757CBD",
"5. c #7877B8",
"6. c #6D70A9",
"7. c #7D7DC4",
"8. c #875F84",
"9. c #836392",
"0. c #3A818A",
"q. c #368995",
"w. c #31919E",
"e. c #3699A6",
"r. c #3295B3",
"t. c #2A95B7",
"y. c #3CA4AC",
"u. c #34A9AC",
"i. c #36ACB7",
"p. c #3DB9B8",
"a. c #2FA0B5",
"s. c #468A99",
"d. c #499698",
"f. c #528D8B",
"g. c #5585AE",
"h. c #4492AA",
"j. c #7986BB",
"k. c #7C90AB",
"l. c #42A5A7",
"z. c #4CA7BA",
"x. c #4AB2B7",
"c. c #66A9B9",
"v. c #2C9EC1",
"b. c #39BCC1",
"n. c #31BCCA",
"m. c #23AFDF",
"M. c #26ABD2",
"N. c #23B3DE",
"B. c #28BBDD",
"V. c #2BB8D4",
"C. c #2CB0CB",
"Z. c #1CA6E1",
"A. c #1EAAE1",
"S. c #21AEE1",
"D. c #23B3E1",
"F. c #26BAE2",
"G. c #28BEE2",
"H. c #22BAE9",
"J. c #7C84CB",
"K. c #75B0C6",
"L. c #3AC7C9",
"P. c #2DC6D8",
"I. c #33C9D8",
"U. c #38D7D8",
"Y. c #39E0DD",
"T. c #2AC1E2",
"R. c #2BC4E2",
"E. c #2CC7E2",
"W. c #2BC5E2",
"Q. c #2ECAE2",
"!. c #2ECBE2",
"~. c #26C6E7",
"^. c #30CEE2",
"/. c #2DD3EB",
"(. c #33D4E3",
"). c #36DBE3",
"_. c #38DEE3",
"`. c #30D6EA",
"'. c #33DAEA",
"]. c #37E3E4",
"[. c #3BE5E4",
"{. c #3CE9E6",
"}. c #3AE6EA",
"|. c #3CECEB",
" X c #36E5EB",
".X c #3AF0EE",
"XX c #35ECF3",
"oX c #3BF0F0",
"OX c #40DADA",
"+X c #40E1DD",
"@X c #41F1ED",
"#X c #8C8496",
"$X c #8792B0",
"%X c #95A3BA",
"&X c #E4A284",
"*X c #8183CC",
"=X c #8387CB",
"-X c #8389D3",
";X c #888AD6",
":X c #848EDB",
">X c #8689D4",
",X c #8592DE",
"<X c #87ACC7",
"1X c #94BAD7",
"2X c #93B2CB",
"3X c #8394E3",
"4X c #9CC1DE",
"5X c #B8C0C0",
"6X c #9DCAE8",
"7X c #A4CCEB",
"8X c #ACC9E1",
"9X c #A9D6F5",
"0X c #B3DFFF",
"qX c #C7CACA",
/* pixels */
"D.D.D.D.D.S.S.A.A.A.A.A.A.Z.Z.Z.Z.Z.Z.Z.Z.Z.Z.Z.Z.Z.Z.Z.Z.Z.Z.Z.Z.Z.Z.Z.Z.Z.Z.Z.Z.Z.Z.Z.Z.Z.Z.Z.Z.Z.",
"D.D.D.D.D.D.D.S.S.S.A.A.A.A.A.Z.Z.Z.Z.Z.Z.Z.Z.Z.Z.Z.Z.Z.Z.Z.Z.Z.Z.Z.Z.Z.Z.Z.Z.Z.Z.Z.A.A.A.A.A.A.A.A.",
"F.D.D.D.D.D.D.D.D.S.S.S.A.A.A.A.A.A.A.A.Z.Z.Z.Z.Z.Z.Z.Z.A.A.A.A.A.A.A.A.A.A.A.A.A.A.A.A.A.A.A.A.A.A.",
"F.F.F.F.D.D.D.D.D.D.S.S.A.A.A.A.A.A.A.A.A.A.A.A.A.A.A.A.A.A.A.A.A.A.A.A.A.A.A.A.A.A.A.A.A.A.A.A.A.A.",
"G.G.G.F.F.F.D.D.D.D.D.D.S.S.A.A.A.A.A.A.A.A.A.A.A.A.A.A.A.A.A.A.A.A.A.A.A.A.A.A.A.A.A.A.A.A.S.S.S.S.",
"T.T.G.G.G.F.F.F.D.D.D.D.D.S.S.S.S.A.A.A.A.A.A.A.A.A.A.A.S.S.A.A.S.S.S.S.S.S.S.S.S.S.S.S.S.S.S.S.S.D.",
"R.R.T.T.T.G.G.F.F.D.D.D.D.D.D.D.S.S.S.S.S.S.S.S.S.S.S.S.S.S.S.S.S.S.S.S.D.D.D.D.D.D.D.D.D.D.D.D.D.D.",
"Q.E.E.R.T.T.T.G.G.F.D.D.D.D.D.D.D.D.D.D.D.D.S.m.D.S.m.D.D.D.m.S.D.D.D.D.D.D.D.D.D.D.D.D.D.D.D.D.D.D.",
"Q.Q.Q.E.R.R.T.T.G.G.F.F.F.D.D.D.D.D.D.D.D.S.H.H.D.H.H.N.N.H.H.H.N.D.D.D.D.D.D.D.D.D.D.D.D.D.D.D.D.D.",
"^.^.!.Q.Q.E.R.R.T.T.G.G.F.F.F.D.D.D.D.D.D.H.M.;.0 g v.H.H.M.t.t.H.D.D.D.D.D.F.D.D.D.F.F.F.F.F.F.F.F.",
"(.(.^.!.!.Q.Q.E.R.T.T.T.G.F.F.F.F.F.F.N.H.v.2 C L I b r.v.2 A n &.~.B.F.F.F.F.F.F.F.G.G.G.G.G.G.G.G.",
"(.(.(.(.!.!.Q.Q.Q.E.R.T.T.T.G.F.F.F.B.F.M.2 L T E R U b * Y T U v r.~.B.G.G.G.G.G.G.G.T.T.T.T.T.T.T.",
"(.(.(.(.(.^.!.!.Q.Q.Q.E.R.T.T.T.T.T.F.~.;.H T E U T P K N R P R Y 0 ~.T.T.T.T.T.T.T.T.R.R.T.R.R.R.R.",
"(.(.(.(.(.(.(.^.!.!.Q.Q.Q.E.R.T.T.T.T.~.6 Y E L n F U P N K L P Y 4 B.E.T.R.R.R.E.E.E.E.E.E.E.Q.Q.Q.",
").).).(.(.(.(.(.(.^.^.!.Q.Q.Q.E.E.E.E.T.4 Y P n a.q.M W D + 3 K U / V.Q.Q.Q.Q.Q.Q.Q.Q.Q.Q.Q.Q.Q.Q.Q.",
").).).).).).(.(.(.(.(.^.^.!.!.Q.Q.Q.P./.a I C ;././.p L V s V.b Y / P.!.Q.Q.Q.!.Q.Q.!.!.!.!.!.!.!.!.",
"_._._.).).).).(.(.(.(.(.^.^.!.^.^.!.Q.`.q.O p I.Q./.e.c z 5 P.3 z b n./.!.!.^.^.^.^.^.^.^.(.(.(.(.(.",
"]._._._._.).).).).(.(.(.(.(.^.(.^.^.!.`.<   P.`.^.`.0.M I a e.c D 1 I.(.(.(.(.(.(.(.(.(.(.(.(.(.(.(.",
"].].]._._.).).).).).).(.(.(.(.(.(.(.(.`.u.< (.(.(.`.i.n V y.n.M / n.'.(.(.(.(.(.(.(.(.(.(.(.(.(.(.).",
"].].].]._._.)._.).).).).(.(.(.(.(.(.(.(.(.(.(.(.(.(.(./ A P.d.l s.XXU.(.(.(.(.(.(.(.(.).).).).).).).",
"].].].]._._._._.).).).).).).).).(.(.(.(.(.(.(.(.'.).i./ A s 3 6 U.s 0. X(.).).).).).).).).).).).).).",
"].].].].]._._._.)._._._._.).).).).).).).).).(. XL.d O v c l + y.5 O i. X).).).).).).).).).).).).)._.",
"].].].].].].].].].].]._._._._._.).).).).).).).y.3 C D N N K b @ 1 b. X).)._._._._._._._.).)._._._._.",
"].].].].].].].].].].].]._._._._._._.).).).XXl.x L R R R P R l p }.]._.)._.)._._._._.].].].].].].].].",
"].].].].].].].].].].].].].]._._._._._._.}.p.b U P L L T P R J h XX]._.].].]._.].].].].].].].].].].].",
"[.[.].].].].].].].].].].].].].].].]._.}.L.7 L R L T D P L I J x d L.}.].].].].].].].].].].].].].].].",
"[.[.[.[.].].].].].].].].].].].].].].}.b.K.{ I R P P D B _ ) ` ) k d.|.].].].].].].].].].].].].].].].",
"[.[.[.[.[.[.].].}.].].].].].].].].}.U.c.0X#XH R L R H { 5XqX5X} m l.|.].].].].].].].].].].].].].].].",
"[.[.}.}.[.[.[.}.].].].].].].].].].].z.7X9X2XG T P R J { / / n l A p.|.Y.].].].].].].].].].].].].].].",
"[.[.[.}.[.[.[.[.[.].].].].].].].{.b.<X7X9X9X[ J R L D c D N N D o u.[.].[.].].].].].].].].].].].].].",
"[.[.[.[.[.[.[.[.[.[.[.[.].}.].[.U.c.2X6X7X7X$Xv L T K x 4 8.= u 4.9 e.|.].].].].].].[.[.[.[.[.[.[.[.",
"[.[.[.[.[.[.[.[.[.[.[.[.[.].].{.L.2X2X9X4X1X6X#XG I F -.-X:X4.>.*Xq &.@X].].}.[.[.[.[.[.[.[.[.[.[.[.",
"[.[.[.[.[.[.[.[.[.[.[.[.}.].}.{.x.4X2X9X4X1X9X<X-.] >.1.;X;X4.- r w > q.{.].].}.}.}.].].].[.[.[.[.[.",
"[.[.[.[.[.[.[.[.[.[.[.[.}.}.{.e.<X9Xk.( k.6X<X>.J.:X*X5.-X7.=.- 9 r r - y.|.].[.[.[.[.[.[.[.[.[.[.[.",
"[.[.[.[.[.[.[.[.[.[.[.[.[.{.U.<.$X9X%Xn %X1X=.7.;X;X:X,X5.e w t # 9 r t , [.}.[.[.[.[.[.[.[.[.[.[.[.",
"[.[.[.[.[.[.[.[.[.[.[.[.[.[.Y.g.7.j.%X/ 8Xj.1.-X;X5.u ' y e r r 9 q r t , +X}.[.[.[.[.[.[.[.[.[.[.[.",
"[.[.[.[.[.[.[.[.[.[.[.[.[.}.[.: =.J.3./ $X3.5.:X2.^ ....B ; r t t t q t > L.|.[.[.[.[.[.[.[.[.[.[.[.",
"[.[.[.[.[.[.[.[.[.[.[.[.[.{.U.: . 1.-X* i 3.4.:X' | &XO.L = w q 8 $ 8 w m 7 U.{.[.[.[.[.[.[.[.[.[.[.",
"[.[.[.[.[.[.[.[.[.[.[.[.[.{.U.: . 1.4.o O <.:X:X' ! ..n + & *.9 # = % % E C d..X[.[.[.[.[.[.[.[.[.[.",
"[.[.[.[.[.[.[.[.[.[.[.[.[.[.[.;.- 1.j.. X ( 2.J.] I S % e e 9 * v S S D L J j .X].[.}.[.[.[.[.[.[.[.",
"[.[.[.[.[.[.[.[.[.[.[.[.[.}.|.z.*X-X*X>.-.n B n n P T + & & m P L N L !  .Y ( ].[.[.[.[.[.[.[.[.[.[.",
"[.[.[.[.[.[.[.[.[.[.[.[.[.[.|.L.3.;X-X:X:X2.9.' G L R K Z S L R R N Q @.#.W 7 ].+X[.[.[.[.[.[.[.[.[.",
"[.[.[.[.[.[.[.[.[.[.[.[.[.[.{.Y.g.>X*X*X*X;X3X2.Z | %...! ! ..O.R N ~ $.X.H f..X[.[.[.[.[.[.[.[.[.[.",
"[.[.[.[.[.[.[.[.[.[.[.[.[.[.[.{.s.5.;X;X-X>X-Xi H X.$.#.+.+.$...K Z E  .Y b L.|.[.[.[.[.[.[.[.[.[.[.",
"[.[.[.[.[.[.[.[.[.[.[.[.[.[.}.{.h.=.5.1.=X=X>.& D | +.#.#.#.X.R N c Y C b x.|.].[.[.[.[.[.[.[.[.[.[.",
"[.[.[.[.[.[.[.[.[.[.[.[.[.[.].{.OXh.<.>.*.t - $ + L ! ....| W C d f.5 f L.|.].[.[.[.[.[.[.[.[.[.[.[.",
"[.[.[.[.[.[.[.[.[.[.[.[.[.[.[.}.{.{.L.i.e.w.e.b.x.3 V H H V x d [.oX X|.|.[.[.[.[.[.[.[.[.[.[.[.[.[.",
"[.[.[.[.[.[.[.[.[.[.[.[.[.[.}.}.[.[.{..X@X@X@X|.|.U.f.h f f.p.{.{.].[.}.}.[.[.[.[.[.[.[.[.[.[.[.[.[.",
"[.[.[.[.[.[.[.[.[.[.[.[.[.[.[.[.[.[.[.[.[.[.].[.[.{.oX.XoXoX|.[.[.[.[.[.[.[.[.[.[.[.[.[.[.[.[.[.[.[.",
"[.[.[.[.[.[.[.[.[.[.[.[.[.[.[.[.[.[.[.[.[.[.[.[.[.[.[.[.[.[.[.[.[.[.[.[.[.[.[.[.[.[.[.[.[.[.[.[.[.[."
};
