/* XPM */
static char *_08b04d2fb6e4f409f0b4b4a9b5afe77UFjAn6JPQqgwQ4vW[] = {
/* columns rows colors chars-per-pixel */
"50 50 230 2 ",
"   c #333C35",
".  c #343B3B",
"X  c #30332F",
"o  c #7C1716",
"O  c #5E3D3A",
"+  c #742825",
"@  c #683939",
"#  c #783836",
"$  c #6F312D",
"%  c #451E15",
"&  c #1E4038",
"*  c #394235",
"=  c #3C462F",
"-  c #505333",
";  c #6E463E",
":  c #696833",
">  c #706C3C",
",  c #343948",
"<  c #333A53",
"1  c #3F3E67",
"2  c #423E58",
"3  c #443E6A",
"4  c #374651",
"5  c #3B4668",
"6  c #36556F",
"7  c #3C7E7B",
"8  c #585254",
"9  c #504E55",
"0  c #694445",
"q  c #784A48",
"w  c #714E53",
"e  c #6A5856",
"r  c #745651",
"t  c #6C6754",
"y  c #45466A",
"u  c #474873",
"i  c #525474",
"p  c #655166",
"a  c #586867",
"s  c #587977",
"d  c #4E6E70",
"f  c #646665",
"g  c #6C7575",
"h  c #51645F",
"j  c #891B1B",
"k  c #B11C16",
"l  c #82201F",
"z  c #A6231D",
"x  c #B5211E",
"c  c #991F20",
"v  c #892424",
"b  c #972C27",
"n  c #87322E",
"m  c #983833",
"M  c #923430",
"N  c #AC2B24",
"B  c #A72A25",
"V  c #B32B24",
"C  c #BB2A23",
"Z  c #AC312B",
"A  c #A4332C",
"S  c #BC332B",
"D  c #B6332C",
"F  c #A63B37",
"G  c #B93A34",
"H  c #CF261D",
"J  c #C82D24",
"K  c #D52C22",
"L  c #C5352E",
"P  c #CB332B",
"I  c #CA342A",
"U  c #D53329",
"Y  c #C93B32",
"T  c #D23A31",
"R  c #964B3C",
"E  c #A6443C",
"W  c #847E34",
"Q  c #C8493A",
"!  c #D7483A",
"~  c #823D41",
"^  c #844846",
"/  c #944E4C",
"(  c #B05943",
")  c #89794A",
"_  c #965F68",
"`  c #8F6F76",
"'  c #CC5545",
"]  c #D65746",
"[  c #CD594E",
"{  c #D56754",
"}  c #D2735D",
"|  c #D2624C",
" . c #D67763",
".. c #EA7C65",
"X. c #618163",
"o. c #50807D",
"O. c #81A87E",
"+. c #A2A371",
"@. c #D9856B",
"#. c #D78E73",
"$. c #D49475",
"%. c #D8987A",
"&. c #297995",
"*. c #347589",
"=. c #585688",
"-. c #55588B",
";. c #615F96",
":. c #486A83",
">. c #49788B",
",. c #536F8C",
"<. c #676998",
"1. c #74758E",
"2. c #5777A8",
"3. c #696DA6",
"4. c #6D71AE",
"5. c #7879AE",
"6. c #7275B4",
"7. c #757AB7",
"8. c #6A75B1",
"9. c #7A7EC3",
"0. c #787BC1",
"q. c #8671A6",
"w. c #389A97",
"e. c #318990",
"r. c #3998A8",
"t. c #2993B7",
"y. c #2D8AA7",
"u. c #38AAAB",
"i. c #37AAB8",
"p. c #39B5B7",
"a. c #3EB0A3",
"s. c #48878B",
"d. c #48999A",
"f. c #50928C",
"g. c #56AA99",
"h. c #72BA98",
"j. c #63B699",
"k. c #458BA8",
"l. c #5099A1",
"z. c #688EA6",
"x. c #7896B8",
"c. c #708BB4",
"v. c #48A9A8",
"b. c #47B7AE",
"n. c #44B9BA",
"m. c #55ACB1",
"M. c #7DA1BC",
"N. c #639081",
"B. c #6BCAAD",
"V. c #1EA9DF",
"C. c #1BA7CE",
"Z. c #3BBDC4",
"A. c #21A9D9",
"S. c #24B5DF",
"D. c #29BBD8",
"F. c #27A5C9",
"G. c #1CA7E0",
"H. c #1EAAE1",
"J. c #1FB3E2",
"K. c #21AEE1",
"L. c #23B3E1",
"P. c #26BAE2",
"I. c #28BEE2",
"U. c #22B8EB",
"Y. c #37BAE2",
"T. c #7E84CA",
"R. c #7D91C9",
"E. c #3CC3C2",
"W. c #3BCBCC",
"Q. c #38C6CA",
"!. c #2AC7DB",
"~. c #3CD3D4",
"^. c #3BDCDC",
"/. c #36D9DB",
"(. c #36CED2",
"). c #3EE1DE",
"_. c #2BC3E2",
"`. c #2ECBE2",
"'. c #24C5EC",
"]. c #26C6E7",
"[. c #30CEE3",
"{. c #3DC5E3",
"}. c #2DD4E8",
"|. c #33D4E3",
" X c #36DBE3",
".X c #38DDE4",
"XX c #33DDEA",
"oX c #35E3E3",
"OX c #3BE5E4",
"+X c #3AE6E9",
"@X c #3CECEB",
"#X c #37E8EB",
"$X c #3CF0EE",
"%X c #36F2EE",
"&X c #38EBF1",
"*X c #3AF5F4",
"=X c #42D1CF",
"-X c #47D8E4",
";X c #41CDE4",
":X c #4DE6E5",
">X c #41E5E3",
",X c #898998",
"<X c #88B384",
"1X c #8CA3B9",
"2X c #A4B0A5",
"3X c #C39590",
"4X c #CEBBBB",
"5X c #8FCB9A",
"6X c #B3D594",
"7X c #B8E39E",
"8X c #BAE3A1",
"9X c #C6E09A",
"0X c #8284CD",
"qX c #8086C5",
"wX c #809BC1",
"eX c #858AD4",
"rX c #8789D7",
"tX c #94B9D6",
"yX c #90AFCB",
"uX c #95A0D7",
"iX c #97C0DE",
"pX c #9DC9E7",
"aX c #A4CEED",
"sX c #A1C8E5",
"dX c #A7D0ED",
"fX c #A6D2F2",
"gX c #A9D4F4",
"hX c #ABDAF7",
"jX c #B3D8ED",
"kX c #CDD5D6",
/* pixels */
"G.G.G.G.G.G.G.G.G.G.G.G.G.G.G.V.G.G.G.G.V.G.V.G.U.H.H.H.K.H.S.K.K.L.K.K.K.L.L.L.L.L.L.L.L.L.L.L.J.Y.",
"G.G.G.G.G.G.G.G.G.G.G.G.G.G.G.G.G.G.G.G.V.A.H.A.&.C.K.K.K.K.L.L.L.L.L.L.L.L.L.L.S.L.L.L.L.L.L.L.J.Y.",
"G.G.G.G.G.G.G.G.G.G.G.G.H.K.H.K.K.K.V.U.y.&.U.*.4 A.L.L.L.L.L.L.L.L.L.L.L.L.L.L.L.L.L.L.L.L.L.L.J.Y.",
"G.G.G.G.G.G.G.K.H.H.H.H.K.K.S.H.K.K.L.t.. *.F.X 4 A.L.L.L.L.L.L.L.L.L.L.L.L.L.L.L.L.L.L.L.L.L.L.L.Y.",
"K.K.K.K.K.K.K.L.K.K.K.K.K.K.L.L.L.L.U.&.% y.>.+ y.P.L.L.L.L.L.L.L.L.L.L.L.L.P.P.L.P.P.P.P.P.P.P.L.Y.",
"K.K.K.L.L.L.L.L.L.L.L.L.L.L.S.L.L.L.J.p ~ C.^ D t.U.S.P.P.P.P.P.P.P.P.S.P.L.P.P.P.P.P.P.P.P.P.I.P.{.",
"L.L.L.L.L.L.L.L.L.L.L.L.L.L.L.L.S.U.t.V / &.D S *.'.S.P.P.P.P.P.P.I.].'.'.'.'.I.I.I.I.I.I.I.I.I.P.{.",
"L.L.L.L.L.L.L.L.L.L.L.L.L.L.L.P.S.'.:.K / d L J >.'.D.I.I.I.I._.D.].F.*.d :.y.D.]._._._._._._._._.{.",
"L.L.L.L.P.P.P.P.P.P.P.P.P.P.P.P.P.J.e U F 9 Y U d '.I.I._._._._.].i.# Q | Q A 8 D.`._._._._._._._.{.",
"P.P.P.P.P.I.I.I.I.I.I.I.I.I.I.I._.].w U G 8 Y J 9 !._._._._._.`.D.0 | %.%.%. .J f `.`.`.`.`.`.`._.;X",
"I.I.I.I.I.I.I.I.I._._._._._._._._.].p P Y 0 B ( N.!.`.`.`.`._.}.>.S #.$.$.#.%.] N r.}.`.`.`.`.`._.;X",
"_._._._._._._._._._._._._._._._._.}.>.z z @ # 9XB.D.[.`.`.`.[.`.w ] %.@.$.%.%.' J f }.`.`.`.`.`.`.;X",
"_._._._._._._._._._._._.`.`.`.`._.}.e.) +.r a 6X5XD.|.`.`.[.|.!.^ ! [ Y ' } | L U q `.|.|.[.[.|.|.-X",
"`.`.`.`.`.`.`.`.`.`.`.`.`.`.`.`.`.[.D.h.6XX.f.  <XZ.}.[.|.|.|.!.r V z B V L P L P ^ !. X|.|.|.|.}.-X",
"`.`.`.`.`.`.`.`.`.`.[.[.[.[.[.`.`.[.|.E.X.= g.& +.B.`.|.|.|.|.XXa V Q S B Z T S C r |. X|. X X X|.-X",
"`.`.`.`.`.`.[.[.[.[.[.|.|.|.|.|.|.|.|.}.g.- N.f.9X5X!. X|.|.|.XXa ] #.Y P B D B C ,.#X|. X X X X X-X",
"|.[.|.|.|.|.|.|.|.|.|.|.|.|.|.|.|.|.|.XXQ.<X8Xw.5X8Xp. X/. X|.#Xs.Q { L T L v L Z i.+X X X X X X X-X",
"|.|.|.|.|.|.|.|.|.|.|.|.|.|.|.|. X|. X XXXp.6X5Xw.8Xj.XX+X X|. X(.q x N S N C J d  X X.X.X.X.X.X X-X",
"|.|.|.|.|. X X X X X X X X X X X X X X X X Xa.6Xg.h.7X7 p.#X+X.XOXQ.a # v # f $ d.&X/. X.X.X.X.X X:X",
" X|. X X X X X X X X X X X X X X X.X.X X X+X&Xb.5X; 6XR M s u.W.oX@XoXW.p.Q.+Xd.O ~.+X.XoXoXoXoXoX:X",
" X X X X X X X X X X X.X.X.X.X.X X.X X.XOXu.d.d.d Z A F G V M # d ~.+X+X@XOXOX&Xs a +XoXoXoXoXoXoX:X",
" X X X X.X.X.X X X X X X.X.X.X.XoXoX.X X+Xr.9 O @ B G 4X_ o Z T C w W./.p.v.(.~.v.+ d.%XoXoXoXoXoX:X",
" X X X X.X.XoXoXoXoXoXoXoXoXoXoXoXoXoXoX.X@XOX^.N.k 3X4X+ b l Z T P ; l.pX,X$ @ @ # s.@XoXoXoXoXoX:X",
"oXoXoXoXoXoXoXoXoXoXoXoXoXoXoXoXoXoXoXoXoXoXoX$Xd _ kXq j b v l L T Z tXhX1Xd v.E.(.OXoXoXoXoXoXoX:X",
"oXoXoXoXoXoXoXOXoXoXoXoXoXoXoXoXoXoXoXoXoXoXoXoXE.m.m.9 c v M E D J _ fXx.>.(.*X@XOXoXOXOXOXOXOXoX:X",
"oXoXoXoXoXoXoXOXoXoXoXoXoXoXoXoXoXoXoXoXoXoXoXoX@XoX*Xd.j m  .{ C F tXpXz.z.k.u.^.@XOXoXOXOXOXOXoX:X",
"oXoXoXoXoXoXoXoXoXoXoXoXoXoXoXoXoXoXoXOXOXOXoXOX~.v.n.h o E [ D A 1XhXdXtXx.z.5 4 e.OXOXOXOXOXOXoX:X",
"oXoXoXoXoXoXoXoXoXOXOXOXOXOXOXOXOXOXOXOXOXOXOXoXa b m b Z D C A ,XhXaXaXgXyXi y . X *.>XOXOXOXOXoX:X",
"oXoXOXOXOXoXoXOXOXOXOXoXOXOXOXOXOXOXOXOXOXOXOXoXr U T T T J E ,XaXgXaXaXgXx.=.,   2 1 p.@XoXOXOXoX:X",
"OXOXOXOXOXoXOXOXOXOXOXOXOXOXOXOXOXOXOXOXOXOXOXOXd B L V A _ yXyXgXaXfXgXx.9.<.  . u y i.$XOXOXOXOX:X",
"OXOXOXOXOXOXOXOXOXOXOXOXoXOXOXoXoXOXOXOXOXOX^.m.z.1.` 3X,XiXiXtXfXfXdXx.9.3..   < =.5 Z.@XOXOXOXOX:X",
"OXOXOXOXOXOXOXOXOXOXoX@X$X#XoX@X@XOXOXOXOX@Xw.yXtXtXx.kXsXM.1XfXgXsXc.9.<..   y ;.u u Q.@XOXOXOXOX:X",
"OXOXOXOXOXOXOXOXOXOX@XW.s.f e a b.@XoXOX@X).9 g tXsXyX1XtXaXpXhXtX5.0XT., * , 7.9.u 6 ~.@XOXOXOXOX:X",
"OXOXOXOXOXOXOXOXOX$Xv.# ( } @.Q n n.@XOXOX8 h r.tXgXgXsXaXhXdXwX6.rX-.y ;., 4.rXT.i 6 OXOXOXOXOXoX:X",
"OXOXOXOXOXOXOXOX@Xn.M { %.$.%.{ H f @X@Xa 0 >Xn.sXhXgXgXpXwXc.9.eXi   X ;.0XeX0XeX=.< W.@XOXOXOXOX:X",
"OXOXOXOXOXOXOXOXOXw ] %.$.#.} Y P R ^.N.; =XOX2.T.x.wXR.6.6.5.<.4   * , 4.rX0X0XeX<.3 Z.@XOXOXOXoX:X",
"OXOXOXOXOXOXOX$Xv.Z @.$.@.Q L L P m s ; =X*XE.5 <.7.5.1.g t - :   * , 6.rXT.eXeXeX;.6 >XOXOXOXOXOX:X",
"OXOXOXOXOXOXOX%Xs Q %.#.' P L P U S + v.$X@Xp.X . < 8 W = .   >   y 9.rXT.eX6.4.rXp n v.@XOXOXOXOX:X",
"OXOXOXOXOXOXOX@Xf ] %. .L J q e e B e @XOX@Xu.X *   = : . - : t <.eXeX0XrX0.:.7.2.# K q /.OXOXOXOX:X",
"OXOXOXOXOXOXOX@Xf ! %.{ D a E.).@Xs b d.@X#XW.-.i y 4 ) : g g , 9.eXT.rX0.r.W.k.Z.b.e a ^.OXOXOXOX:X",
"OXOXOXOXOXOXOX%Xs J ' ! b E.*XOX@Xs H ^ ^.@X~.c.rXeX0X5.<.6.rXu u eXrX6.k.).@XOX@X@XOXOX@XOXOXOXOX:X",
"OXOXOXOXOXOXOX@Xn.A U J s OXOXOXoX^ ! E E.@XOXk.0XeX0XrXeX;.0XqX3 6.8.r.OX@XOXOXOXOXOXOXOXOXOXOXOX:X",
"OXOXOXOXOXOXOXOX@Xo.N M E.@XOXOXs F ../ W.@X@XQ.2.0XrXeXeX7.<.3.:.k.Z.@XOXOXOXOXOXOXOXOXOXOXOXOXOX:X",
"OXOXOXOXOXOXOXOXOXOXu.p.OXOX@XW.n K N d @XOXOX@XW.k.2.4.T.4.3 6 ~.OX@XOXOXOXOXOXOXOXOXOXOXOXOXOXOX:X",
"OXOXOXOXOXOXOXOXOXOX$X$XOXOXOXOXv.a f.OX+XOXOXOX@X@Xp.3.rXT.=.5 ^.@XOXOXOXOXOXOXOXOXOXOXOXOXOXOXOX:X",
"OXOXOXOXOXOXOXOXOXOXOXOXOXOXOXOX@X@X@XOXOXOXOXOXOX@X~.2.5.q.i e.>XOXOXOXOXOXOXOXOXOXOXOXOXOXOXOXOX:X",
"OXOXOXOXOXOXOXOXOXOXOXOXOXOXOXOXOXOXOXOXOXOXOXOXOXOXOX/.h x f %XOXOXOXOXOXOXOXOXOXOXOXOXOXOXOXOXOX:X",
"OXOXOXOXOXOXOXOXOXOXOXOXOXOXOXOXOXOXOXOXOXOXOXOXOXOXOX*Xl.x g %XOXOXOXOXOXOXOXOXOXOXOXOXOXOXOXOXOX:X",
"OXOXOXOXOXOXOXOXOXOXOXOXOXOXOXOXOXOXOXOXOXOXOXOXOXOXOX@X=X8 b.$XOXOXOXOXOXOXOXOXOXOXOXOXOXOXOXOXOX:X",
"OXOXOXOXOXOXOXOXOXOXOXOXOXOXOXOXOXOXOXOXOXOXOXOXOXOXOXOX@X~.OX#XOXOXOXOXOXOXOXOXOXOXOXOXOXOXOXOXOX:X"
};
