/* XPM */
static char *f66022c06c3e4c228a3f2a9744715fb7wsl7l3IUyqqqDVvT[] = {
/* columns rows colors chars-per-pixel */
"50 50 246 2 ",
"   c #101A19",
".  c #311D1E",
"X  c #002418",
"o  c #3B260D",
"O  c #332D17",
"+  c #3A1D21",
"@  c #252726",
"#  c #373829",
"$  c #29383B",
"%  c #313735",
"&  c #32312B",
"*  c #4B0F00",
"=  c #660E00",
"-  c #6D1902",
";  c #661B01",
":  c #731D01",
">  c #781E00",
",  c #582B00",
"<  c #583402",
"1  c #5A2617",
"2  c #4B3116",
"3  c #6B2201",
"4  c #672906",
"5  c #752301",
"6  c #7A2500",
"7  c #722A00",
"8  c #7C2B01",
"9  c #722C08",
"0  c #633300",
"q  c #693901",
"w  c #753300",
"e  c #7B3200",
"r  c #733C00",
"t  c #7C3E00",
"y  c #753708",
"u  c #653F10",
"i  c #433A28",
"p  c #583D21",
"a  c #453F31",
"s  c #71382D",
"d  c #3F4D10",
"f  c #374D32",
"g  c #514A17",
"h  c #754908",
"j  c #79591A",
"k  c #6C520E",
"l  c #4B6116",
"z  c #706E10",
"x  c #4E4938",
"c  c #594C3B",
"v  c #514D39",
"b  c #4D5937",
"n  c #5C553D",
"m  c #524228",
"M  c #674A29",
"N  c #6A5B2A",
"B  c #775629",
"V  c #645438",
"C  c #775931",
"Z  c #71432B",
"A  c #5B6E3C",
"S  c #747724",
"D  c #72683A",
"F  c #263E49",
"G  c #264A4C",
"H  c #384547",
"J  c #2F4F54",
"K  c #3D5A68",
"L  c #296776",
"P  c #565845",
"I  c #49564B",
"U  c #59614C",
"Y  c #5D695F",
"T  c #6A6547",
"R  c #6F6B52",
"E  c #69746C",
"W  c #842500",
"Q  c #832B01",
"!  c #872804",
"~  c #883406",
"^  c #884406",
"/  c #964708",
"(  c #8C5808",
")  c #975906",
"_  c #895816",
"`  c #995C1D",
"'  c #945916",
"]  c #934D11",
"[  c #A84B0A",
"{  c #A15B00",
"}  c #AB5C03",
"|  c #A85706",
" . c #B45506",
".. c #A95913",
"X. c #B75713",
"o. c #B04E0B",
"O. c #946201",
"+. c #996707",
"@. c #857D0D",
"#. c #967909",
"$. c #896518",
"%. c #946416",
"&. c #8C7618",
"*. c #957B15",
"=. c #85660B",
"-. c #A36100",
";. c #AB6502",
":. c #AE650A",
">. c #A76908",
",. c #B46609",
"<. c #B46908",
"1. c #B9720C",
"2. c #A46C1A",
"3. c #AC6A1D",
"4. c #A6621A",
"5. c #B76A16",
"6. c #AD711B",
"7. c #A3791B",
"8. c #B4731C",
"9. c #B9741A",
"0. c #A3770A",
"q. c #855727",
"w. c #925E24",
"e. c #8A6628",
"r. c #9D6324",
"t. c #9B6727",
"y. c #886B37",
"u. c #AB6B24",
"i. c #A76725",
"p. c #B36D23",
"a. c #B16E2A",
"s. c #BF6B22",
"d. c #AC7525",
"f. c #B57422",
"g. c #BE7A23",
"h. c #BC742A",
"j. c #B87529",
"k. c #C05715",
"l. c #C76B14",
"z. c #C6751B",
"x. c #C4660F",
"c. c #CA6C26",
"v. c #C37B26",
"b. c #C4752C",
"n. c #C47C2C",
"m. c #CB7C2B",
"M. c #CA7725",
"N. c #D27E2A",
"B. c #D27B27",
"V. c #CC7B31",
"C. c #C47532",
"Z. c #7E8224",
"A. c #98880C",
"S. c #858216",
"D. c #9C8412",
"F. c #968717",
"G. c #9D9415",
"H. c #9F9208",
"J. c #A5850E",
"K. c #A6980E",
"L. c #A68818",
"P. c #BB8E1E",
"I. c #A2961D",
"U. c #A89817",
"Y. c #B39217",
"T. c #ACA112",
"R. c #B3A514",
"E. c #908528",
"W. c #B49522",
"Q. c #AD8A27",
"!. c #C0911D",
"~. c #DA8426",
"^. c #D68D24",
"/. c #DE8B25",
"(. c #D5812B",
"). c #DB852A",
"_. c #DC8B2A",
"`. c #C59B22",
"'. c #DB902A",
"]. c #D38333",
"[. c #CA832C",
"{. c #E3862A",
"}. c #607D8B",
"|. c #799EB7",
" X c #7496A8",
".X c #76A4BD",
"XX c #7AA4B8",
"oX c #77A9AB",
"OX c #6F8C9A",
"+X c #6C9EC7",
"@X c #5AA8DC",
"#X c #4FA1D3",
"$X c #6AA3C7",
"%X c #74A4C2",
"&X c #74A9CB",
"*X c #7AA6CA",
"=X c #63A3D5",
"-X c #6DAAD5",
";X c #6CACDD",
":X c #66A7D8",
">X c #75ABD6",
",X c #6CB2D6",
"<X c #73B1DE",
"1X c #79B1CC",
"2X c #4CACED",
"3X c #4AA6EC",
"4X c #5CA6E2",
"5X c #5DABE5",
"6X c #53A6EB",
"7X c #5CA7ED",
"8X c #54ADEE",
"9X c #5BADED",
"0X c #56AAE4",
"qX c #5BB2E8",
"wX c #4CA5F3",
"eX c #4CABF3",
"rX c #4EAEFC",
"tX c #47A7F7",
"yX c #52A6F4",
"uX c #53AEF5",
"iX c #59ACF4",
"pX c #54A5FB",
"aX c #5BA7FC",
"sX c #53ADFB",
"dX c #5AABFC",
"fX c #4DB1F5",
"gX c #4CB1FB",
"hX c #46B2FD",
"jX c #52B1F3",
"kX c #5BB2F5",
"lX c #53B2FD",
"zX c #5BB2FD",
"xX c #59B9FF",
"cX c #6CA6E1",
"vX c #63ADE4",
"bX c #64A9E9",
"nX c #71AAE2",
"mX c #69B1EB",
"MX c #65AAF4",
"NX c #63B4FD",
"BX c #75B4E7",
"VX c #60C3FF",
"CX c #80989C",
"ZX c #839FB2",
"AX c #84A2AC",
"SX c #87A6B7",
/* pixels */
"rXrXsXsXsXuXuXiXiXuXuXsXuXuXiX8XuXfXsXsXsXsXsXsXsXsXsXuXuXuXuXuXjXjXsXsXsXsXuXiXuXsXsXsXsXsXsXuXsXsX",
"rXsXsXsXsXsXuXuXuXuXuXsXuXuXuXuXuXuXsXsXsXsXsXsXsXsXsXsXuXuXuXuXuXuXsXsXdXsXuXuXuXsXsXsXsXsXuXuXuXsX",
"sXsXuXuXuXsXsXsXsXsXsXuXuXsXsXsXsXuXsXsXsXsXsXsXsXsXsXsXsXsXsXsXsXsXsXsXdXdXiXuXuXuXsXsXsXsXiXiXuXsX",
"sXuXuXuXuXsXrXrXrXsXsXsXsXrXrXsXsXuXsXsXsXsXsXsXsXsXsXsXsXsXsXsXsXuXuXsXsXsXsXuXuXuXsXsXsXsXiXiXuXsX",
"iXiXuXsXsXrXrXrXsXsXsXsXsXsXrXsXsXsXsXsXsXsXsXsXsXsXsXrXrXrXrXsXuXiXuXsXsXrXgXgXgXgXgXrXrXgXfXfXuXsX",
"iXiXuXsXsXsXsXsXuXuXsXsXsXsXsXsXsXsXsXsXsXuXuXuXsXsXsXsXsXsXsXsXuXuXuXsXrXrXgXgXgXgXgXrXgXgXgXgXsXsX",
"iXuXsXsXsXsXsXuXiXiXiXiXdXsXuXuXsXsXuXuXuXuXuXuXuXuXuXuXuXsXsXsXdXdXsXsXsXsXsXsXiXiXuXsXsXsXrXsXsXsX",
"uXuXsXsXsXsXuXuXiXiXiXiXiXuXuXsXsXsXsXsXuXuXuXuXuXuXuXuXuXiXiXdXdXsXsXsXsXsXuXuXiXiXiXuXsXsXsXsXsXsX",
"sXsXsXuXuXuXsXsXdXyXuXuXuXzXeXlXsXlXrXgXrXrXlXrXgXgXeXzXuXiXiX6XuXrXlXsX6XkXkX8XuXsXuXuX8X8XiXuXsXsX",
"rXrXsXuXuXuXsXsXsXsXeXxXuXwXzXsXrXwXjXiX9X9X0X5X@X@XvX@XvX5X4XNXkXeXrXsXjX2XjXjXsXsXuXuX8X8XuXsXsXsX",
"rXrXsXuXuXuXsXsXlXrXgXrXeXzX3XiXkXkXvX=X&X.XXXZXAXOXSX.X&X>X@X5X6XlXlXrXlXlXtXsXdXdXiXiXiXuXsXsXsXsX",
"rXrXsXuXuXsXsXrXgXrXlXeX6XvX:X-X$X%XXXF H f P c c x v I H F G |.*X$X$X;X4XuXsXlXsXsXsXuXsXsXsXsXsXsX",
"fXrXsXsXsXsXsXrXhXgXsX6X;X*XK H v V 2 V C C B B B q.q.B M C M M 2 p m # SX+XMXdXsXgXgXrXrXsXsXuXsXsX",
"gXuXsXiXiXsXsXrXgXlX6XBXXXH n D q.w.w.w.t.r.` r.r.r.^ t ' ' ' ' ] ] h k v F *XbXiXfXgXgXrXrXuXiXuXsX",
"rXsXuXiXiXiXsXsXrXuXvX%XH V w.` i.4.] i.u.u.u.a.u.a.a.u.u.i.a.' t.t.' _ 0 m @ SXcXiXrXgXgXjXiXiXuXsX",
"rXjXuXiXiXiXsXsXsX5X*XH V j 4.5.p.3.p.j.p.p.) / h.h.p.j.u.u.u.u.t.t.t.` ` h g # *XbXsXrXgXuXiXiXuXsX",
"VX2XuXdXaXdXsXlXuX;X% M q.t.2.8.6.6.g.8.j.j.4.j.b.b.h.h.j.j.f.p.3.u.i.i.4.' h g $ &XbXyXdXsX2XjXuXsX",
"2XjXeXwXdXNXyXsXeX-Xc q.r.u.3.f.f.8.v.v.n.n.g.].m.m.m.n.n.h.h.h.v.j.a.u.3.4.( k v }.cXdXpXzXeX2XuXsX",
"kXsXlXsXsXyXyXzXsX=Xm _ 2.8.C.h.b.b.n.m.m.N.N.).~.~.~.B.B.m.v.v.g.8.j.a.d.d.2._ u & nXsXyXdXeXxXsXsX",
"sXsXsXrXyXkXzXyXsX>Xa e.6.5.C.C.V.V.m.].(.B.)./././.{./.~.(.(.[.[.g.n.h.f.f.6.( h i =XlXyXkXsXeXsXsX",
"sXzXsXuXkXuXyXNX7X*Xx j 3.c.h.C.b.V.V.].].B.{./.^.^.^.^.).(.(.N.(.m.v.g.8.8.6.) h O =XrXsXuXuXkXuXsX",
"rXrXeXjXkXiXiX5X&XG O q./ o.s.b.b.V.m.].].(._.).'.'.'._._.).(.N.m.M.M.M.z.9.5.+.k # *XbX6XsXzXuXuXsX",
"gXlXlXsX3XkX@XL f g k h / o.o.X.l.z.z.M.(.(.(.).{.{.{.{.).(.(.(.V.V.V.c.c.5...( k d f oXmXwXsXlXsXsX",
"fXeXrXzXgX2XqXoXb S z =.( ) { { { -.} } l.z.z.z.l.l.l.z.z.z.z.v.9.8.......) ) =.z l f G :XsXsXsXsXsX",
"iXuXyXsXgXfXfX=XoXA S S.A.D.D.L.D.J.O.>.-.>.<.<.<.;.1.>.0.+.+.0.>.O.O.d.E.E.S.@.z l J ,X0XlXyXdXsXsX",
"iXiXdXsXlXgXgX8X$XX S &.@.A.F.F.G.I.L.W.P.P.P.!.`.J.`.Y.W.U.W.L.L.J.L.*.E.Z.S.z z A .X#XjX3XdXdXsXsX",
"dXdXdXdXdXsXgXgXkX+Xo , 0 , &.F.*.A.I.I.I.K.K.R.T.T.R.K.U.K.K.G.G.D.*.7.&.$.< < o   -XkXiXzXwXyXsXsX",
"iXdXdXdXdXsXrXgXrXcX+ 3 ; 4 0 < q , k F.F.I.U.H.K.T.H.K.J.Y.#.*.*.< q q , 0 9 1 . SXvXsXuXjXzXzXsXsX",
"iXiXuXuXuXuXsXlXgX:X& * 4 4 4 9 5 e w 0 r r r 7.L.Q.Q.7.t e w w y 0 w 3 7 3 = 1 % %X9XgXeXjX3XdXsXsX",
"uXuXfXfXuXsXdXzXeX<X@ 1 4 3 - - ! : 5 6 8 e 7 t r r w w 8 8 Q > : 5 5 6 6 6 - s $ %X9XrXgXlXzXyXsXsX",
"gXfXfXjXsXdXdXzXkX<X@ p q 3 5 : - - Q Q 8 8 8 8 8 ~ 8 8 ~ 8 8 8 Q ! W = e 3 7 Z @ *XbXzXrXtXzXyXsXsX",
"hXhXjXuXsXdXsXdX7X;XSXa q.^ ~ / ] / / 6 6 6 Q Q W ! W ~ 6 8 Q 6 ~ [ o.[ / ( q.p J +XMXaXsXsXsXsXsXsX",
"gXrX0X9XsXsXsXsXNX7XnXOXN %.) :.:.:.:.,.|  .o.X.k.[ X.X.X...[ [ ....| } :.%.C % *XbXaXdXsXuXdXdXsXsX",
"rXrX5X5XsXrXsXsXsXzXiX*XP e.%.+.-.1.1.1.l.z.x. . . . . .l.5. .:.) 4.{ -.) j v |.cXdXsXsXuXuXsXsXsXsX",
"rXrXiXiXuXrXsXsXlXwXuX;XSXY R y.2.;.;.;.<.,.,.,.<.5.:.,.} { ) ) ) ) ) ( j n SXnXiXgXgXgXuXuXjXjXuXsX",
"gXrXdXiXuXuXsXsXrXgXlX0X-X|.SXE T y.y.e.e.$.%.%.%.%.%._ _ $.j j C N N N U AX:XiXgXgXgXgXsXsXfXfXuXsX",
"gXgXsXsXuXuXsXsXrXxX2X8XiXmX=X-X<X+X%XSXCXY P T T D V T U I I AX.X&X$X$X<X4XuXgXgXfXuXsXsXsXgXgXsXsX",
"fXgXsXsXuXiXsXsXlXtXlXeXrXsXdXdXrXlXzXvX;X&X.XXXAXAXSX|..X1X$X,X9XeXsXzXsXtXgXhXgXuXiXiXdXsXgXgXsXsX",
"fXfXrXsXuXiXsXsXsXsXsXuXlXlXrXsXsXuXuXiX9X5X5XvXmX4XmXvX0X9X9X6XyXzXdXpXyXxXfXeXsXdXdXMX9XiXsXrXsXsX",
"uXuXgXrXuXiXsXsXzXyXdXdXsXrXlXsXeXjXjXjXeXlXsXsXrXsXsXrXlXtXrXlXsXdXpXdXzXeX2XjXsXdXdXiX9X9XuXsXsXsX",
"sXsXgXfXuXiXsXsXsXdXaXiXuXuXuXuXgXgXgXgXgXsXsXsXsXsXsXsXsXrXrXsXdXdXdXsXuXfXfXfXfXfXsXyXiXiXuXsXsXsX",
"dXsXrXrXuXuXuXuXsXdXdXdXuXuXuXuXrXgXgXrXsXsXsXuXsXsXsXsXsXsXsXsXdXdXsXuXuXjXfXfXfXfXrXsXdXdXsXuXsXsX",
"dXdXsXrXuXiXjXfXsXsXdXdXsXrXuXuXiXiXiXuXuXuXuXuXuXuXuXsXsXsXsXsXuXuXuXuXdXdXsXuXuXuXsXrXrXrXrXuXuXsX",
"dXdXsXsXuX8XfXfXgXsXsXsXrXrXsXuXiXiXiXiXiXuXuXuXuXuXuXuXuXuXsXuXuXjXuXuXdXdXdXdXuXuXsXrXrXrXrXsXsXsX",
"dXdXsXsXuXjXfXgXrXrXsXsXrXrXrXuXiXiXiXuXsXsXrXgXgXgXgXrXsXsXuXsXsXsXsXsXdXdXdXdXdXsXsXuXsXsXsXdXsXsX",
"uXsXsXsXuXuXuXrXrXsXsXsXrXrXsXuXuXuXsXsXsXsXsXrXrXrXrXrXsXuXuXsXsXsXsXsXsXsXsXsXsXsXuXuXuXuXdXdXsXsX",
"jXjXuXuXuXuXsXsXsXsXuXuXsXuXuXuXfXfXrXsXsXsXsXsXsXsXsXsXuXuXuXuXsXsXsXuXuXsXsXsXsXsXuXuXjXuXuXuXsXsX",
"fXfXuXsXsXsXsXsXsXsXuXuXuXuXiXuXfXfXgXsXsXsXsXsXdXdXsXsXuXuXuXuXsXsXsXuXuXfXuXuXsXuXuXuXuXuXuXuXuXsX",
"uXuXuXsXsXsXsXsXsXsXsXuXuXuXuXuXuXsXsXsXsXsXsXsXsXsXsXsXsXsXuXuXsXsXsXsXuXuXuXsXsXsXuXuXuXuXuXuXsXsX",
"sXsXsXsXsXsXsXsXsXsXsXsXsXsXsXsXsXsXsXsXsXsXsXsXsXsXsXsXsXsXsXsXsXsXsXsXsXsXsXsXsXsXsXsXsXsXsXsXsXsX"
};
