/* XPM */
static char *da5e1f20c16043018f84f8231d9e26ceRTxqwfgF3PMimGQ8[] = {
/* columns rows colors chars-per-pixel */
"50 50 243 2 ",
"   c #305C1C",
".  c #2A7D2E",
"X  c #4D7530",
"o  c #786730",
"O  c #436916",
"+  c #2F7E5E",
"@  c #6B7D65",
"#  c #955E25",
"$  c #B15A2B",
"%  c #B44A33",
"&  c #BB5738",
"*  c #A24735",
"=  c #94692B",
"-  c #B96936",
";  c #BB7030",
":  c #BF6612",
">  c #C87519",
",  c #CC6E19",
"<  c #CD512E",
"1  c #C86C29",
"2  c #D66B26",
"3  c #D67927",
"4  c #C9673A",
"5  c #C77A3C",
"6  c #D37434",
"7  c #E6682B",
"8  c #E6742C",
"9  c #E77A36",
"0  c #F8793A",
"q  c #EB5F21",
"w  c #93544E",
"e  c #B95D46",
"r  c #A35246",
"t  c #9E785A",
"y  c #9A6D4D",
"u  c #A8684B",
"i  c #B76B46",
"p  c #BD7757",
"a  c #B26D50",
"s  c #8D5C72",
"d  c #915B66",
"f  c #956465",
"g  c #9C7969",
"h  c #856778",
"j  c #8D7376",
"k  c #AA7962",
"l  c #AD7374",
"z  c #D15E41",
"x  c #C86A45",
"c  c #C87848",
"v  c #D47A47",
"b  c #D1735A",
"n  c #ED7243",
"m  c #3C872A",
"M  c #2C8239",
"N  c #398734",
"B  c #488C3B",
"V  c #469539",
"C  c #4F8A33",
"Z  c #398B6F",
"A  c #398F48",
"S  c #469949",
"D  c #539A48",
"F  c #469654",
"G  c #569957",
"H  c #4A8451",
"J  c #6AA354",
"K  c #77B654",
"L  c #73AD56",
"P  c #4B9767",
"I  c #479378",
"U  c #589D6B",
"Y  c #689E6C",
"T  c #52A676",
"R  c #51A665",
"E  c #70A870",
"W  c #569C4D",
"Q  c #D9842A",
"!  c #C88337",
"~  c #DA8A37",
"^  c #D99437",
"/  c #E0882B",
"(  c #E78935",
")  c #F5893B",
"_  c #EC943B",
"`  c #E89735",
"'  c #F6993D",
"]  c #EDA13D",
"[  c #F1A33C",
"{  c #B68B58",
"}  c #B7884D",
"|  c #8AB44E",
" . c #948D76",
".. c #BB8768",
"X. c #B78D79",
"o. c #B39174",
"O. c #86AB72",
"+. c #8AB46A",
"@. c #C4894B",
"#. c #DD9347",
"$. c #D68654",
"%. c #D28F54",
"&. c #E6874C",
"*. c #F78A46",
"=. c #E99848",
"-. c #FC9343",
";. c #F99947",
":. c #FA9B56",
">. c #E89157",
",. c #E9A547",
"<. c #FDA54C",
"1. c #FDAA4C",
"2. c #F8A647",
"3. c #FFB249",
"4. c #EAA556",
"5. c #FEAD54",
"6. c #FCA857",
"7. c #FDB35B",
"8. c #FFB554",
"9. c #C48767",
"0. c #CA9868",
"q. c #CE926F",
"w. c #D9A875",
"e. c #D5AA72",
"r. c #E6A565",
"t. c #F7A965",
"y. c #E8B364",
"u. c #FBB869",
"i. c #F3BA7A",
"p. c #9BC376",
"a. c #7D7C8A",
"s. c #8C778C",
"d. c #A57F8C",
"f. c #3B918C",
"g. c #3E91A6",
"h. c #429488",
"j. c #489999",
"k. c #76899C",
"l. c #69908D",
"z. c #4AA399",
"x. c #58A697",
"c. c #6AAA86",
"v. c #64AA98",
"b. c #499AAE",
"n. c #7A93B5",
"m. c #7896AA",
"M. c #5AABA5",
"N. c #54ACBE",
"B. c #54ABB8",
"V. c #67ABA7",
"C. c #67B1A9",
"Z. c #78B4A8",
"A. c #65B2B5",
"S. c #6CA9B8",
"D. c #4A9CCC",
"F. c #7A9BC8",
"G. c #669BD8",
"H. c #6D99C6",
"J. c #4EA5CC",
"K. c #59A8C6",
"L. c #5CB4CA",
"P. c #5BA9D8",
"I. c #59B2DA",
"U. c #4BA1D0",
"Y. c #79A5CA",
"T. c #68A6DA",
"R. c #77A7D7",
"E. c #68B0CE",
"W. c #4DAAE9",
"Q. c #54ACEC",
"!. c #5CABEC",
"~. c #5AA8E7",
"^. c #54B1ED",
"/. c #59B2E5",
"(. c #4EACF4",
"). c #4EADFB",
"_. c #4EA7FB",
"`. c #53ADF6",
"'. c #59ACF5",
"]. c #53ADFA",
"[. c #59ABFB",
"{. c #56A6F8",
"}. c #4EB0F6",
"|. c #4DB1FA",
" X c #53B1F4",
".X c #54B1FB",
"XX c #5AB1FC",
"oX c #5BB1F5",
"OX c #63ABEC",
"+X c #67A8E6",
"@X c #79A9E2",
"#X c #64B1EA",
"$X c #65ADF3",
"%X c #65B1F5",
"&X c #76B4EF",
"*X c #898A8A",
"=X c #878398",
"-X c #949191",
";X c #AD9A89",
":X c #B4978C",
">X c #A89594",
",X c #B99A97",
"<X c #A5A69B",
"1X c #B6A698",
"2X c #8D99AB",
"3X c #929AA6",
"4X c #8C97B9",
"5X c #8F93B3",
"6X c #A89DA4",
"7X c #96A7A8",
"8X c #97A4B5",
"9X c #94B3B7",
"0X c #A5A2A9",
"qX c #B5A7AA",
"wX c #B8B2BB",
"eX c #ADAAB9",
"rX c #87BC84",
"tX c #CC9D88",
"yX c #D7AC86",
"uX c #CCA893",
"iX c #E3B28E",
"pX c #85C0A0",
"aX c #BFC1B6",
"sX c #899CC9",
"dX c #919DC9",
"fX c #909DD1",
"gX c #86A5C8",
"hX c #97A7C9",
"jX c #86A7D5",
"kX c #9AA7D4",
"lX c #99B3DA",
"zX c #8AB9D4",
"xX c #AAB8D8",
"cX c #A5AECB",
"vX c #86B6EA",
"bX c #9BB5E7",
"nX c #80B7F7",
"mX c #A8B9E6",
"MX c #B0C5D2",
"NX c #98D4FC",
"BX c #94C5F7",
"VX c #AED1F0",
"CX c #C1E0FF",
/* pixels */
"].].].].].].].].`.`.].].].].].`.Q. X).).].[.{.XX.X}.`.`.].].`.`.`.`.`.`.`.`.`.`.].].].].].].].].].].",
"].].].].].].].].`.`.].].].].].].`.`.].].].].oX~.W.^.`.`.].].(.].].`.`.`.`.`.`.`.].].].].].].].].].].",
"].].].].].].`.`.].].].].].].].].].).].[.].`.I.b.N.I. X].[.[.].[.].].].].].].].].].].].].].].].].].].",
"].].].].].].`.`.].].].].].].].].]..X'.%X`.^.L.g.b.L./.W.'.[.].[.].].].].].].].].].].].].].].].].].].",
"].].].].`.`.`.`.].].].].].].].].].`.P.J. X/.B.h.j.A.L.D.~.'.].].].].].].].].].].].].].].].].].].].].",
"].].].].`.`.`.`.].].].].].].].].].~.K.g./.I.M.f.j.A.C.j.P.!./.Q.`.].].].].].].].].].].].].].].].].].",
"`.`.`.`.`.`.].].].].].].].].].`.~.I.A.f.J.L.M.I j.C.c.c.P./.N.N.Q.].].].].].].].].].].].].].].].].].",
"`.`.`.`.`.`.].].].].].].].].].Q.b.A.A.j.g.L.x.I j.v.E E K.I.z.f./.].].].].].].].].].].].].].].].].].",
"`.`.`.`.`.`.].].].].].].].].]./.M.v.A.j.f.C.T P I c.+.O.S.K.Z f.I.].].].].[.[.].].].].].].].`.`.].].",
"`.`.`.`.`.`.].].].].].].].].].P.Z.c.v.x.Z T T F P Y +.O.Z.j.Z z.I.].].`.].].].].].].].].].].`.`.].].",
"].].`.`.].].].].].].].].`.`.].P.C.pXc.T F F R F B J p.O.Y I I M.I.`.].`.].].].[.].].].].].].`.`.].].",
"`.].`.`.].].].].].`.]..X`.`.].#XS.Z.rXJ D S A S C L p.E G U P x.I.`.`..X.X].].].].].].].].].`.`.].].",
"].].].].].].].].].].]..X`.`.`.Q.#XV.+.| V S . S C K +.W G S G I I.`.`.`.].`.].].].].].].].].`.`.].].",
"].].].].].].].].].]..X`.`.XX`.U.J.Z.O.| C S M S C K D B D B G c.I. X`.`.`.`.].].].].].].].].`.`.].].",
"].].].].].].].].].].].`.`.oX`.U.f.c.Y +.J C N S V V S D N G E v.J.`. X`.`.].].].].].].].].].`.`.].].",
"`.`.].].].].].].[.`.].].`.`.'./.z.Z U Y J B . S M N S N B E Y x.D.W.oX X`.`.`.`.].].].].].`.].].].].",
"`.'.[.].].).].].[.[.XX(..X[.[.Q.#Xb.+ F D N M M . S N m L D U Z J.`.`.Q.`. X`.`. X}.).].`.'.].].].].",
" X`.[.[.].).].].].`.`.[.].`.[.`.].P.v.H X X     X O O C C H Z M./.`.'.OX!.Q.(..X}. X).].'.'.].].].].",
"}..X].].].`.].`.`.`.`.'.'.`..X).(.#X9X .o = = # # # = o @ l.K./.`.`.+XG.G.+X'.).].].`.`.`.`.].].].].",
"|.|.].].`.`.`.}.}. X[.{.[.XX(.'.T.4Xj k %.&.1 :.*.6 c a g 3XR.'.`.'.&XBXbXvX[.).[.].`.`.`.`.].].].].",
"|.|.].[.'.`.`.`..X(.[.[..X`.!.Y.6Xk $.v 6 6 -.) *.*.1 1 $.k =XR.OXQ.P.NXBXT.'.[.[.[.`.}.`.`.`.`.].].",
"|.].[.[.'.'.`.].).].[.[.).Q.jX=Xu &.-.3 8 8 ( ;.) 3 ( -.2 v X.2XT.OXP.NXNXT.!.].[.[.`.`.].`.`.`.`.].",
"`.].[.[.`.`.`.].).[.[.[._.+X3Xk $.-.3 _ 5.;./ / / ;.<.( ;.3 - g Y.+XT.NXNXP.Q.XX`.'.[.[.].].`.`.`.].",
"].].'.'.].].`.`.[.[.[.{.$XjXw c &.3 =.,.] 8.2.> Q <.5.;.1._ 1 u k.R.H.vX&X~.'.(.`.`.[.[.[.].}.}.].].",
"].`.`.`.].].`.`.].`.XX+XR.-Xi 6 - >.u.u.5.` Q 1.=.3 ;.7.) 2 >...*XhXbXCXBX+X]..X X`.'.].[.].).].].].",
"].].`. X].]. X X`.`.`.T.5Xf $.5 ..o.e.w.#.> 1.1.1.,.3 ( 8 :.#.9.:XeXmXVXnXOX[.).`.`.`.].].].].].].].",
"`.`. X`.].].].`..X.X`.R.d.a p X.3Xm.8X .! 8.2.` ,.5.6., 3 :.t.$.u j jX+X!.!.`..X].].].|.].].].[.].].",
"`.`.`.].[.].].].(.].].R.l & 9.;Xn.NXlX-X} 5.1.[ 1.5.Q 2._ Q 6.:.4 f jX'.Q.`.`.`.].].).|.].].].].].].",
"'.`.].[.[.[.[.].].`.XXjXr z yX1XVXVXxX>X@.Q 1.5.5.Q ` 3.3.` 3 ;.2 u F.`..X.XW..X].].].].'.'.].].].].",
"`.`.[.[.].`.].[.[.{.'.sX* n q.1XMXMXwXo.r._ / <.( _ 1.[ [ 3._ , 8 i n.%XW.`. X(.].].[.[.'.'.`.}.].].",
"}.).[.[.`. X`.`.{.$X+Xk.e 7 v p ;X;Xt 0.6.6.;.: Q 1.6.=.2.1.6.2 8 i =XR.OX[.[.[.].].[.[.`.`.`.`.`.].",
"|.|.[.[..X X X[.%X$XvXa.$ n 6 - 0.0.0.4.6.7.=.( Q ' 7.7.5.2.3 6.9 - s.sX+X'.].[.[.].].].].`.`.`.`.].",
").).).}.`. X X'.'.&XjXh & 7 ) =.6 4.7.7.7.=.~ 1.2.3 ` 8.<.3 =.6.;.x h sXT. X[.`.[.].].].[.].`.`.].].",
"].].}.}.].].].'.'.G.jXh & 7 -.<.' 3 ~ u.=.! 2.1.1.1.Q / Q ( 5._ ) v h dX+XQ.`.].[.].).`.[.].].].].].",
"[.].].].[.[.[.[.[.+XsXh & 0 -.<.1.6.@.; 5 4.4.,.,.7.8., , 5.<.;.) v d 4XT.`.`.[.].].).`.].[.].].].].",
"'.'.[.[.[.[.[.[.].+XgXh & 0 ) _ 6.r.yXtXuXyXi.y.y.u.=.( #.5 t.:.:.4 f 5X+X`.].].].|.).`.].].].].].].",
"Q.`.].].`.`.`.`.`.~.sXh % 0 ;.<.u.yXwXcXcXwX:XiXi.4.Q r.uX1XuXiX&.& f 5X+X`.[.[.|.|.`.`.`.].].].].].",
"^.`.].].`.}.`.`. X+XfXs % 7 -.u.e.;X4XbXmXhXeXuXr.6 =.w.aX8X3X,Xx 4 f 4X+X].[.[.|.}.`.`.'.].].].].].",
"^.`.].].).|.|.|.(.$XfXs < q q 5 X.0XxXVXlXxXeX:X- =.t.w.9XzXMXqXb x j sX+X].].].}.}.`.'.[.].].].].].",
"Q.`.[.].).).|.|.`.+XfXs < q 8 $ :X2XxXhXhXhX8X>X; 6.t.0.7XVXVXqXb % s.F.$X].]..X}.}.`.'.[.].].].].].",
"`.`.[.[.].].].`.'.+XfXh % < 2 c qX2XkX4X4XhXhXqX@.~ u.0.1XeXwXuXe r s.@X!..X(..X].].'.[.[.].`.`.].].",
"`.].[.[.].].].'.!.+XR.s.r < 6 q.0XhXkXsXdXhXdXqXr.Q #.i.q.X.tX..e f n.OX'.].(.`.].].'.[.[.[.`.}.].].",
"].].`.].].].`.Q.'.~.+Xn.g i $.9.0XdXkXkXfXkXgX<Xy.2.Q =.v c c c u s.R.'.].`. X(.].].'.'.[.].}.}.].].",
"[.].`.`.`.`.`.`.'.'.Q.R. .{ @.{ wX4XxXmXkXlXhX<X%.8.~ , 2 9 v 9.l 5X+X].`.]. X X].[.`.`.[.].}.}.].].",
"[.].`. X`.).|.|.].).XXT.7X .{ y 0X4XxXxXcXhX8X1X%.] ^ ; ; v $.9.6XjX$X].)..X(.`.[.[.`.`.`.].].).].].",
"[.].`.`.].].|.|.).)._.%XgX7X;Xj 2XgXlXlXlXkXcX<X..} } } y t X.>XgX+X'.[.]..X(.].[.[.`.`.`.`.].).].].",
"`.`.`.`.[.[.].)..X[.[.{.~.P.R.Y.T.T.R.@X@XR.zXm.*X*X*X*Xl.k.gXR./.Q.`.[.].].].].].].`.`.`.`.].].].].",
"`.`.`.].[.[.].].`.].[.[.)..X'.'.'.!.~.+X+X+XT.R.Y.Y.Y.Y.R.T.~.Q.}.(.].].].]..X).].].`.`.`.`.].].].].",
"`.`.].].].].].].`.].[.].].].`.`.`.`.'.'.'.'.'.!.OXOXOX!.!.Q.`.`.]. X].].].].].].].].].`.`.`.].].].].",
"].].].].].].].].].].].].].].].].].].].].].].].].].].].].].].].].].].].].].].].].].].].].].].].].].]."
};
