/* XPM */
static char *_e33262b2ebf409894bb4478bc808d26o5hQP4GiYnBD6mlT[] = {
/* columns rows colors chars-per-pixel */
"50 50 233 2 ",
"   c #00061B",
".  c #000A0C",
"X  c #371803",
"o  c #2A1300",
"O  c #000A26",
"+  c #00112A",
"@  c #00182D",
"#  c #143134",
"$  c #513F3B",
"%  c #4B3317",
"&  c #2B4603",
"*  c #6A4315",
"=  c #794611",
"-  c #676C00",
";  c #535235",
":  c #674A25",
">  c #072649",
",  c #0E3254",
"<  c #223958",
"1  c #273E60",
"2  c #0E4674",
"3  c #244F6F",
"4  c #555459",
"5  c #7E5649",
"6  c #6E5552",
"7  c #74574B",
"8  c #707E41",
"9  c #6B6E53",
"0  c #507374",
"q  c #7D7B6B",
"w  c #686673",
"e  c #837804",
"r  c #845849",
"t  c #847975",
"y  c #709635",
"u  c #6FA42B",
"i  c #6DA337",
"p  c #78A838",
"a  c #76AF32",
"s  c #6F9455",
"d  c #79A846",
"f  c #7FB140",
"g  c #588F74",
"h  c #649C75",
"j  c #71A07E",
"k  c #8E9D2A",
"l  c #9D9132",
"z  c #A29630",
"x  c #83A63E",
"c  c #B6A83F",
"v  c #C2BE1D",
"b  c #8F9A5E",
"n  c #86AD45",
"m  c #91AE40",
"M  c #8FBF4F",
"N  c #8DB755",
"B  c #96BA57",
"V  c #B2AE4D",
"C  c #90B07F",
"Z  c #87A86A",
"A  c #ABB86C",
"S  c #A3BD7C",
"D  c #9AC154",
"F  c #BEC75A",
"G  c #9AC760",
"H  c #ACCA68",
"J  c #ADD26E",
"K  c #B2D765",
"L  c #AFD575",
"P  c #B9D776",
"I  c #BAE37D",
"U  c #C4CE6B",
"Y  c #C8E679",
"T  c #DCE37D",
"R  c #C5E96F",
"E  c #F2F766",
"W  c #E0F667",
"Q  c #F2F657",
"!  c #1B5D8F",
"~  c #266994",
"^  c #607787",
"/  c #497FAB",
"(  c #738498",
")  c #6A8C8C",
"_  c #6CA19B",
"`  c #78AB94",
"'  c #72A481",
"]  c #5889A7",
"[  c #5499B9",
"{  c #7190AD",
"}  c #59A5BC",
"|  c #6AA8A7",
" . c #75A6A3",
".. c #77B4A8",
"X. c #6CACB3",
"o. c #64A4BD",
"O. c #62A9B8",
"+. c #72A7B6",
"@. c #6CB0BA",
"#. c #559390",
"$. c #5A98CC",
"%. c #5096D1",
"&. c #6D9DC5",
"*. c #5BA5CB",
"=. c #5DAACA",
"-. c #5AA6C6",
";. c #5AABDC",
":. c #59A8D7",
">. c #5FB0DF",
",. c #54B1DC",
"<. c #63A3C4",
"1. c #64ABCB",
"2. c #69AAC0",
"3. c #77A8C6",
"4. c #6DB3C8",
"5. c #79BAC6",
"6. c #64ACD6",
"7. c #62B1DC",
"8. c #69B3DA",
"9. c #73B6D5",
"0. c #79ACDB",
"q. c #4DA4EC",
"w. c #4CADEF",
"e. c #5BABE6",
"r. c #55ACED",
"t. c #5BADEB",
"y. c #56A8E7",
"u. c #52B0EE",
"i. c #5BB1EA",
"p. c #56B2E5",
"a. c #4DACF4",
"s. c #4EADFC",
"d. c #4BA7F8",
"f. c #53AEF6",
"g. c #5AACF4",
"h. c #54A7FA",
"j. c #53ADFA",
"k. c #5AACFC",
"l. c #57A7F4",
"z. c #4DB1F4",
"x. c #4DB1FB",
"c. c #52B1F4",
"v. c #5CB2F5",
"b. c #54B1FD",
"n. c #5BB2FD",
"m. c #64ABE7",
"M. c #68AAE3",
"N. c #63A8E8",
"B. c #67B5E9",
"V. c #63B5F4",
"C. c #66BBFF",
"Z. c #69B3F7",
"A. c #63ACF0",
"S. c #7BC8F6",
"D. c #869289",
"F. c #8AB888",
"G. c #95B988",
"H. c #8DB190",
"J. c #87BCBB",
"K. c #90BFB2",
"L. c #B2BBA0",
"P. c #ACD286",
"I. c #A9D497",
"U. c #B6D896",
"Y. c #B0CA8F",
"T. c #BFE183",
"R. c #BAE596",
"E. c #9CCAA4",
"W. c #98C6A5",
"Q. c #98C5BC",
"!. c #8CC8AC",
"~. c #A2CBA4",
"^. c #BFDFBA",
"/. c #B9D4AA",
"(. c #B7E5B5",
"). c #C6DA9B",
"_. c #D1DE98",
"`. c #CAED8D",
"'. c #CAE887",
"]. c #D3ED8D",
"[. c #DBED8D",
"{. c #D6EC85",
"}. c #DCF485",
"|. c #D6F38B",
" X c #DCF48C",
".X c #DBFA8B",
"XX c #C9E998",
"oX c #D4EC93",
"OX c #D9ED93",
"+X c #D3ED9A",
"@X c #D6EA9B",
"#X c #D6F194",
"$X c #DCF394",
"%X c #D7F39B",
"&X c #DAF49B",
"*X c #DCFB9C",
"=X c #DBF997",
"-X c #CFF39B",
";X c #E3F39A",
":X c #E1F596",
">X c #E1ED8F",
",X c #C7DAAA",
"<X c #CDD8B5",
"1X c #CAE7A7",
"2X c #D5EDA5",
"3X c #D6E9A3",
"4X c #CDF6A6",
"5X c #D5F3A7",
"6X c #D0EEB2",
"7X c #CBF8BB",
"8X c #D7F5B9",
"9X c #E4F6A6",
"0X c #E6F3B7",
"qX c #82B1CF",
"wX c #8FAAC2",
"eX c #94CED0",
"rX c #ACCFC3",
"tX c #B4C6C1",
"yX c #B9DBCA",
"uX c #B1E6D1",
"iX c #A0D4EA",
"pX c #D7EAD5",
"aX c #CDECC9",
"sX c #F1FFCC",
"dX c #F7FFDE",
"fX c #D8FCFE",
"gX c #C8EBFF",
"hX c #E8FCE8",
"jX c #FCFFEF",
"kX c #FAFEE4",
"lX c #FAFFF5",
"zX c #E4FFF5",
"xX c #C9CEC7",
/* pixels */
"j.j.j.j.j.j.j.j.j.j.j.j.j.j.j.f.g.g.z.z.z.f.g.g.k.j.j.j.k.k.j.s.j.j.j.j.f.f.f.f.f.j.j.j.j.f.f.f.f.j.",
"j.j.j.j.j.j.j.j.j.j.j.j.j.j.j.f.g.g.z.z.z.f.g.g.k.j.j.j.k.k.j.s.j.j.j.j.j.j.j.j.j.j.j.j.f.f.f.f.f.j.",
"j.j.j.j.j.j.j.j.j.j.j.j.j.j.j.f.f.j.s.s.x.f.j.k.j.j.c.c.j.j.z.z.c.f.f.j.j.j.k.k.j.j.j.j.j.j.j.j.j.j.",
"j.j.j.j.j.j.j.j.j.j.j.j.j.j.j.j.j.j.j.s.z.f.j.j.j.f.f.f.j.j.x.z.u.u.f.j.j.k.k.k.j.j.j.f.j.j.j.j.j.j.",
"j.j.j.j.j.j.j.j.j.j.j.j.j.j.j.j.j.j.j.j.f.f.j.j.j.g.k.k.k.j.j.f.r.u.f.j.j.j.j.j.j.j.j.f.j.j.k.k.j.j.",
"j.j.j.j.j.j.j.j.j.j.j.j.j.j.j.j.j.j.j.j.f.f.j.j.f.f.j.j.j.k.k.g.f.f.j.j.j.j.j.j.j.j.f.f.j.j.j.j.j.j.",
"j.j.j.j.j.j.j.j.j.j.j.j.j.j.j.j.j.j.j.j.j.j.j.s.z.z.z.z.j.j.g.g.g.j.k.j.j.j.f.f.f.f.f.j.f.j.j.j.j.j.",
"j.j.j.j.j.j.j.j.j.j.j.j.j.j.j.j.g.g.f.c.r.t.t.t.p.p.u.u.j.j.k.g.g.k.k.k.j.f.c.c.f.f.j.j.f.f.j.j.j.j.",
"j.j.j.j.j.j.j.j.j.j.j.j.j.j.j.j.k.l.c.p.-.5.3.o.<.*.:.p.f.b.k.k.g.k.h.j.h.b.c.r.f.f.j.j.j.j.j.j.j.j.",
"j.j.j.j.j.j.j.j.j.j.j.j.j.j.j.j.k.j.f.;.| uXaXrXQ.J.5.4.*.;.e.y.e.V.k.h.j.b.a.c.f.j.k.j.j.f.j.j.j.j.",
"j.j.j.j.j.j.j.j.j.j.j.j.j.j.j.j.j.b.s.;.` 6X0X0X8X8X7X(.!...X.@.1.:.g.k.b.j.a.f.j.j.k.k.j.j.j.j.j.j.",
"j.j.j.j.j.j.j.j.j.j.j.j.j.j.j.j.f.s.b.:.F.oX;X;X&X*X%X4X7X7X(.uXeX=.t.k.s.s.b.j.j.j.k.k.j.j.j.j.j.j.",
"j.j.j.j.j.j.j.j.j.j.j.j.j.j.j.j.b.f.n.-.F.*X`.B N L &X%X+X5X5XaXeX=.e.k.j.s.b.j.j.j.k.k.j.f.j.j.j.j.",
"j.j.j.j.j.j.j.j.j.j.j.j.j.j.j.j.b.g.y.o.I.*XG i i d P ;XoXoX$XXX..=.e.l.j.b.a.a.j.j.k.k.f.f.j.j.j.j.",
"j.j.j.j.j.j.j.j.j.j.j.j.j.j.j.f.l.e.8.eX1X=XM a a u H ;X].#X|.U.| 8.t.h.k.j.a.c.j.j.k.k.f.f.f.j.j.j.",
"j.j.j.j.j.j.j.j.j.j.j.j.j.j.f.f.g.:.iXyX).=XK u u p P ;X].#X|.P.| e.g.k.h.f.c.c.j.j.k.j.f.f.f.f.j.j.",
"b.b.j.j.j.j.j.g.g.k.j.s.x.x.c.f.r.6.fX/.@X[..XK D P [.OXOXOX{.Y.o.r.f.j.j.f.f.f.j.j.j.j.j.j.j.j.j.j.",
"c.j.j.j.j.j.j.k.l.k.j.b.a.,.} O.6.9.zXY.9X:X X X*X&X#XOX$XoX&XG.=.f.j.f.f.f.j.j.j.j.j.j.j.j.j.j.j.j.",
"r.f.j.j.f.f.j.j.b.f.b.f.y.X.U.N ) eXpXY.9X].$X$XoX%X`.J T.-XXX' 6.j.j.f.f.f.j.j.j.j.j.j.j.j.j.j.j.j.",
"r.f.k.j.c.c.j.j.f.w.a.c.A.+.%X}.G.H.,X_.%X&XOXOX@X%XP y N 4XI.` 7.j.f.f.f.j.j.j.j.j.j.j.j.j.j.j.j.j.",
"g.g.k.j.u.u.l.k.l.n.a.a.k.*.j P.`.Y U >X&XoX&XOX[. X{.B J 5XF.| >.f.f.f.f.j.j.j.j.j.j.j.j.j.j.j.j.j.",
"k.k.k.j.f.c.f.l.g.q.b.b.s.V.@.h d x F T ;X5X#X$X}.}..X|.].5XH.X.e.f.f.f.f.f.j.j.j.j.j.j.j.j.j.j.j.j.",
"j.k.k.j.x.x.x.x.f.k.j.d.b.a.B.9...Z A T :XJ N I .X}.Y |.OX1X..} i.f.f.f.j.j.j.j.j.j.j.j.j.j.j.j.j.j.",
"j.j.j.j.s.x.x.x.b.h.j.j.b.s.f.S.S._ s [.{.p d p Y }.|.].OXU.X.7.v.j.j.j.j.j.j.j.j.j.j.j.j.j.j.j.j.j.",
"z.j.j.j.j.b.c.c.f.f.j.j.s.h.k.V.B.O.C 9X'.x f p J *X].].OXG.4.v.f.f.j.j.j.j.j.j.j.j.j.j.j.j.j.j.j.j.",
"z.z.f.g.f.f.f.f.f.f.j.j.b.j.g.l.c.[ G.9XOXH n p T.#X#X].oXF.*.j.j.f.j.j.j.j.j.j.j.j.j.j.j.j.j.j.j.j.",
"s.j.j.k.k.k.k.k.k.k.j.z.z.z.l.l.b.:.~.&X;X:X'.`.&X&X|.`.1X` 7.j.b.j.j.j.j.j.j.j.j.j.j.j.j.j.j.j.j.j.",
"s.j.j.f.f.k.k.k.k.k.b.x.z.z.f.k.j.7.E.%XoXOXOX&X#XP B XX(._ >.b.b.b.j.j.j.j.j.j.j.j.j.j.j.j.j.j.j.j.",
"j.b.j.f.a.a.f.f.k.k.s.s.a.f.k.l.j.-.W.5X%X@X&XoX%XH y R.E.X.,.w.b.j.j.j.j.j.j.j.j.j.j.j.j.j.j.j.j.j.",
"j.j.j.c.c.c.c.c.j.k.n.n.b.j.k.k.C.-.E.2X+X+X+X2X8XXX'.4XK.O.,.z.c.j.j.j.j.j.j.j.j.j.j.j.j.j.j.j.j.j.",
"a.f.j.k.j.b.b.b.b.n.C.C.n.b.n.n.Z.<.~.2X%X@X3XsXdX1XoX5XQ.o.e.f.j.j.j.j.j.j.j.j.j.j.j.j.j.j.j.j.j.j.",
"x.j.g.g.k.j.j.s.j.f.g.g.f.f.f.f.g.1.W.2X5X3X<XkXjXaX).8XK.<.t.j.j.j.j.j.j.j.j.j.j.j.j.j.j.j.j.j.j.j.",
"j.j.j.j.j.j.j.j.j.j.f.f.f.j.j.f.c.=.W.1XU.,X<XkXlXpXG.aXJ.o.i.f.j.j.j.j.j.j.j.j.j.j.j.j.j.j.j.j.j.j.",
"j.j.j.j.j.j.j.j.j.j.j.j.j.j.j.j.a.;. .^./.,XL.jXjXhXH.rX+.6.y.b.f.j.j.j.j.j.j.j.j.j.j.j.j.j.j.j.j.j.",
"j.j.j.j.j.j.j.j.j.j.j.j.j.j.j.j.n.e.qXfXhXhXxX<X<X~.tXgX6.e.c.a.j.j.j.j.j.j.j.j.j.j.j.j.j.j.j.j.j.j.",
"j.j.j.j.j.j.j.j.j.j.j.j.j.j.j.j.d.A.{ ( D.q t ; b 8 q ( $.n.x.x.j.j.j.j.j.j.j.j.j.j.j.j.j.j.j.j.j.j.",
"j.j.j.j.j.j.j.j.j.j.j.j.j.j.j.j.j.B.( 4 7 X X o V l * 6 ] i.b.d.j.j.j.j.j.j.j.j.j.j.j.j.j.j.j.j.j.j.",
"j.j.j.j.j.j.j.j.j.j.j.j.j.j.j.j.l.M.{ 9 5 r r * z c = 7 ] i.a.x.j.j.j.j.j.j.j.j.j.j.j.j.j.j.j.j.j.j.",
"j.j.j.j.j.j.j.j.j.j.j.j.j.j.j.j.f.m.{ 4 6 r 5 : l V : 4 / V.f.f.j.j.j.j.j.j.j.j.j.j.j.j.j.j.j.j.j.j.",
"j.j.j.j.j.j.j.j.j.j.j.j.j.j.j.j.a.t.&.0 w $ % X e V ; ^ $.g.q.n.f.j.j.j.j.j.j.j.j.j.j.j.j.j.j.j.j.j.",
"j.j.j.j.j.j.j.j.j.j.j.j.j.j.j.f.c.r.N.0.wX) A - v E b  .B.f.a.j.j.j.j.j.j.j.j.j.j.j.j.j.j.j.j.j.j.j.",
"j.j.j.j.j.j.j.j.j.j.j.j.j.j.j.f.f.r.t.M.3 # S k Q E T.g 7.k.j.j.j.j.j.j.j.j.j.j.j.j.j.j.j.j.j.j.j.j.",
"j.j.j.j.j.j.j.j.j.j.j.j.j.j.j.j.f.c.V.! @ . D.8 k W R s 1.h.j.j.j.j.j.j.j.j.j.j.j.j.j.j.j.j.j.j.j.j.",
"j.j.j.j.j.j.j.j.j.j.j.j.j.j.j.j.b.q.g.$., # ( tX& n J F.*.k.h.b.j.j.j.j.j.j.j.j.j.j.j.j.j.j.j.j.j.j.",
"j.j.j.j.j.j.j.j.j.j.j.j.j.j.j.j.d.n.l.Z.$.3.{ wX) 0 g #.:.n.a.j.j.j.j.j.j.j.j.j.j.j.j.j.j.j.j.j.j.j.",
"j.j.j.j.j.j.j.j.j.j.j.j.j.j.j.j.k.k.l.m.2 > 1 < + ] 2.[ t.f.n.a.j.j.j.j.j.j.j.j.j.j.j.j.j.j.j.j.j.j.",
"j.j.j.j.j.j.j.j.j.j.j.j.j.j.j.j.k.q.V.2 >     O O [ B.t.f.f.f.f.j.j.j.j.j.j.j.j.j.j.j.j.j.j.j.j.j.j.",
"j.j.j.j.j.j.j.j.j.j.j.j.j.j.j.j.j.g.B.~ O + , > , $.g.b.f.f.l.j.j.j.j.j.j.j.j.j.j.j.j.j.j.j.j.j.j.j.",
"j.j.j.j.j.j.j.j.j.j.j.j.j.j.j.j.j.f.v.t.%.%.M.N.N.r.f.j.j.f.f.f.j.j.j.j.j.j.j.j.j.j.j.j.j.j.j.j.j.j.",
"j.j.j.j.j.j.j.j.j.j.j.j.j.j.j.j.b.a.f.j.l.k.n.f.j.j.j.j.j.j.f.f.j.j.j.j.j.j.j.j.j.j.j.j.j.j.j.j.j.j."
};
