/* XPM */
static char *_b09fc113c134c21b55c15bc030c79b79ev5br9XS6fZvu6K[] = {
/* columns rows colors chars-per-pixel */
"50 50 241 2 ",
"   c #040D00",
".  c #161301",
"X  c #00091B",
"o  c #001219",
"O  c #011A00",
"+  c #221500",
"@  c #2C140A",
"#  c #292400",
"$  c #393A09",
"%  c #000A25",
"&  c #031428",
"*  c #001938",
"=  c #121826",
"-  c #251F29",
";  c #212F38",
":  c #413914",
">  c #523B2D",
",  c #3A620A",
"<  c #365D0E",
"1  c #58571F",
"2  c #6A5702",
"3  c #79590A",
"4  c #7E6505",
"5  c #484335",
"6  c #765834",
"7  c #526933",
"8  c #757328",
"9  c #0D2D4E",
"0  c #2A3B5B",
"q  c #033663",
"w  c #2C4A5A",
"e  c #1C6459",
"r  c #3F6E4A",
"t  c #114770",
"y  c #2B4B60",
"u  c #306F6A",
"i  c #7B5B4F",
"p  c #507655",
"a  c #666C6C",
"s  c #576164",
"d  c #91511E",
"f  c #87582F",
"g  c #8B5939",
"h  c #965C2F",
"j  c #A25831",
"k  c #845949",
"l  c #826552",
"z  c #7DAC3C",
"x  c #7BA439",
"c  c #5B8F5E",
"v  c #708952",
"b  c #7DAB43",
"n  c #4C826E",
"m  c #508666",
"M  c #769968",
"N  c #769976",
"B  c #6DA776",
"V  c #829635",
"C  c #87AA3D",
"Z  c #87B23F",
"A  c #EAF031",
"S  c #C7D238",
"D  c #83AC44",
"F  c #85AB48",
"G  c #82B142",
"H  c #8BB649",
"J  c #93B655",
"K  c #91B144",
"L  c #8AB26C",
"P  c #ADB279",
"I  c #8B9678",
"U  c #A9C55A",
"Y  c #B9CE4D",
"T  c #B4DA6E",
"R  c #B2CD6C",
"E  c #BFE171",
"W  c #D3C155",
"Q  c #E0DB5B",
"!  c #EEED4F",
"~  c #EDD964",
"^  c #C2E47A",
"/  c #D7F36D",
"(  c #EEEB6E",
")  c #356D8B",
"_  c #3075B0",
"`  c #4A7191",
"'  c #4B7BA6",
"]  c #5E9994",
"[  c #518E91",
"{  c #679B95",
"}  c #69A696",
"|  c #72A88E",
" . c #4D88BD",
".. c #558CAD",
"X. c #699AA1",
"o. c #5EA8BB",
"O. c #5DA7A8",
"+. c #69A6A8",
"@. c #74A7A8",
"#. c #6AAAB9",
"$. c #7CB7BB",
"%. c #6CAFB5",
"&. c #5798C8",
"*. c #579ED4",
"=. c #518FC2",
"-. c #659DD5",
";. c #6D96C2",
":. c #5CA8CC",
">. c #5DABD3",
",. c #5CA3D9",
"<. c #5CACDC",
"1. c #57A9D8",
"2. c #5FB2DC",
"3. c #65ACC9",
"4. c #6DB5C7",
"5. c #70B3C8",
"6. c #67ABD6",
"7. c #6BB2DA",
"8. c #76B5D2",
"9. c #75A7C2",
"0. c #4CACED",
"q. c #4DA3EC",
"w. c #55A4E5",
"e. c #5CABE4",
"r. c #54A5EB",
"t. c #54ABED",
"y. c #5BACEB",
"u. c #59A8E4",
"i. c #4CB2EB",
"p. c #5BB3E3",
"a. c #52B1EE",
"s. c #59B2E8",
"d. c #4DABF3",
"f. c #4EADFD",
"g. c #4EA5F7",
"h. c #53A6F3",
"j. c #53ADF5",
"k. c #5AACF4",
"l. c #52A5FC",
"z. c #5DA7FC",
"x. c #53ADFA",
"c. c #5AACFC",
"v. c #5FA6F3",
"b. c #4DB1F4",
"n. c #49B1FC",
"m. c #52B1F3",
"M. c #5DB2F4",
"N. c #54B1FB",
"B. c #5BB3FD",
"V. c #5CBAFD",
"C. c #62ABE3",
"Z. c #62ACEB",
"A. c #68AAE4",
"S. c #64B0E4",
"D. c #65B3EB",
"F. c #66B9E6",
"G. c #71B5E8",
"H. c #64A8F8",
"J. c #61B4FB",
"K. c #7DC0C9",
"L. c #859595",
"P. c #85B799",
"I. c #95B793",
"U. c #82B7BF",
"Y. c #ACBB9F",
"T. c #9CC495",
"R. c #96C9AC",
"E. c #A5CBA9",
"W. c #AAD7A7",
"Q. c #B3D5A3",
"!. c #AED1B1",
"~. c #B8E8B5",
"^. c #BAF2B2",
"/. c #B1C98B",
"(. c #C9EA88",
"). c #D5EE8B",
"_. c #DAEE8D",
"`. c #D4F38D",
"'. c #DAF58E",
"]. c #D6F888",
"[. c #D5ED93",
"{. c #DAEC94",
"}. c #D7ED9B",
"|. c #DBEC9A",
" X c #D6E697",
".X c #CDF292",
"XX c #C9F398",
"oX c #D4F394",
"OX c #DBF394",
"+X c #DCF893",
"@X c #D4F39C",
"#X c #DCF39B",
"$X c #D4FC99",
"%X c #DBFB9B",
"&X c #D5FC93",
"*X c #CBEC95",
"=X c #E2EA9D",
"-X c #E1F496",
";X c #E2F59B",
":X c #E3FC9A",
">X c #E8EA8B",
",X c #CADAAC",
"<X c #C1D3BB",
"1X c #C9E6AA",
"2X c #D8EBA7",
"3X c #CDF5AA",
"4X c #DEF4A2",
"5X c #DBFBA4",
"6X c #D6F5A7",
"7X c #CBECB9",
"8X c #CBF6BC",
"9X c #D7F5B5",
"0X c #E1EDA2",
"qX c #E3FBA3",
"wX c #E5F6A4",
"eX c #E3F9B8",
"rX c #88BDC1",
"tX c #B3E2D3",
"yX c #B6ECD1",
"uX c #92CEE4",
"iX c #A2D5E6",
"pX c #ACE6EE",
"aX c #CFDDD3",
"sX c #C9F3C9",
"dX c #D2F4C2",
"fX c #C6EDD8",
"gX c #CCF5D6",
"hX c #D6F6D2",
"jX c #D3ECCF",
"kX c #ECEFDE",
"lX c #F8FFDB",
"zX c #E8F6CF",
"xX c #D5FDE5",
"cX c #DBF7F5",
"vX c #D5EEEB",
"bX c #EDFCEA",
"nX c #F4FFEA",
"mX c #FEFFED",
"MX c #EDFDF4",
"NX c #F3FDFA",
"BX c #E3EBED",
/* pixels */
"n.f.x.c.z.c.b.b.n.N.l.c.f.d.M.t.j.N.x.x.x.x.t.<.<.e.x.f.f.x.x.k.j.j.c.c.c.x.x.x.x.f.f.x.j.j.j.j.x.x.",
"f.x.c.z.z.c.b.b.b.N.g.c.x.x.h.k.t.y.e.1.S.>.3.o.uX3.k.f.f.x.j.k.t.j.x.c.c.x.x.j.x.f.x.x.j.j.j.j.x.x.",
"x.c.z.H.H.z.j.b.i.0.j.k.x.B.l.H.6.8.[ ] } R.W.hXjXX.C.x.j.m.t.m.j.j.x.x.x.x.j.j.x.x.x.x.x.x.x.x.x.x.",
"x.c.z.z.z.z.x.f.m.a.M.u.<.6.7.3.X.fXxXsX8X3X5X4XeXN 6.m.j.m.0.j.d.j.x.x.j.j.j.j.j.x.x.x.x.x.x.x.x.x.",
"b.b.x.x.j.j.x.x.x.j.e.6.@.P.W.Q.zX9X2X5X@X$X%XOX#XN :.b.j.m.j.j.j.f.j.m.m.m.j.j.j.x.x.x.x.x.x.x.x.x.",
"b.b.b.b.b.j.x.x.x.t.,.uXgXeXqX).|.wXwXOX%X^ E ].OXT.o.a.j.j.x.x.x.x.j.m.m.m.j.j.j.j.x.x.x.x.x.x.x.x.",
"i.i.b.f.b.x.c.c.j.s.>.$.7X}.#XwXwX[.OX.XF b D U OX1XO.p.m.x.f.f.f.x.x.m.m.j.x.x.j.j.x.x.x.x.x.x.x.x.",
"a.a.x.x.x.x.c.x.m.s.<.] dX4X0X=X|.OX+XD F b D x .X9X] 3.M.f.f.f.x.x.x.j.j.m.x.x.x.x.x.x.x.x.x.x.x.x.",
"c.c.c.c.x.x.c.x.j.m.y.4.M 5X[.#X-X).'.C Z z z z oX3XE.@.C.c.f.x.x.x.x.x.N.x.x.g.x.x.c.x.x.x.x.x.x.x.",
"c.c.c.c.x.j.j.j.d.N.j.7.c 6XqX#X-XOX'.C z x G J $XXX1XcX6.B.c.l.j.B.x.x.g.x.x.x.x.x.c.x.x.j.x.x.x.x.",
"x.x.x.x.j.j.j.j.b.B.x.7.m 3X#X X|.|.-X:XF F J .X.XXX}.hX6.r.k.M.y.t.k.x.x.x.x.x.x.x.c.x.j.j.j.x.x.x.",
"x.x.N.j.x.j.j.m.0.m.x.<.} 8X2X;X#X}.oX(.qXoXoX$X$X%XwXM pXD.S.1.:.S.k.c.B.f.x.d.x.x.c.x.j.j.x.x.x.x.",
"x.x.m.m.x.x.x.x.V.j.j.e.K.yX6XOX.X$X`.'.`.OX[.OX`.%X{.v iX6.3.3.4.3.u.c.c.f.d.N.x.x.c.x.j.j.x.x.x.x.",
"x.x.m.m.x.c.x.x.d.d.B.J.:.{ 3XoX&XG H ].'.OX;X{.OXOX;X/.tX@.| yXyXu D.z.l.x.d.m.x.x.c.x.j.j.x.x.x.x.",
"x.x.a.a.k.c.x.x.N.h.g.k.Z.#.7XoX(.D K `.+XOX}.wX-X).OX@XL , / ].^.e G.z.c.x.b.i.x.x.c.x.j.j.x.x.x.x.",
"c.x.m.a.j.x.x.x.j.j.B.x.v.8.W.oXoXJ U :XOXOX#X#XOX'.`.`.J `./ T B %.C.c.c.g.m.m.x.x.x.x.j.j.x.x.x.x.",
"k.k.j.j.j.x.c.c.B.h.j.B.v.8.B 6X#X{.#X;X-X_.:X).+X`.`.`.F L n +.3.e.k.k.x.x.j.d.x.x.x.x.j.j.x.x.x.x.",
"k.k.x.x.j.x.c.c.j.N.x.h.v.7.p 3X#X-X|.{.OX:X).T H &X&X.X< R.6.v.B.B.x.j.j.j.x.x.x.x.x.x.x.x.x.x.x.x.",
"k.x.x.x.j.x.c.c.x.d.N.x.z.G.] 8X6X#X:X4X#X[.J b z D (.5X7 u 7.k.N.N.N.x.j.j.x.c.x.x.x.x.x.x.x.x.x.x.",
"x.x.x.x.m.j.x.x.B.d.N.N.x.C.4.P.3XoXOXOX}.oXD G G b %X*Xc $.<.N.N.N.B.B.x.x.x.x.x.x.x.x.x.x.x.x.x.x.",
"x.x.x.f.m.j.x.x.x.N.d.f.c.r.6.[ 9X+X'.`.#X5XG z z x oX6XI.rX<.V.B.B.B.B.B.B.c.x.x.x.x.x.x.x.x.x.x.x.",
"x.x.x.x.m.m.j.x.x.j.d.N.c.c.e.+.7X`.+X'.OXoXH Z x `.OX9X!.U.D.B.J.J.B.B.B.B.c.x.x.x.x.x.x.x.x.x.x.x.",
"x.x.x.x.j.j.j.x.N.d.b.j.g.c.k.5.dX{.-XoX#X%X(.`.#X4X|.9X!.$.Z.B.B.B.k.x.x.x.x.x.x.x.x.x.x.x.x.x.x.x.",
"j.x.x.x.j.j.j.x.g.N.N.0.B.x.k.7.sX#XOXE (.oX%X[.{.|.#X2XT.U.C.c.x.j.j.j.j.j.x.x.x.x.x.x.x.x.x.x.x.x.",
"j.x.x.x.j.j.x.x.x.x.j.j.j.x.x.7.P.@X`.K x `.%X[.OX_.OX6X~.+.<.x.j.j.j.x.k.B.B.B.x.x.x.x.x.x.x.x.x.x.",
"j.j.x.x.j.j.x.c.x.x.j.j.h.j.j.>.P.9XoXC ^ oX*X2X{._.-X@X^.} 2.N.j.j.j.j.x.k.c.B.x.x.x.x.x.x.x.x.x.x.",
"j.j.x.x.c.x.x.x.x.x.j.j.j.j.j.<.] 8X}.-X{. XlX,X4X{.|.2XsX] 1.j.x.j.j.j.j.x.x.x.x.x.x.x.x.x.x.x.x.x.",
"m.x.x.x.c.x.x.x.x.x.k.B.B.B.V.F.+.gX6X X2XlXnXnX1X}.0XeXsX+.S.B.x.j.j.j.j.j.x.x.x.x.x.x.x.x.x.x.x.x.",
"x.x.x.c.x.x.x.x.x.x.k.c.B.B.V.F.#.fX9X0XP mXnXbX/.2X2X9XtX%.,.j.j.j.j.j.j.j.x.x.x.x.x.x.x.x.x.x.x.x.",
"x.x.x.x.x.x.x.b.m.x.c.z.c.k.m.p.5.yX7X2X$ mXNXbX,X,X9X7XtX#.D.h.j.j.j.j.j.j.x.x.x.x.x.x.x.x.x.x.x.x.",
"x.x.x.x.x.x.b.b.b.m.c.z.c.x.j.p.3.pX~.Q.p MXNXMX<XI.p r @.3.u.B.x.j.j.j.j.j.x.x.x.x.x.x.x.x.x.x.x.x.",
"x.x.x.x.x.x.b.b.d.j.x.c.c.x.j.s.>.) xXjXE.NXbXkXaXjXhXxX[ >.k.l.x.j.j.j.j.j.x.x.x.x.x.x.x.x.x.x.x.x.",
"x.x.x.x.x.x.x.j.j.j.x.x.x.x.j.j.Z...cXBXBXL.7 P jXkXkXcX[ p.h.c.x.x.x.j.j.x.x.x.x.x.x.x.x.x.x.x.x.x.",
"x.x.x.x.x.x.x.x.x.x.x.x.x.x.x.j.w. .= - - . =X$ : > > s t *.k.h.x.x.x.x.x.x.x.x.x.x.x.x.x.x.x.x.x.x.",
"x.x.x.x.x.x.x.x.x.x.x.x.x.x.x.k.C.` i 6 + . >X+ + @ g i 0 -.v.x.x.j.j.x.x.x.x.x.x.x.x.x.x.x.x.x.x.x.",
"x.x.x.x.x.x.x.x.x.x.x.x.x.x.x.k.C...i f 6 # ( 4 f g j k 0 -.r.x.x.x.j.x.x.x.x.x.x.x.x.x.x.x.x.x.x.x.",
"x.x.x.x.x.x.x.x.x.x.x.x.x.x.x.j.y.` l h 3 2 ~ 3 d j d i y ,.k.c.x.x.j.j.j.x.x.x.x.x.x.x.x.x.x.x.x.x.",
"x.x.x.x.x.x.x.x.x.x.x.x.x.x.x.j.k.) a 6 2 W ~ 4 f k l a ) y.J.h.x.x.j.j.j.x.x.x.x.x.x.x.x.x.x.x.x.x.",
"x.x.x.x.x.x.x.x.x.x.x.x.x.x.x.x.c.Z.-.L.# ( Q   a ;.;.*.u.k.c.k.x.x.j.j.x.x.x.x.x.x.x.x.x.x.x.x.x.x.",
"x.x.x.x.x.x.x.x.x.x.x.x.x.x.x.x.k.k.u.X.>X! ! V @.-.k.j.j.x.q.B.x.x.j.x.x.x.x.x.x.x.x.x.x.x.x.x.x.x.",
"x.x.x.x.x.x.x.x.x.x.x.x.x.x.x.x.c.w.6.p ( A A Y O *  .w.k.j.d.N.x.x.x.x.x.x.x.x.x.x.x.x.x.x.x.x.x.x.",
"x.x.x.x.x.x.x.x.x.x.x.x.x.x.x.x.x.s.%.c / ! S U   & q A.t.j.j.d.x.x.x.x.x.x.x.x.x.x.x.x.x.x.x.x.x.x.",
"x.x.x.x.x.x.x.x.x.x.x.x.x.x.x.x.d.<.O.~.v 8 1 I o * t Z.t.q.B.j.j.x.x.x.x.x.x.x.x.x.x.x.x.x.x.x.x.x.",
"x.x.x.x.x.x.x.x.x.x.x.x.x.x.x.x.x.p.[ n p 5 NX; ..&.A.w.k.x.r.k.j.x.x.x.x.x.x.x.x.x.x.x.x.x.x.x.x.x.",
"x.x.j.x.x.x.x.x.x.x.x.x.x.x.x.x.c.t.u.:.#.y aXa 9.7.&.Z.x.x.r.k.j.x.x.x.x.x.x.x.x.x.x.x.x.x.x.x.x.x.",
"x.x.j.j.x.x.x.x.x.x.x.x.x.x.x.x.k.x.x.w.q w o o & * q _ B.f.B.k.j.x.x.x.x.x.x.x.x.x.x.x.x.x.x.x.x.x.",
"x.x.j.j.x.x.x.x.x.x.x.x.x.x.x.x.k.j.d.y.' % X & ; ; * q r.f.x.k.x.x.x.x.x.x.x.x.x.x.x.x.x.x.x.x.x.x.",
"x.x.j.j.x.x.x.x.x.x.x.x.x.x.x.x.N.d.N.e.' 9 9 % % X % ..j.f.j.j.x.x.x.x.x.x.x.x.x.x.x.x.x.x.x.x.x.x.",
"x.x.x.x.x.x.x.x.x.x.x.x.x.x.x.x.x.x.x.j.e.u.,.-.=. .&.e.k.g.j.N.x.x.x.x.x.x.x.x.x.x.x.x.x.x.x.x.x.x.",
"x.x.x.x.x.x.x.x.x.x.x.x.x.x.x.x.x.x.x.N.x.j.k.t.y.w.y.k.k.j.x.N.x.x.x.x.x.x.x.x.x.x.x.x.x.x.x.x.x.x."
};
