/* XPM */
static char *f5b91480d5b847408788e76dfb8e8d8bi2TOAFCtXLjCg76E[] = {
/* columns rows colors chars-per-pixel */
"50 50 256 2 ",
"   c #180800",
".  c #0B1400",
"X  c #141801",
"o  c #001716",
"O  c #181216",
"+  c #260800",
"@  c #360B00",
"#  c #231600",
"$  c #311508",
"%  c #00290D",
"&  c #192D07",
"*  c #2A2601",
"=  c #382A00",
"-  c #383603",
";  c #2C2E0F",
":  c #021B28",
">  c #001330",
",  c #0C2A2B",
"<  c #38342F",
"1  c #410100",
"2  c #620000",
"3  c #453500",
"4  c #482C0F",
"5  c #48352D",
"6  c #76231B",
"7  c #2E4707",
"8  c #22502F",
"9  c #524C0F",
"0  c #6D7905",
"q  c #6D7213",
"w  c #4E4F34",
"e  c #6C5032",
"r  c #757136",
"t  c #427B36",
"y  c #0E354F",
"u  c #2D3B49",
"i  c #102B60",
"p  c #473D58",
"a  c #13484F",
"s  c #2E4855",
"d  c #30654C",
"f  c #244C6B",
"g  c #2F566E",
"h  c #376D6E",
"j  c #485A53",
"k  c #505052",
"l  c #7B6546",
"z  c #757051",
"x  c #4A5866",
"c  c #507074",
"v  c #60655C",
"b  c #992519",
"n  c #962B21",
"m  c #87750F",
"M  c #97783A",
"N  c #A45832",
"B  c #8A714B",
"V  c #AB7348",
"C  c #8B7A6B",
"Z  c #D5765B",
"A  c #74820A",
"S  c #708924",
"D  c #72904E",
"F  c #6C8A70",
"G  c #5A9368",
"H  c #858D07",
"J  c #AB9E18",
"K  c #93AA0F",
"L  c #A5A908",
"P  c #96942D",
"I  c #8F8E32",
"U  c #B68C37",
"Y  c #B2A830",
"T  c #91AC2B",
"R  c #C8AF1E",
"E  c #C6943D",
"W  c #D0B333",
"Q  c #CED02F",
"!  c #EDD33E",
"~  c #E9EC38",
"^  c #E8F239",
"/  c #F0ED2F",
"(  c #88914F",
")  c #AA8555",
"_  c #B79658",
"`  c #B38E4D",
"'  c #9CAA4C",
"]  c #B3AA53",
"[  c #8B8A71",
"{  c #A89A79",
"}  c #AC906D",
"|  c #92AC73",
" . c #B4AD72",
".. c #C49746",
"X. c #D4884F",
"o. c #C5AA6C",
"O. c #D3AF58",
"+. c #B8CA52",
"@. c #BBD271",
"#. c #CAD251",
"$. c #E8D249",
"%. c #DAE646",
"&. c #D6E858",
"*. c #C9E54E",
"=. c #E6EA48",
"-. c #E8E657",
";. c #F3F24F",
":. c #CFD971",
">. c #EBD96D",
",. c #DBE367",
"<. c #D8E876",
"1. c #D5EF70",
"2. c #E8E978",
"3. c #F1EE70",
"4. c #346F8C",
"5. c #336A99",
"6. c #517A8B",
"7. c #46738B",
"8. c #4D78A2",
"9. c #3E89A7",
"0. c #3F929A",
"q. c #4F8891",
"w. c #7A9C9B",
"e. c #649097",
"r. c #77A796",
"t. c #5495AC",
"y. c #5390B2",
"u. c #699AB6",
"i. c #7696A9",
"p. c #76A7A8",
"a. c #68A9B9",
"s. c #75A9B7",
"d. c #6DAFB0",
"f. c #57A3BA",
"g. c #5998C6",
"h. c #579FDB",
"j. c #4F9CD9",
"k. c #659CCD",
"l. c #5AA5CA",
"z. c #5CACDB",
"x. c #5BA7D7",
"c. c #5EB0D5",
"v. c #68AAC8",
"b. c #76A8C7",
"n. c #68B4CA",
"m. c #64ABDD",
"M. c #68A6D6",
"N. c #74A6D5",
"B. c #69B2D5",
"V. c #70B0D3",
"C. c #4CA5EC",
"Z. c #4DABEC",
"A. c #49A8E7",
"S. c #5CACE4",
"D. c #52A5EC",
"F. c #54ACED",
"G. c #5BABEC",
"H. c #58A6E7",
"J. c #4CB3ED",
"K. c #53B1ED",
"L. c #5CB1EC",
"P. c #5DB4E2",
"I. c #4BA4F4",
"U. c #46ABF2",
"Y. c #4DABF4",
"T. c #4EAEFB",
"R. c #4CA6FA",
"E. c #52A6F5",
"W. c #59A5F3",
"Q. c #53ADF5",
"!. c #5BACF4",
"~. c #54A5FC",
"^. c #5CA6FD",
"/. c #53ADFB",
"(. c #5AABFC",
"). c #4DB1F4",
"_. c #4DB1FA",
"`. c #46B2F0",
"'. c #53B1F3",
"]. c #5AB3F5",
"[. c #54B2FD",
"{. c #5BB2FD",
"}. c #58B9FD",
"|. c #63A6E3",
" X c #64ABE4",
".X c #63ACEB",
"XX c #66A6ED",
"oX c #64B3E6",
"OX c #63ADF4",
"+X c #61ADFD",
"@X c #64AAF5",
"#X c #62B2FE",
"$X c #64B5F7",
"%X c #72B2EF",
"&X c #569FFB",
"*X c #68C3F8",
"=X c #969387",
"-X c #92B091",
";X c #AEA887",
":X c #89AFAD",
">X c #B2B9A5",
",X c #9C9B96",
"<X c #CAB08B",
"1X c #CEB7B2",
"2X c #B2CC8F",
"3X c #B8DAA7",
"4X c #B1CDB6",
"5X c #A5D8BE",
"6X c #C9C989",
"7X c #CCDD85",
"8X c #D3CD8E",
"9X c #E2DF94",
"0X c #C8E397",
"qX c #D4E78D",
"wX c #E0E388",
"eX c #F6FB87",
"rX c #E2EC99",
"tX c #E9F897",
"yX c #F4F090",
"uX c #CCCDB1",
"iX c #CAE8A4",
"pX c #D7F4A8",
"aX c #D4F0B2",
"sX c #E7ECA7",
"dX c #E9F7A7",
"fX c #F9FEAA",
"gX c #EAF6B5",
"hX c #8DB7D1",
"jX c #A0B4C9",
"kX c #95CDCC",
"lX c #B3D0CF",
"zX c #95D8FB",
"xX c #B1D9E9",
"cX c #BAECF6",
"vX c #B4EBE9",
"bX c #B6EBD7",
"nX c #D9DDCD",
"mX c #E6D7D0",
"MX c #D6ECC2",
"NX c #CAF9DA",
"BX c #D2F2D1",
"VX c #E6F8CA",
"CX c #F9F8CC",
"ZX c #F5F9D5",
"AX c #F2F5D4",
"SX c #C1D7E5",
"DX c #D9EDFE",
"FX c #D4F7FB",
"GX c #CFF4F3",
"HX c #EBFBE5",
"JX c #F9FAE7",
"KX c #E4FEFE",
"LX c #EAFCFE",
"PX c #EAF9F7",
"IX c #F8FBF7",
"UX c #E4E9E2",
/* pixels */
").).!.(././././.[.U.[.[.U._._./././._.[.[.T._._.'.Y._.T./.~.G.S.G.{.Y.Q.{./.[.Y.(.(.Q.).T./.(.!././.",
").).(.(././././.T.[.Q.Y.}.T./.E.(.E.[.U.I.[.T.Y.E.[.T.T./.#XS.z.m.oXF.Z.(.(.Q.}.(.(.Q.T.T./.(.(././.",
"_.T./.(.Q././././.Y.].D./.(.W.+XD.].T./.#X!.].(.^.(.].Z.(.H.x.v.d.q.oX].E.{.K.Z.!.(././.T././.(././.",
"_.T././.Q./././.Q.].F.$XH.|.M.M.v.B.l.B.a.a.a.b.s.e.d.d.s.h cXNXaX5Xt.OX!.Q.K.Z.(.(./.Q._.T././././.",
").Q././.'.Q././.E.F.S.x.hXa h % HX4X3XaX7XtXdXrX+.#.:.tXtX+.<.&.&.@.kXg.G.E.Y.{.(.(.Q.'.).).Q./././.",
"Q.Q././.'.'././.(.].F.B.cXNX2XpXgXgXqX<.3.&.Q -.=.;.;.-.-.;.;.;.^ *.NXy.OXY.[.U./.(.Q.Q.).).Q.Q././.",
"/././.Q.K.J././.E.E.{.x.h VX0XS fXdXsXsX- yX=.;.* 2.. 7XwX0 L ;.~ T d zXD./.[././.!.Q.Q.Q.Q.Q.Q.Q./.",
"/./.Q.'.K.J.Q././.(.I.oX:XiXq A tXfXX w . . 3.-.yXX ZXHXr X #.;.^ T NX9.{./.T./.Q.Q.Q./././.Q.Q.Q./.",
"/./.Q.K.K.'.T./././.Q.c.r.iX0 #.fXz JXJXHXVXX 9XCXJXIXPXUXX ,.Q =.7 G t.]./.R.{.[.Y././.[.R.T.T././.",
"(.Q.Q.F.Q.Q.T.T./.[.Y.z.r.aX+.<.gXJXIXLXKXPXuX; IXPXLXLXDXuXP =.%.7 BX4.H.{./.Y.Y.[.E./././.[.[././.",
"/./.Q.Q.Q.Q.T.T./.I.{.!.V.NXtXeX; IXPX: 6.: SXLXKX6.q.f FX4XdX&.^ *.D a oX(.H.K.Z.'.OXH.G.W.I./././.",
"Q.Q././.Q.Q.T._.Q.[.I.(. Xa <.3.AXLXIXKX: 4.xXLXKXcX: 4.GXlX2X1.%.+.t vXS.E.'.K.K.P.f.xXt.v.%XH.!./.",
"'.Q./.(.(./.).).Z.{./.(.G.h 1.%.CXPXLXc > b.SXLXKXjX: 6.xXlXaX:.,.7 G 0.L.T.Q.Q.K.v.BXpXiX| e.M.G./.",
").'./.(.(./.).).'.C././.Q.d.*.;.* HXHXo 6.xXj HX,XFX: GXlXX gX= :.@.NXt.A.[.T.[.!.v.iXeX' dXBXy  X/.",
"_././.(.(./.'.).Q.(.(.(./.a.:.* - CXuXHXGXlXsX6X. nXGXlX. CXfX>.O.:.j t.S.T._./.E.M.& q 9 qXaX, m./.",
"_.T././.(./.).).Q.E.(.(.T.v.0X3.yX# 9 8X3X| X Y ] 9 CXZX( q = W m I NX4.L.Y.[././.g.sX2.P dX& e.z.E.",
"K.'././.(.Q.).).Y././.T._.n.pX#.W R P Y %.=./ L J Y -.>.yX  W R Q ' kXl.H.'.Q.T./.t.qX-.2.0X:Xv.S.E.",
"'.Q././.Q.Q.)._./.E./.T.U.n.D ,.R $.* Y =.~ ~ ~ J Y -.3.3 3.! Q %.@.vXoXS.L.E.{.Q.d.:.%.:.-XkXc.G./.",
"/./././.).)./.(.#XE./.T.].f.-X7X<.H 2.* fXwX,.2.2.wX .- 3 3.-.=.%.T bXM.m..X].C.S.p.tX2.-XxXx.D././.",
"/././.Q.).)./.(.W.(.E./.Q.B.r.0X7 H -.- - .  . .X CX>X; 3 3.0 Q =.+.% FXcXM.x.M.s.NXrX .s M.@X(././.",
"/././.Q.'.Q./.(.+XW.(.{.Y.z.d.3XeXQ / ;.3 # JXJX4   < - 3.-.0 0 =.X HXFXxXa c , VXgX2X4XV.!.D.!.Q.Q.",
"(././.).Q.Q././.E.!.E.C.{. Xs.F ,./ / ~ # 4 < O 5 C $ 3 =.H A #.-.2.nXjXo GXHXBXaX3Xr.s..XE.E.Q.Q.Q.",
"!.Q.).)._.T./././.{.[.G.m.hXDX. ,.* H =.3.# 1X1X1X<XO.;./ / K &.3.2.[ :X: : hXxXp.s.B.x.H.#X[.Y.Q.Q.",
"!.Q.).)._.T././.G.S.l.t.f DXLX. ,.Q Q ;.J m CXCXCXyX$.! / ~ %.eXeX:.l O s b.N.N.V.x.K.[.].D.)._.T.Q.",
"E.{.D.Q.[.).U.F.v.q.MXVX:XvX:XVX&.=.=.=.-.>.yXM U J Y -.-.,.:.7X6X;X+ k jXN.XX@X.XG.'.).T./._.T././.",
"[.E.+X(.C.F.K.B.d BX2Xw e.h xX8 <.3.#.2.>.# wXyX>.O.eX+.' q 7 | =XJX5 p i XX~.~.+X(.Q.)._.T.Q./././.",
"[./.+X^.!.oXM.c VX| e.v.m.m.x.t.PXZXJXJXuXZXJXCXV N CXHXHXJXIXIXIXKXu.M..X!.E.(.^.^.Q.Q.Q.Q.Q.Q././.",
"U./.~.^.G.B.p.NX2XF v.'.Q.!.OXk.LXIXJXJXIXIXJXuX2 n mXIXIXIXmXv < u m.[.[.Y.Q.(.(.(.!.Q.Q.Q.!.!././.",
"/./.{.C.L.a.8 aX:Xa.P.Z.{.W.@X8.;Xo.o.o. .;X{ <X2 b o.}  .<X;X{ } C g.E.E./.T././.Q.Q.Q._.T././.E.Q.",
"/.E.].z.n.bXpX| r.n.*X*X#X#XXXf <X@ @ O.+ + @ 1 Z b 1 _ @ 3 + + @ C v.{.(.~.[.T./.Q.Q./.T.T./.Q.Q.Q.",
"Y.Q.S.v.BXpXtXdX| p.x.D.$X!.G.g  .E E E ....E X.n b N V U ..U ` ` C u.F.C.{.Y.U.).)././././.Q.F.Q.!.",
"'.G.m.cXpXeXeXrXiXkXm.Q.Q.D.OXg { ......U U X.Z n 6 e ) ` V ` ) ) [ f.Z.{.E.{.'.).T././././.Q.F.H.D.",
"].z.q.% rX2.2.qXF a.S./.[.[.A.q.;X_ _ _ ` _ ) } =XC =X[ ) ) } { v : g.'./.E.Q.].Q.T././././.Q.F.H.A.",
"G.S.n.vXiXq qX7 q.l.$X[.T.T.'.V.F r + + @ e < ,X:Xb.u.:Xl @ 4 5 k g m.Y.{.I.{.Z.T.T././././.Q.F.H.j.",
"Q.F.G.9.:Xd p.u.|.!.!.Q.Q.[.!.M.=X{ } V V e , b.|.H.L.v.z B V l k y XX+X~.{.E.T.T.T./././././.E.H.j.",
"E.{.E.S.v.v.M..X(.(.(.Q.Q./.(.|.e.,X} ) l j y x./././. Xx B M B c v.XX&X+XE./.[.T._.'.'._._./.Q.D.j.",
"(.I.(.!.XX@X!.Q.Y.Y./.T.T.T./.OXM., r r w.l.j.F.R.[./.!.M.w.D D q.h.$X!.W.{./.R._.).K.K.).).).F.!.H.",
"/.(.(.W.+X^.E.Q.'.).T.T._._.E.D.|.p.@.( a.Z.].Q./.{.I.(.S.d.| D v.Q.F.G.!.E.T.[.Q.K.F.F.).).).F.F.D.",
"T.T.{.W.(.#XE.'.Z.Z.'.).`.)./.@XM.w.rX| a.).C.Q.Q.C.(.!.|.a aX| l.[.Z.Y.{././.Z.G.G.W.!./.T.T./.Q.F.",
").[.E.(.(.E./.Y.Q.'.).).).).(.XXN.u gXD v.'./.(.(.!.E.OXM.e.MX8 c.Y.[.[./.T./.Q.!.!.!.(././././.[.Q.",
"`.)././././._.).Q.E.[.T._.T./. Xb.FXLX:X4. XW.!.E.Q.[.G.y.KXo s. X(.[.Y._.T.E./.(.(.(.(.(././././.).",
"J.J./././.T._.).Q.{.Y././.!.|.v.:Xo s > M.S.+X!.Q.Q._.L.4.KXKXFXN.M.|.H.Q.'.[.~./././.Q.!.E././././.",
"J.Q.(.(./.Q.Q.Q.].A.].{.XXM.7.lXMXuXj 7.m.!.!.(.E.}.A.z.i LXo , UXlXb.m.G.Q.{.Y.T.T.).'.F.G././././.",
").Q.(.(.(.Q.Q.Q./.{.!.x.b.lX>X* 9 [ < y y.D.[.I./.A.}.S.8.g k nX* w , i.g.H.Q.[.T._.).).F.F././././.",
"_.T./.!././.Q./.~.(.H.b.4X6X8Xo.l 5 s f 8.].`.}././.I.].M.g x k e <X6Xz c V.G.Y.).)._._.Q./././././.",
"T./.Q.Q././.Q./.(.~.OXs.;X ._ M e k s i h.F.).`.I.(.{.C.z.zXg k 5 } ) r j u..X{.Q.Y.T._././././././.",
"/./.Q.Q.).).Q././.#X|.f [ z B e w < f k.!./.Z.}.(.~.(.Q.G. X5.y c z e e k 7.m.D./././.'.Q.]././././.",
"(.(.Q.'.).).Y./.E.!.|.4.c v k x x 6.M.|././.}.Z.(.(.(.E.Q.!.S.M.i.u k v x f  X!.(././.Q.Q.Q.Q./././.",
"/./.Q.Q.).).Q././.E.G. XM.y.y.g.M. XG.W././.Q././././.Q./.Q.!.G. Xm.N.k.k.m.OX!././.Q.Q.Q.Q././././.",
"Q.Q./././././././.Q.!.].$XG.G.!.].Q.Q.Q./.Q././././././././.Q.Q./.Q.!.G.H.G.!.Q./.Q.Q.Q.Q.Q././././."
};
