/* XPM */
static char *_706c11e984445ffe8125805b64e75d58Z4n7p6jiIu3g2S7[] = {
/* columns rows colors chars-per-pixel */
"65 51 210 2 ",
"   c None",
".  c #121E2B",
"X  c #020231",
"o  c #070832",
"O  c #090B33",
"+  c #04063A",
"@  c #05083E",
"#  c #090D3B",
"$  c #0E1334",
"%  c #0C123C",
"&  c #131B36",
"*  c #131C3B",
"=  c #101635",
"-  c #0F1C29",
";  c #19222C",
":  c #172136",
">  c #1A2433",
",  c #17223C",
"<  c #192438",
"1  c #242C39",
"2  c #3A383C",
"3  c #342C31",
"4  c #42221E",
"5  c #4C2E1B",
"6  c #47281D",
"7  c #54331C",
"8  c #5A361D",
"9  c #5F391E",
"0  c #51301D",
"q  c #643D1E",
"w  c #683F1F",
"e  c #432522",
"r  c #472823",
"t  c #5B3320",
"y  c #463739",
"u  c #573F3E",
"i  c #693C21",
"p  c #6A411F",
"a  c #6D4220",
"s  c #734521",
"d  c #7B4B22",
"f  c #774C3B",
"g  c #060B43",
"h  c #080E4A",
"j  c #070D48",
"k  c #0C1444",
"l  c #0A124D",
"z  c #0F1846",
"x  c #131D43",
"c  c #121D4D",
"v  c #0B1454",
"b  c #0C175A",
"n  c #0D195D",
"m  c #0F1953",
"M  c #111D53",
"N  c #101D5B",
"B  c #162245",
"V  c #182544",
"C  c #18264B",
"Z  c #15245B",
"A  c #172759",
"S  c #1D334C",
"D  c #273747",
"F  c #373844",
"G  c #312C53",
"H  c #0E1C64",
"J  c #0F1E68",
"K  c #101F6A",
"L  c #101D64",
"P  c #11216D",
"I  c #182965",
"U  c #122474",
"Y  c #142779",
"T  c #15297C",
"R  c #172A75",
"E  c #1C347A",
"W  c #1C3364",
"Q  c #253263",
"!  c #493655",
"~  c #4A3B4A",
"^  c #4B3E66",
"/  c #22425F",
"(  c #3D4654",
")  c #3F464E",
"_  c #214362",
"`  c #25496A",
"'  c #284D6F",
"]  c #2B5275",
"[  c #2F597E",
"{  c #305B7F",
"}  c #374F67",
"|  c #47464C",
" . c #484E58",
".. c #554858",
"X. c #514B4C",
"o. c #75554B",
"O. c #75524B",
"+. c #4D5661",
"@. c #464D65",
"#. c #635F60",
"$. c #536A7C",
"%. c #706D6F",
"&. c #824F24",
"*. c #895324",
"=. c #925826",
"-. c #A25F3D",
";. c #A8613C",
":. c #A6613D",
">. c #965C43",
",. c #8A5847",
"<. c #A05F40",
"1. c #926954",
"2. c #A96846",
"3. c #B26D47",
"4. c #B7724A",
"5. c #B97B57",
"6. c #A27659",
"7. c #89746A",
"8. c #C57D50",
"9. c #BF805B",
"0. c #BA8465",
"q. c #A7816C",
"w. c #8E817B",
"e. c #CB8557",
"r. c #D08959",
"t. c #C78B67",
"y. c #D18D60",
"u. c #CD926C",
"i. c #D29165",
"p. c #D2946B",
"a. c #D5986F",
"s. c #CB9574",
"d. c #C99678",
"f. c #D69B74",
"g. c #D69E79",
"h. c #D8A27E",
"j. c #162C83",
"k. c #172F88",
"l. c #19318D",
"z. c #19328B",
"x. c #1B3696",
"c. c #1A3493",
"v. c #1C399A",
"b. c #1D3A9D",
"n. c #1C399D",
"m. c #1C3897",
"M. c #203E94",
"N. c #1E3EA6",
"B. c #1E3CA2",
"V. c #1F3FA8",
"C. c #305B81",
"Z. c #234298",
"A. c #36638B",
"S. c #3A6B96",
"D. c #1F40A9",
"F. c #2042AD",
"G. c #2042AC",
"H. c #2347B6",
"J. c #2244B2",
"K. c #2449BB",
"L. c #274DB7",
"P. c #476F91",
"I. c #457AA8",
"U. c #477DB2",
"Y. c #727A81",
"T. c #264DC3",
"R. c #2751C9",
"E. c #2853CD",
"W. c #2A56D3",
"Q. c #79838F",
"!. c #4780AA",
"~. c #4B85B8",
"^. c #5993BB",
"/. c #5589AE",
"(. c #6391B2",
"). c #4F8BC0",
"_. c #5393C5",
"`. c #5597C9",
"'. c #579ACB",
"]. c #599DCD",
"[. c #5999C4",
"{. c #528FC3",
"}. c #5BA1CE",
"|. c #5DA4D2",
" X c #5FA8D4",
".X c #61ABD6",
"XX c #62AED8",
"oX c #65B3DC",
"OX c #68B9DF",
"+X c #6ABCE2",
"@X c #6DC1E5",
"#X c #888F95",
"$X c #9DA2A8",
"%X c #A8A19E",
"&X c #D9A583",
"*X c #DAAB8B",
"=X c #D1A48A",
"-X c #DCAF92",
";X c #D5AC94",
":X c #DDB397",
">X c #DDB69C",
",X c #D7B199",
"<X c #C4A998",
"1X c #DFBAA1",
"2X c #E0BDA7",
"3X c #E1BFAB",
"4X c #E1C1AD",
"5X c #E3C5B2",
"6X c #D1D3D6",
"7X c #E0E2E3",
/* pixels */
"                                                                      < < < <                                                     ",
"                                                                  < < < < < < < < <                                               ",
"                                                                < < < c m m M B < < < <                                           ",
"                                                              < < , b n H H J J L C < < <                                         ",
"                                                          < < < B H J J J K K P P P I , < <                                       ",
"                                                        < < < M J J K P P U U U U U U P B < <                                     ",
"                                                      < < , N J P P U U U Y Y Y Y Y Y U U V < <                                   ",
"                                                    < < B L K P U U Y T T T j.j.j.j.T Z P U V < <                                 ",
"                                                < < < c J P U U Y T T j.k.k.k.k.k.k.T < < R R V < <                               ",
"                                              < < , N J P U U T T j.k.k.l.l.l.l.l.l.z.V < C j.T V < <                             ",
"                                            < < , n J P U U T j.k.k.l.l.c.c.x.x.x.x.c.I < < I j.T V < <                           ",
"                                            < < N J P U Y T j.k.z.l.c.x.m.v.b.b.v.v.m.z.< < < T j.T V < <                         ",
"                                          < < M J K U U T j.k.l.c.x.v.b.b.B.B.B.B.B.b.v.C < < V T T Y V < <                       ",
"                                        < < c H K P U T j.k.l.c.x.b.B.B.N.V.D.D.N.N.N.B.E < < < V T T U B < <                     ",
"                                      < < x H J P U Y j.k.l.c.x.b.B.N.G.G.G.J.J.G.G.D.N.b.< < < < V R Y U C < < <                 ",
"                                  < < < x b H K U U T k.z.c.x.b.B.N.G.J.J.J.J.J.J.J.G.G.N.A < < < < V U U P Z < < <               ",
"                              < < < * z b n J P U Y j.k.l.x.v.B.N.G.J.J.K.K.K.K.K.J.J.G.V.z.< <   < < V P P J N , < < <           ",
"                        < < < < & k l v b H K U U T k.z.c.m.b.N.G.J.J.K.T.T.T.T.T.K.J.J.G.N.V <     < < < A J H b x < < < <       ",
"                      < < < & # g j l v n J K U Y j.k.l.x.v.B.D.J.J.K.T.T.E.E.R.T.K.K.J.G.N.W < <     < < < B n b v l * < < <     ",
"                  < < < & o X + g j v b n J P U T j.k.c.x.b.N.G.J.K.T.T.E.W.W.E.R.T.K.J.G.N.v.A < < <     < < , m v j g # & < <   ",
"              < < < & o X X + @ g l l m M Z Z Z Z I I R E z.m.B.F.K.T.R.W.W.W.E.R.T.K.J.G.N.b.x.E C < < <   < < < x k g + $ <     ",
"            < < < $ X o O $ & & < < < < < < < < < < < < < < < < < V A E Z.L.E.E.T.T.K.J.G.N.b.x.l.k.I V < <     < < < & # & <     ",
"        < < < : = & < < < < < < < < < < y ..%.1 < : < 1 X.| F F 1 < < < < < < C W E M.G.D.B.v.c.l.k.T U A < < <     < < < < <     ",
"    < < < < < < < < < < < & & * * x x G ;.>Xw.D %. .- ; 7.:X-X*X*Xd.q.F < : < < < < < < A E l.c.z.k.T U P N , < <       < <       ",
"  < < < < < < : & $ o X X X + g j l v G ;.3XF #X7X$X .- | :X-X*X*X&Xq.1 #XQ.( . > o.2 < < < < C I R Y U P J n x < < <             ",
"< < < < & O X X X X X X X X + g j v b ! ;.5X#.+.$X#X .; #.:X-X*X*X&X7.) 6X6XY.> ; 5.r.5.,.X.< < < < < C Z H n v z < < <           ",
": < O X X X X X X X X X X + @ j h v b ! ;.5X%X> 1 1 . 1 ,X:X-X*X*X&Xd.> %.Q.+.. 2 r.r.r.r.e.-.F < < < < < , x l h k < < <         ",
"    < $ X X X X X X X X X + @ j l v n ! 2.5X5X<X| 2 %.<X>X:X-X*X*X&Xh.X.; . ; ; 5.r.r.r.r.3.>.Y U K M B < < < < * % # : < <       ",
"      < : O X X X X X X X + g j l v n ! ;.4X5X5X5X4X2X1X>X:X-X*X*X&Xh.g.0.o.6.i.y.r.r.r.e.;.^ U P J H b v k & < < < : $ : < <     ",
"          < & o X X X X X + g j v v n Q ;.;X5X5X5X4X2X1X>X:X-X*X*X&Xh.g.f.a.p.i.y.r.r.r.4.>.T U K H n v l j @ + $ : < < < < < <   ",
"              < & o X X X + g j v v n L <.d.5X5X5X4X2X1X>X:X-X*X*X&Xh.g.f.f.p.i.y.r.r.e.;...U P J n v v j g + X X X O & < < < < < ",
"                  < & o X + g j l v n L O.5.5X5X5X4X2X1X>X:X-X*X*X&Xh.g.f.a.p.i.y.r.r.4.-.R P J H b v j g + + X X X X X o $ < < < ",
"                      < & % g j l v n H ! ;.,X5X5X;X5.5.5.0.t.t.t.u.u.p.p.p.p.i.r.r.8.;...P K H b v l j @ + X X X X X o $ < < <   ",
"                4 4       < < * k v b H L ,.3.4X5X4X,X4.;.;.;.;.;.;.;.;.3.p.p.i.r.e.;.O.P K H b v l j g + X X X o $ : < <         ",
"              4 4 4 4           < < B c n Q ;.d.5X4X2X>X0.;.5.s.t.2.;.5.f.a.p.i.r.2.>.Q J H b v l j g + O $ & < < <               ",
"            4 4 5 5 4 4 4             < < < u ;.d.3X2X1X>Xs.;.;.;.3.u.g.f.a.p.e.3.2.} _ W b v z k * & < < <                       ",
"          4 4 5 5 5 5 6 4 4                   f ;.5.=X1X>X:X*Xg.d.&Xh.g.f.i.4.;.1./.~.] _ S < < < <                               ",
"          4 4 5 5 5 5 5 5 4 4 4                   ;.;.2.0.s.s.s.s.t.9.4.3.;.2.Q._._._.~.` _                                       ",
"          4 6 5 5 5 5 5 5 5 4 4 4                 _ ( o.,.;.;.;.;.;.2.1.7.Q.[.`.`.`._.I.[ _ _ _                                   ",
"          4 4 5 5 5 5 5 5 5 5 6 4 4       _ _ _ _ _ _ I.~._.[.^.(.[.'.'.'.'.'.'.'.!.` _ _ _ _ _ _ _                               ",
"          4 4 4 6 5 5 5 5 5 5 5 5 4 4 3 / _ ' [ _ _ !.`.'.'.'.].].].].].].].].].I._ _ A.U._._.!.A._ _                             ",
"              4 4 4 5 5 5 5 5 5 5 7 6 4 e P.~.` _ I.'.'.'.].].].|.|.}.|.|.|.|.^._ ` ~.'.'.'.'.`._.S._ _                           ",
"                  4 4 6 5 5 5 5 7 7 8 7 e e ( _ A.'.'.].].].}.|.|.|.|.|.|.|.|.] _ I.].}.|.|.}.'.`._.] _                           ",
"                    4 4 4 6 5 7 7 8 8 9 9 5 4 3 /.].].].}.|.|.|.|.|. X X X X|._ ] ].|.|. X X|.}.'.`.I._ _                         ",
"                        4 4 4 5 8 8 9 q q w 8 4 r P.}.|.|.|.|..X X.X.X.X.X.X|._ { |. XXXoXXX.X|.].'.{.' _                         ",
"                        _ D 3 4 6 8 q q w p a i 6 4  .[.|. X X.X.XXXXXXXXXXX]._ A.|..XoXoXoXoX.X|.'._.S._                         ",
"                        _ ] U.@.e 4 0 q p a s s s t 4 y /..X.XXXXXoXoXoXoXoX!._ I. XoXoX+X+XoXXX|.].`.~._ _                       ",
"                      _ ` U.~.~.I.~ 4 e 9 s s d d d s r e $..XoXoXoXoXoXoXoX' _ [. XoX+X@X+XoXXX|.].`.)._ _                       ",
"                    _ _ ] A.S.U.~.~.P.3 4 r a d d &.&.&.t 4 ~ ^.oXoXOXOX+XP._ S.].|.XXoX+X+XoX.X|.].`.).] _                       ",
"                  _ _ _ _ _ _ _ ` C.{ _ } r 4 t d &.&.*.*.s e e $.oX+X+X}._ _ ~.].|..XoXoXoXoX.X|.'._.).C._                       ",
"                    / D D D |  .} _ _ ` `.^.+.4 e i *.*.=.=.*.t 4 y ^.+X[._ _ _ C.~.|..XXXXX.X|.].`.{.~.A._                       "
};
