/* XPM */
static char *_d76e0e856e9490bb3c3fe8f3f283a4cr2nphTH66T1X8nYK[] = {
/* columns rows colors chars-per-pixel */
"50 50 4 1 ",
"  c #53ADF9",
". c #56AFF9",
"X c #5DB2FA",
"o c #6AB9FA",
/* pixels */
"                                                  ",
"                                                  ",
"                                                  ",
"                                                  ",
"                                                  ",
"                                                  ",
"                                                  ",
"                                                  ",
"                                                  ",
"                                                  ",
"                                                  ",
"                                                  ",
"                                                  ",
"                                                  ",
"                                                  ",
"                                                  ",
" ..                                               ",
"...                                               ",
"                                                  ",
"               .                                  ",
"               . .X...                            ",
"            ...X.Xooo..   ..                      ",
"              .ooooooXX.  ..... ..                ",
"               XooooXooX XoXoXoX.                 ",
"               .X..X.oX.XXoo..X.                  ",
"                    .ooXo.                        ",
"                    .X...     .XX..               ",
"                      X...      X..               ",
"                ..  .XXX..                        ",
"     . .XXXoo...Xo.  X.                           ",
"        . ..X... .                                ",
"         .  .                                     ",
"         .                                        ",
"                                                  ",
"                                                  ",
"                                                  ",
"                                                  ",
"                                                  ",
"                                                  ",
"                                                  ",
"                                                  ",
"                                                  ",
"                                                  ",
"                                                  ",
"                                                  ",
"                                              .   ",
"                                                  ",
"                                                  ",
"                                                  ",
"                                                  "
};
